<svg width="45" height="46" viewBox="0 0 45 46" fill="none" xmlns="http://www.w3.org/2000/svg">
<path d="M14.0625 31.625H11.25V40.25H33.75V31.625H30.9375V34.5H14.0625V31.625ZM5.77687 24.7882C5.68969 25.139 5.625 25.4984 5.625 25.875C5.625 26.4413 5.73412 27.0021 5.94613 27.5253C6.15814 28.0485 6.4689 28.5239 6.86064 28.9244C7.25239 29.3249 7.71746 29.6425 8.2293 29.8592C8.74115 30.076 9.28974 30.1875 9.84375 30.1875C10.3978 30.1875 10.9464 30.076 11.4582 29.8592C11.97 29.6425 12.4351 29.3249 12.8269 28.9244C13.2186 28.5239 13.5294 28.0485 13.7414 27.5253C13.9534 27.0021 14.0625 26.4413 14.0625 25.875C14.0625 27.0187 14.507 28.1156 15.2981 28.9244C16.0893 29.7331 17.1624 30.1875 18.2812 30.1875C19.4001 30.1875 20.4732 29.7331 21.2644 28.9244C22.0555 28.1156 22.5 27.0187 22.5 25.875C22.5 27.0187 22.9445 28.1156 23.7356 28.9244C24.5268 29.7331 25.5999 30.1875 26.7188 30.1875C27.8376 30.1875 28.9107 29.7331 29.7019 28.9244C30.493 28.1156 30.9375 27.0187 30.9375 25.875C30.9375 26.4413 31.0466 27.0021 31.2586 27.5253C31.4706 28.0485 31.7814 28.5239 32.1731 28.9244C32.5649 29.3249 33.03 29.6425 33.5418 29.8592C34.0536 30.076 34.6022 30.1875 35.1562 30.1875C35.7103 30.1875 36.2589 30.076 36.7707 29.8592C37.2825 29.6425 37.7476 29.3249 38.1394 28.9244C38.5311 28.5239 38.8419 28.0485 39.0539 27.5253C39.2659 27.0021 39.375 26.4413 39.375 25.875C39.375 25.4984 39.3131 25.139 39.2259 24.7882L36.5625 5.75H8.4375L5.77687 24.7882Z" fill="white"/>
</svg>
