<svg width="250" height="258" viewBox="0 0 250 258" fill="none" xmlns="http://www.w3.org/2000/svg">
<g filter="url(#filter0_d_109_504)">
<path d="M12.3047 23.1806V14.0945C12.3047 9.07176 16.3765 5 21.3992 5H34.5965" stroke="#FFB01D" stroke-width="2.48033" stroke-linecap="round"/>
</g>
<g filter="url(#filter1_d_109_504)">
<path d="M12.3047 224.819V233.905C12.3047 238.928 16.3765 243 21.3992 243H34.5965" stroke="#FFB01D" stroke-width="2.48033" stroke-linecap="round"/>
</g>
<g filter="url(#filter2_d_109_504)">
<path d="M237.699 224.819V233.905C237.699 238.928 233.627 243 228.605 243H215.407" stroke="#FFB01D" stroke-width="2.48033" stroke-linecap="round"/>
</g>
<g filter="url(#filter3_d_109_504)">
<path d="M236.766 23.1806V14.0945C236.766 9.07176 232.694 5 227.671 5H214.474" stroke="#FFB01D" stroke-width="2.48033" stroke-linecap="round"/>
</g>
<g clip-path="url(#clip0_109_504)">
<path d="M136.283 90.1538H121.258V97.6924H143.822V75.1282H136.283V90.1538Z" fill="#4A4A6A"/>
<path d="M121.257 82.667H113.719V90.2056H121.257V82.667Z" fill="#4A4A6A"/>
<path d="M83.6675 90.1538H76.1289V97.6924H83.6675V90.1538Z" fill="#4A4A6A"/>
<path d="M219.002 90.1538H196.438V97.6924H219.002V90.1538Z" fill="#4A4A6A"/>
<path d="M38.5386 97.6924H31V105.231H38.5386V97.6924Z" fill="#4A4A6A"/>
<path d="M98.6909 97.6924H113.716V90.1538H98.6909V67.5897H91.1523V105.179H98.6909V97.6924Z" fill="#4A4A6A"/>
<path d="M173.873 105.179H181.412V90.1538H158.848V97.6924H173.873V105.179Z" fill="#4A4A6A"/>
<path d="M196.488 97.6924H188.949V105.231H196.488V97.6924Z" fill="#4A4A6A"/>
<path d="M128.742 112.718V105.179H121.256V97.6924H113.717V105.179H98.6914V112.718H113.717V120.257H121.256V112.718H128.742Z" fill="#4A4A6A"/>
<path d="M203.976 112.718V120.256H211.515V127.743H219.002V105.179H196.438V112.718H203.976Z" fill="#4A4A6A"/>
<path d="M76.1283 112.718H91.1538V105.179H61.1027V97.6924H68.5897V90.1538H46.0255V97.6924H53.5641V112.718H46.0255V105.179H38.5386V112.718H31V157.846H38.5386V127.743H46.0255V120.257H53.5641V127.743H91.1538V120.257H76.1283V112.718Z" fill="#4A4A6A"/>
<path d="M98.6909 112.718H91.1523V120.257H98.6909V112.718Z" fill="#4A4A6A"/>
<path d="M203.976 120.257H196.438V127.795H203.976V120.257Z" fill="#4A4A6A"/>
<path d="M188.948 135.282H181.41V127.743H188.948V120.205H181.41V112.718H173.923V120.205H166.384V105.179H158.846V97.6406H143.923V105.179H151.462V120.205H158.949V127.743H143.923V105.179H136.436V112.718H128.898V120.205H121.359V127.743H136.436V135.282H166.488V127.743H174.026V135.282H166.488V142.769H204.077V150.307H158.949V142.769H151.462V165.333H143.923V172.923H136.436V165.333H128.898V187.897H136.436V180.41H143.923V187.897H166.488V202.974H174.026V218H181.513V195.436H174.026V187.897H181.513V195.436H189.052V157.846H196.59V172.923H204.077V180.462H211.616V172.923H219.155V157.846H211.616V165.333H204.077V157.846H211.616V150.307H219.155V135.282H196.59V127.743H189.052L188.948 135.282ZM181.41 180.41H158.846V157.846H181.41V180.41Z" fill="#4A4A6A"/>
<path d="M113.769 127.743H106.23V142.769H113.769V127.743Z" fill="#4A4A6A"/>
<path d="M53.5659 135.282H46.0273V157.846H53.5659V135.282Z" fill="#4A4A6A"/>
<path d="M106.178 150.308V142.821H98.6912V135.282H61.1016V150.308H68.5885V142.821H83.6657V150.308H76.1271V157.846H91.1526V150.308H106.178Z" fill="#4A4A6A"/>
<path d="M98.6909 157.846H91.1523V165.385H98.6909V157.846Z" fill="#4A4A6A"/>
<path d="M121.257 157.846V150.308H128.744V157.846H143.821V142.821H128.744V135.282H121.257V142.821H113.719V165.385H128.744V157.846H121.257Z" fill="#4A4A6A"/>
<path d="M31 218H83.6669V165.333H31V218ZM76.1282 172.923V210.513H38.5387V172.923H76.1282Z" fill="#4A4A6A"/>
<path d="M113.717 165.385H98.6914V172.923H113.717V165.385Z" fill="#4A4A6A"/>
<path d="M173.925 165.385H166.387V172.923H173.925V165.385Z" fill="#4A4A6A"/>
<path d="M121.257 172.872H113.719V180.41H121.257V172.872Z" fill="#4A4A6A"/>
<path d="M91.1523 202.974H98.6909V210.513H106.178V187.949H113.716V180.41H91.1523V202.974Z" fill="#4A4A6A"/>
<path d="M203.976 180.41H196.438V187.949H203.976V180.41Z" fill="#4A4A6A"/>
<path d="M211.513 210.513H188.949V218H219V187.949H211.513V210.513Z" fill="#4A4A6A"/>
<path d="M68.5915 180.41H46.0273V202.974H68.5915V180.41Z" fill="#4A4A6A"/>
<path d="M121.257 187.949H113.719V202.974H121.257V187.949Z" fill="#4A4A6A"/>
<path d="M151.307 195.436H136.281V202.975H143.82V210.513H151.307V195.436Z" fill="#4A4A6A"/>
<path d="M203.975 195.436H188.949V202.975H203.975V195.436Z" fill="#4A4A6A"/>
<path d="M128.796 202.975H121.258V210.513H128.796V202.975Z" fill="#4A4A6A"/>
<path d="M166.386 202.975H158.848V210.513H166.386V202.975Z" fill="#4A4A6A"/>
<path d="M113.769 210.513H106.23V218.052H113.769V210.513Z" fill="#4A4A6A"/>
<path d="M136.281 210.513H128.742V218.052H136.281V210.513Z" fill="#4A4A6A"/>
<path d="M158.847 210.513H151.309V218.052H158.847V210.513Z" fill="#4A4A6A"/>
</g>
<g clip-path="url(#clip1_109_504)">
<path d="M121.257 30H113.719V37.5386H121.257V30Z" fill="#F6F6F9"/>
<path d="M166.383 30V82.6152H219.05V30H166.383ZM211.511 75.0766H173.922V37.487H211.511V75.0766Z" fill="#F6F6F9"/>
<path d="M68.5915 45.0254H46.0273V67.5895H68.5915V45.0254Z" fill="#F6F6F9"/>
<path d="M203.974 45.0254H181.41V67.5895H203.974V45.0254Z" fill="#F6F6F9"/>
<path d="M143.819 75.1283H151.306V82.6668H158.845V67.5897H151.306V60.1027H158.845V45.0255H151.306V30H143.819V45.0255H136.281V60.1027H128.742V45.0255H113.716V52.5641H106.178V45.0255H113.716V37.5386H98.6909V30H91.1523V52.5641H98.6909V67.5897H143.819V75.1283Z" fill="#F6F6F9"/>
<path d="M83.6669 30H31V82.6152H83.6669V30ZM38.5387 75.0766V37.487H76.1282V75.0766H38.5387Z" fill="#F6F6F9"/>
<path d="M113.769 75.1282H106.23V82.6668H113.769V75.1282Z" fill="#F6F6F9"/>
<path d="M128.796 75.1282H121.258V82.6668H128.796V75.1282Z" fill="#F6F6F9"/>
<path d="M136.283 90.1538H121.258V97.6924H143.822V75.1282H136.283V90.1538Z" fill="#F6F6F9"/>
<path d="M121.257 82.667H113.719V90.2056H121.257V82.667Z" fill="#F6F6F9"/>
<path d="M98.6909 97.6924H113.716V90.1538H98.6909V67.5897H91.1523V105.179H98.6909V97.6924Z" fill="#F6F6F9"/>
</g>
<g filter="url(#filter4_d_109_504)">
<line x1="11" y1="82.375" x2="239" y2="82.375" stroke="#FFB01D" stroke-width="4" stroke-linecap="round"/>
</g>
<defs>
<filter id="filter0_d_109_504" x="2.79676" y="0.452721" width="41.3077" height="37.1964" filterUnits="userSpaceOnUse" color-interpolation-filters="sRGB">
<feFlood flood-opacity="0" result="BackgroundImageFix"/>
<feColorMatrix in="SourceAlpha" type="matrix" values="0 0 0 0 0 0 0 0 0 0 0 0 0 0 0 0 0 0 127 0" result="hardAlpha"/>
<feOffset dy="4.96066"/>
<feGaussianBlur stdDeviation="4.13388"/>
<feComposite in2="hardAlpha" operator="out"/>
<feColorMatrix type="matrix" values="0 0 0 0 1 0 0 0 0 0.690196 0 0 0 0 0.113725 0 0 0 0.3 0"/>
<feBlend mode="normal" in2="BackgroundImageFix" result="effect1_dropShadow_109_504"/>
<feBlend mode="normal" in="SourceGraphic" in2="effect1_dropShadow_109_504" result="shape"/>
</filter>
<filter id="filter1_d_109_504" x="2.79676" y="220.272" width="41.3077" height="37.1964" filterUnits="userSpaceOnUse" color-interpolation-filters="sRGB">
<feFlood flood-opacity="0" result="BackgroundImageFix"/>
<feColorMatrix in="SourceAlpha" type="matrix" values="0 0 0 0 0 0 0 0 0 0 0 0 0 0 0 0 0 0 127 0" result="hardAlpha"/>
<feOffset dy="4.96066"/>
<feGaussianBlur stdDeviation="4.13388"/>
<feComposite in2="hardAlpha" operator="out"/>
<feColorMatrix type="matrix" values="0 0 0 0 1 0 0 0 0 0.690196 0 0 0 0 0.113725 0 0 0 0.3 0"/>
<feBlend mode="normal" in2="BackgroundImageFix" result="effect1_dropShadow_109_504"/>
<feBlend mode="normal" in="SourceGraphic" in2="effect1_dropShadow_109_504" result="shape"/>
</filter>
<filter id="filter2_d_109_504" x="205.899" y="220.272" width="41.3077" height="37.1964" filterUnits="userSpaceOnUse" color-interpolation-filters="sRGB">
<feFlood flood-opacity="0" result="BackgroundImageFix"/>
<feColorMatrix in="SourceAlpha" type="matrix" values="0 0 0 0 0 0 0 0 0 0 0 0 0 0 0 0 0 0 127 0" result="hardAlpha"/>
<feOffset dy="4.96066"/>
<feGaussianBlur stdDeviation="4.13388"/>
<feComposite in2="hardAlpha" operator="out"/>
<feColorMatrix type="matrix" values="0 0 0 0 1 0 0 0 0 0.690196 0 0 0 0 0.113725 0 0 0 0.3 0"/>
<feBlend mode="normal" in2="BackgroundImageFix" result="effect1_dropShadow_109_504"/>
<feBlend mode="normal" in="SourceGraphic" in2="effect1_dropShadow_109_504" result="shape"/>
</filter>
<filter id="filter3_d_109_504" x="204.966" y="0.452721" width="41.3077" height="37.1964" filterUnits="userSpaceOnUse" color-interpolation-filters="sRGB">
<feFlood flood-opacity="0" result="BackgroundImageFix"/>
<feColorMatrix in="SourceAlpha" type="matrix" values="0 0 0 0 0 0 0 0 0 0 0 0 0 0 0 0 0 0 127 0" result="hardAlpha"/>
<feOffset dy="4.96066"/>
<feGaussianBlur stdDeviation="4.13388"/>
<feComposite in2="hardAlpha" operator="out"/>
<feColorMatrix type="matrix" values="0 0 0 0 1 0 0 0 0 0.690196 0 0 0 0 0.113725 0 0 0 0.3 0"/>
<feBlend mode="normal" in2="BackgroundImageFix" result="effect1_dropShadow_109_504"/>
<feBlend mode="normal" in="SourceGraphic" in2="effect1_dropShadow_109_504" result="shape"/>
</filter>
<filter id="filter4_d_109_504" x="0.732238" y="77.0679" width="248.536" height="20.5355" filterUnits="userSpaceOnUse" color-interpolation-filters="sRGB">
<feFlood flood-opacity="0" result="BackgroundImageFix"/>
<feColorMatrix in="SourceAlpha" type="matrix" values="0 0 0 0 0 0 0 0 0 0 0 0 0 0 0 0 0 0 127 0" result="hardAlpha"/>
<feOffset dy="4.96066"/>
<feGaussianBlur stdDeviation="4.13388"/>
<feComposite in2="hardAlpha" operator="out"/>
<feColorMatrix type="matrix" values="0 0 0 0 1 0 0 0 0 0.690196 0 0 0 0 0.113725 0 0 0 0.3 0"/>
<feBlend mode="normal" in2="BackgroundImageFix" result="effect1_dropShadow_109_504"/>
<feBlend mode="normal" in="SourceGraphic" in2="effect1_dropShadow_109_504" result="shape"/>
</filter>
<clipPath id="clip0_109_504">
<rect width="188" height="135" fill="white" transform="translate(31 83)"/>
</clipPath>
<clipPath id="clip1_109_504">
<rect width="188" height="53" fill="white" transform="translate(31 30)"/>
</clipPath>
</defs>
</svg>
