<?xml version="1.0" encoding="UTF-8" standalone="no"?>
<!-- Created with Inkscape (http://www.inkscape.org/) -->

<svg
   width="64.724998mm"
   height="61.686802mm"
   viewBox="0 0 64.724999 61.686802"
   version="1.1"
   id="svg5"
   sodipodi:docname="text_bubble_small_down.svg"
   inkscape:version="1.2.2 (b0a8486541, 2022-12-01)"
   xmlns:inkscape="http://www.inkscape.org/namespaces/inkscape"
   xmlns:sodipodi="http://sodipodi.sourceforge.net/DTD/sodipodi-0.dtd"
   xmlns="http://www.w3.org/2000/svg"
   xmlns:svg="http://www.w3.org/2000/svg">
  <sodipodi:namedview
     id="namedview7"
     pagecolor="#ffffff"
     bordercolor="#666666"
     borderopacity="1.0"
     inkscape:pageshadow="2"
     inkscape:pageopacity="0.0"
     inkscape:pagecheckerboard="0"
     inkscape:document-units="mm"
     showgrid="false"
     inkscape:zoom="1.8116735"
     inkscape:cx="86.108231"
     inkscape:cy="188.22376"
     inkscape:window-width="1920"
     inkscape:window-height="1011"
     inkscape:window-x="0"
     inkscape:window-y="32"
     inkscape:window-maximized="1"
     inkscape:current-layer="svg5"
     fit-margin-top="0"
     fit-margin-left="0"
     fit-margin-right="0"
     fit-margin-bottom="0"
     inkscape:showpageshadow="2"
     inkscape:deskcolor="#d1d1d1" />
  <defs
     id="defs2" />
  <g
     inkscape:groupmode="layer"
     id="layer2"
     inkscape:label="Bg"
     transform="translate(-43.996203,-117.58367)"
     sodipodi:insensitive="true"
     style="display:none">
    <rect
       style="fill:#d40000;stroke-width:0.449792;stop-color:#000000"
       id="rect345"
       width="61.621536"
       height="57.572754"
       x="1.0388107"
       y="0.94760627"
       transform="translate(43.996203,117.58367)" />
  </g>
  <g
     inkscape:label="Down"
     inkscape:groupmode="layer"
     id="g397"
     transform="translate(-43.996202,-117.58367)"
     style="display:inline">
    <path
       style="display:inline;fill:#030303;stroke:none;stroke-width:0.0813543;stroke-opacity:1"
       d="m 70.592982,159.17915 c -1.879516,5.12625 -5.533178,8.1759 -5.244744,12.98449 1.579403,6.42081 4.365359,7.76134 7.733214,6.6463 0.168398,-1.63269 -1.391601,-1.42972 -2.257128,-4.09563 -0.687232,-2.11674 1.086918,-6.31696 4.208916,-10.33083 0.738971,-0.95001 1.343152,-1.9542 1.965622,-2.94432 0.360934,-0.57418 0.543306,-1.28608 1.208108,-1.64403 1.590887,-0.8566 3.787056,-0.64905 5.569882,-0.79758 3.038687,-0.25319 6.043168,-0.25375 9.083463,-0.28712 2.12852,-0.0234 4.588847,-0.0334 6.519337,-0.9587 1.523738,-0.73028 2.894828,-2.2318 3.905248,-3.48206 0.33672,-0.41666 0.48124,-1.03437 0.74642,-1.50059 0.99221,-1.74439 1.85488,-3.7695 2.24561,-5.7065 1.16705,-5.78508 1.53806,-11.87682 0.0106,-17.66674 -0.7731,-2.9308 -2.32453,-6.07525 -5.15527,-7.74812 -2.429088,-1.43552 -5.927853,-1.5827 -8.695268,-1.88928 -5.637445,-0.62451 -11.28903,-1.07338 -16.940954,-1.6223 -5.630248,-0.54683 -11.420009,-0.95841 -17.01038,0.13119 -1.549315,0.30196 -2.952242,0.70204 -4.402667,1.28664 -0.415459,0.16743 -0.955463,0.14524 -1.329351,0.38975 -0.331978,0.2171 -0.591735,0.59796 -0.912114,0.84904 -0.836845,0.65586 -1.982131,1.40944 -2.560659,2.27151 -2.526453,3.76458 -2.610383,8.92568 -3.041887,13.21065 -0.38111,3.78451 -0.971931,7.52541 -0.557911,11.34189 0.351028,3.23583 1.093132,6.67091 4.087224,8.80687 0.494115,0.35248 1.08983,0.54618 1.605365,0.8623 0.64135,0.39321 1.128522,0.84684 1.862667,1.0973 1.70942,0.58331 3.541353,0.64327 5.334,0.76327 1.953683,0.13086 3.877733,0.2653 5.842,0.18588 1.935057,-0.0782 4.279477,-0.5712 6.180667,-0.15329 m -3.487464,11.26244 c 2.442548,-1.97578 2.156758,-4.93439 3.624116,-7.58838 0.575648,-1.04101 0.951653,-2.21835 1.218607,-3.36137 0.07484,-0.32051 0.352637,-0.85809 0.263991,-1.1725 -0.09584,-0.33996 -0.54627,-0.62372 -0.871644,-0.76655 -1.792816,-0.78679 -4.263051,-0.299 -6.166273,-0.17854 -2.502239,0.1583 -4.955879,0.0155 -7.450667,-0.14243 -2.619756,-0.16572 -4.900507,-0.34552 -7.026063,-1.91356 -2.630568,-1.94045 -3.17318,-5.05229 -3.312093,-7.94299 -0.293099,-6.09948 0.714934,-12.35757 1.793596,-18.37028 0.498602,-2.77939 1.657011,-5.6575 4.395893,-7.22327 3.488267,-1.9942 7.453207,-2.16183 11.430001,-2.31672 7.749116,-0.30182 15.505853,1.18949 23.198667,1.8659 3.071791,0.27017 6.152134,0.33755 9.144003,1.13044 1.24248,0.32926 2.692898,0.75756 3.676558,1.57148 2.0999,1.73744 2.96698,4.17764 3.64524,6.61377 0.46228,1.66012 0.51808,3.37732 0.6444,5.08114 0.36593,4.93262 0.25823,10.51061 -2.28245,15.00891 -1.10498,1.95639 -2.54897,4.571 -4.837088,5.55681 -1.506725,0.64914 -3.47387,0.31402 -5.079997,0.31222 -4.169579,-0.005 -8.720582,0.007 -12.784667,0.89632 -1.380913,0.30212 -2.578269,0.2073 -3.795522,1.0292 -0.568113,0.3835 -0.758698,0.95932 -1.077552,1.50785 -0.536194,0.92258 -1.085342,1.95147 -1.724491,2.81417 -1.632119,2.20326 -3.366347,4.25338 -5.294376,6.21603 -1.110234,1.13013 4.873239,-6.22095 1.642374,-5.39702 m 38.584709,-19.00691 0.0564,0.0261 z"
       id="path393"
       inkscape:label="lines"
       sodipodi:nodetypes="cccsccccscsccccccsccccssccccccccccccccccsccccccsccccccccccc" />
    <path
       id="path395"
       style="display:inline;fill:#fffbff;fill-opacity:1;stroke:none;stroke-width:0.0992278;stroke-opacity:1;-inkscape-stroke:none;stop-color:#000000"
       d="m 65.359375,118.95987 c -4.173266,0.11379 -8.613863,0.34756 -12.214479,2.52018 -2.799473,1.66743 -3.998403,4.78475 -4.488869,7.68997 -0.735838,4.18799 -1.413385,8.39719 -1.681964,12.63557 -0.0656,2.62002 -0.227802,5.26615 0.175983,7.86896 0.414867,2.47657 1.581952,5.0588 4.009587,6.39341 2.391021,1.45961 5.38008,1.40532 8.127747,1.62569 3.085865,0.1924 6.176564,0.0366 9.254378,-0.1795 1.068914,-0.005 2.412385,-0.0255 3.13793,0.80251 -0.0454,1.03384 -0.520887,2.03038 -0.8299,3.02336 -1.276851,3.01673 -0.890709,1.71414 -2.741224,5.28514 -1.251847,2.53431 -2.088486,3.90646 -1.230119,6.32426 0.673868,1.60021 0.878392,2.35157 1.245867,2.75063 0.333409,0.36206 2.307585,2.3096 2.643278,2.32005 1.442115,0.0296 0.683288,-0.51585 -0.747148,-2.39119 -0.97501,-1.27825 -1.352568,-4.33891 -0.5846,-5.09688 2.60593,-2.47795 3.390897,-5.57716 5.338715,-8.5293 0.708004,-1.04792 1.189555,-2.24266 2.053568,-3.19016 1.35257,-0.81161 3.050652,-0.78044 4.57404,-1.13353 5.068656,-0.92352 10.255849,-0.56169 15.383216,-0.70798 2.023457,-0.0498 3.547819,-1.55831 4.656699,-2.9678 2.40062,-3.15304 3.92834,-6.86942 4.28637,-10.71644 0.34436,-3.22292 0.12727,-6.4746 -0.0952,-9.69863 -0.15293,-2.33168 -0.84257,-4.62294 -1.84836,-6.75906 -0.94075,-1.94551 -2.55858,-3.72565 -4.813926,-4.39999 -4.185122,-1.42236 -8.722578,-1.31883 -13.069066,-1.84987 -6.605314,-0.6674 -13.191818,-1.76742 -19.860037,-1.62604 -0.227488,0.002 -0.454977,0.005 -0.682466,0.006 z"
       sodipodi:nodetypes="ccccccccccccscscccccccccccccc" />
  </g>
</svg>
