<?xml version="1.0" encoding="UTF-8" standalone="no"?>
<!-- Created with Inkscape (http://www.inkscape.org/) -->

<svg
   version="1.1"
   id="svg2"
   width="467.51999"
   height="241.92"
   viewBox="0 0 1402.56 725.75999"
   sodipodi:docname="walterLogoWhiteBorder.svg"
   inkscape:version="1.2.2 (b0a8486, 2022-12-01)"
   inkscape:export-filename="/home/marcel/Documents/walterLogo.png"
   inkscape:export-xdpi="96"
   inkscape:export-ydpi="96"
   xmlns:inkscape="http://www.inkscape.org/namespaces/inkscape"
   xmlns:sodipodi="http://sodipodi.sourceforge.net/DTD/sodipodi-0.dtd"
   xmlns:xlink="http://www.w3.org/1999/xlink"
   xmlns="http://www.w3.org/2000/svg"
   xmlns:svg="http://www.w3.org/2000/svg">
  <defs
     id="defs6">
    <linearGradient
       inkscape:collect="always"
       id="linearGradient1763">
      <stop
         style="stop-color:#000000;stop-opacity:1;"
         offset="0"
         id="stop1759" />
      <stop
         style="stop-color:#000000;stop-opacity:0;"
         offset="1"
         id="stop1761" />
    </linearGradient>
    <inkscape:path-effect
       effect="fill_between_many"
       method="originald"
       linkedpaths="#path5320,0,1"
       id="path-effect5516"
       is_visible="true"
       lpeversion="0"
       join="true"
       close="true"
       autoreverse="true"
       applied="false" />
    <linearGradient
       inkscape:collect="always"
       xlink:href="#linearGradient1763"
       id="linearGradient1765"
       x1="625.95935"
       y1="601.36058"
       x2="694.3069"
       y2="601.36058"
       gradientUnits="userSpaceOnUse" />
  </defs>
  <sodipodi:namedview
     id="namedview4"
     pagecolor="#ffffff"
     bordercolor="#666666"
     borderopacity="1.0"
     inkscape:pageshadow="2"
     inkscape:pageopacity="0.0"
     inkscape:pagecheckerboard="0"
     showgrid="false"
     inkscape:zoom="0.89308689"
     inkscape:cx="407.01527"
     inkscape:cy="326.39601"
     inkscape:window-width="1280"
     inkscape:window-height="755"
     inkscape:window-x="0"
     inkscape:window-y="23"
     inkscape:window-maximized="1"
     inkscape:current-layer="g4820"
     width="467.51999px"
     units="px"
     scale-x="3"
     inkscape:showpageshadow="2"
     inkscape:deskcolor="#d1d1d1" />
  <g
     inkscape:groupmode="layer"
     inkscape:label="Image"
     id="g8">
    <path
       style="fill:#000000;fill-opacity:1;stroke-width:2.84477"
       d="m 481.06011,698.98135 c -11.73589,-4.00742 -16.87982,-14.11029 -17.06408,-33.51461 -0.11764,-12.38553 -0.7061,-13.51265 -7.05503,-13.51265 -3.80974,0 -10.21047,-1.24844 -14.22384,-2.77436 -9.04216,-3.43782 -10.03409,-16.6251 -1.81031,-24.06749 4.73598,-4.286 6.80569,-4.4886 15.12463,-1.4804 7.49724,2.71103 13.88425,2.74555 28.7572,0.15557 10.51569,-1.83123 20.18619,-2.67023 21.48995,-1.86445 1.30379,0.80578 3.14996,5.36236 4.10266,10.12569 0.95264,4.76336 3.73349,9.42866 6.17967,10.36731 7.434,2.85271 8.37992,-1.47773 1.84273,-8.43622 -10.70866,-11.3989 -6.90168,-19.00768 9.51027,-19.00768 4.0364,0 8.90925,-3.09994 12.29737,-7.82311 3.08649,-4.30271 9.44072,-10.05676 14.12045,-12.78682 8.09399,-4.72173 8.78998,-4.72173 14.27906,0 3.17366,2.73006 8.68054,12.00451 12.23751,20.60993 3.55694,8.60543 7.17465,16.28631 8.03938,17.06862 3.65161,3.30366 8.68413,14.53383 8.68413,19.37892 0,10.48075 -21.74142,24.87857 -33.21816,21.99809 -4.39964,-1.10421 -6.41928,-0.70064 -5.32819,1.06478 3.83122,6.19907 -5.27874,14.45358 -15.95148,14.45358 -5.75177,0 -10.88444,1.23635 -11.40599,2.74743 -0.52154,1.51105 -5.36345,3.11123 -10.7598,3.55596 -8.7095,0.71774 -10.10821,-0.15024 -12.45262,-7.72577 -8.74284,-28.25164 -14.41421,-41.24915 -17.99874,-41.24915 -7.21116,0 -7.13272,7.52287 0.26848,25.73722 11.28309,27.76785 9.25146,33.43895 -9.66522,26.97958 z m 11.2553,-4.07324 c 0,-1.40928 -3.18786,-9.4102 -7.08413,-17.7798 -8.87674,-19.06822 -9.46783,-33.63234 -1.45018,-35.72902 3.12925,-0.81832 5.66995,-2.29867 5.64598,-3.28962 -0.13424,-5.55225 -6.33589,-7.5304 -24.67162,-7.86949 -16.38856,-0.30309 -20.79617,0.52915 -22.20179,4.19209 -2.38181,6.20699 5.9811,11.83228 17.59063,11.83228 9.36045,0 9.41296,0.077 9.41296,13.79935 0,17.96344 4.88755,31.55228 12.44642,34.60481 8.05503,3.25296 10.31173,3.30532 10.31173,0.23914 z m 32.54614,-10.95037 c -1.20989,-2.73809 -2.30693,-8.81878 -2.43794,-13.51265 -0.18817,-6.74845 1.08789,-8.72278 6.09868,-9.43498 5.42681,-0.77134 6.60247,0.76062 8.18671,10.66789 1.37432,8.59455 3.17589,11.56855 7.00794,11.56855 8.19534,0 8.40111,-3.39272 1.38914,-22.90733 -11.82799,-32.9178 -15.49709,-39.67759 -21.53638,-39.67759 -7.23348,0 -7.17792,3.42623 0.16328,10.07004 7.5453,6.82836 6.21739,16.66107 -2.41539,17.88482 -8.47178,1.20097 -13.95353,-3.49906 -16.24402,-13.9276 -1.00719,-4.58574 -3.64978,-8.33772 -5.8724,-8.33772 -5.59646,0 -5.18764,2.62285 4.09004,26.24006 4.47215,11.38426 8.97705,24.21903 10.01092,28.52174 1.30619,5.43623 3.69194,7.82311 7.81941,7.82311 4.59836,0 5.44293,-1.12424 3.73989,-4.97834 z m 5.23061,-12.20308 c -0.83452,-3.19133 -2.15299,-5.16675 -2.92987,-4.38987 -1.53902,1.53899 1.17942,10.19222 3.2019,10.19222 0.68494,0 0.56253,-2.61108 -0.27203,-5.80235 z m 50.70158,-9.34498 c 7.57443,-5.18198 9.53679,-8.35864 9.06823,-14.6796 -0.95451,-12.87616 -5.24596,-14.6003 -13.44257,-5.4007 -7.12149,7.99294 -7.41682,8.06136 -11.56879,2.68027 -6.08336,-7.88424 -5.36816,-10.20039 4.27356,-13.83974 4.93072,-1.86116 8.5343,-5.28949 8.5343,-8.1193 0,-6.97442 -5.95347,-9.7444 -9.05027,-4.21076 -1.43631,2.56661 -5.20208,4.66655 -8.36827,4.66655 -7.75419,0 -5.98504,-9.0325 2.50013,-12.76483 7.36487,-3.23957 8.16757,-7.81654 2.23442,-12.7406 -3.40599,-2.82672 -6.2037,-1.23217 -15.61076,8.8972 -6.30362,6.78758 -11.47704,14.09387 -11.49654,16.2361 -0.0403,4.42421 18.09513,35.16496 24.55854,41.62833 5.61083,5.61089 6.98467,5.43487 18.36802,-2.35292 z m -7.40242,-24.67944 c 0.96699,-1.56462 0.47801,-2.84476 -1.08661,-2.84476 -1.56462,0 -3.63594,1.28014 -4.60293,2.84476 -0.96698,1.56463 -0.47801,2.84477 1.08662,2.84477 1.56462,0 3.63594,-1.28014 4.60292,-2.84477 z m 66.70548,0.7112 c -1.5678,-4.30272 -4.06073,-11.02348 -5.53987,-14.93504 -4.92601,-13.02685 -11.91667,-48.55443 -10.35481,-52.62461 3.77217,-9.83013 34.41148,-19.25728 43.59979,-13.41483 4.91778,3.12702 9.2837,16.17595 7.58528,22.67082 -1.03938,3.97453 0.23321,6.04727 4.37837,7.13124 4.90038,1.28148 6.14674,-0.14757 7.72147,-8.85375 3.89185,-21.51659 10.68534,-28.96781 26.24184,-28.78239 14.99237,0.17869 23.23666,12.13246 23.23666,33.69184 0,22.62208 4.80897,19.48569 6.32419,-4.12456 0.75629,-11.78445 2.65796,-22.7092 4.22593,-24.27717 2.92354,-2.92353 33.97422,2.81964 49.90122,9.22974 8.8779,3.57309 10.83057,14.71634 3.31579,18.92186 -4.04275,2.26242 -3.93648,3.46113 1.03084,11.62924 5.5382,9.10681 5.5382,9.10681 9.05502,-8.78181 1.93423,-9.83875 4.99076,-18.82911 6.79224,-19.97863 4.85981,-3.10098 27.01576,-2.61292 33.26732,0.73282 8.18016,4.3779 12.00999,13.12621 8.56471,19.56384 -2.18994,4.0919 -1.86869,5.79814 1.32228,7.0226 2.96022,1.13596 4.21506,-0.30376 4.21506,-4.83616 0,-3.54953 1.39169,-7.8454 3.09262,-9.54634 2.22704,-2.22703 2.22704,-3.62767 0,-5.004 -7.74802,-4.78858 0.15913,-18.6442 10.63985,-18.6442 4.46783,0 6.37729,8.54139 3.22585,14.42991 -2.43518,4.55021 -1.9831,5.48347 2.65639,5.48347 4.95289,0 5.28902,-1.05307 2.94484,-9.22671 -1.45539,-5.07471 -2.64617,-9.6355 -2.64617,-10.13508 0,-0.49965 8.00092,-4.7516 17.77981,-9.44887 9.77889,-4.69725 21.39308,-10.49199 25.80928,-12.87718 7.32205,-3.95464 8.51259,-3.89955 13.51266,0.62544 9.21788,8.3421 6.91006,20.14345 -5.18471,26.51277 -8.47943,4.4654 -8.0755,8.53804 2.01795,20.34662 10.65457,12.46506 10.73835,17.93143 0.38765,25.30176 -12.68781,9.03451 -16.03753,7.55007 -21.39444,-9.48097 -4.66121,-14.81923 -5.23001,-15.40211 -16.03566,-16.4326 -13.21813,-1.26053 -13.92618,1.33956 -5.45099,20.01719 3.09487,6.82054 5.62707,14.66469 5.62707,17.4315 0,6.15288 -19.16248,18.8444 -23.22938,16.3309 -4.52164,-2.79451 8.43264,-13.44847 13.57705,-13.44847 3.23871,0 3.97349,-1.45139 2.52029,-4.97834 -1.12816,-2.73809 -4.36741,-11.37908 -7.19831,-19.20219 -2.8309,-7.82312 -6.5253,-14.09583 -8.20982,-13.93937 -1.68452,0.15646 -4.49678,0.4765 -6.24946,0.71119 -5.94411,0.79594 -1.5354,33.62132 5.52502,41.13675 5.78531,6.15821 5.7814,10.49581 -0.009,10.49581 -1.32685,0 -4.94913,-4.16048 -8.04954,-9.2455 -3.10038,-5.08503 -5.64189,-7.67821 -5.64773,-5.76259 -0.0207,6.87454 -16.95639,12.73034 -32.34505,11.18406 -19.09101,-1.91832 -25.36911,-3.11582 -29.40178,-5.60813 -1.82516,-1.12798 -8.40422,-0.0178 -14.62016,2.47115 -11.03083,4.41366 -11.58938,4.34044 -23.3055,-3.05563 -8.14552,-5.14201 -14.17409,-7.03598 -18.75589,-5.89244 -3.71364,0.92686 -9.9598,2.47593 -13.88037,3.44238 -9.2986,2.29191 -15.63082,-3.17118 -15.63082,-13.48453 0,-4.50232 -1.15832,-8.186 -2.57407,-8.186 -1.41574,0 -1.90232,5.00833 -1.08128,11.12962 1.39204,10.37849 0.84579,11.45761 -8.09381,15.98926 -5.27263,2.67281 -11.7213,6.72839 -14.33034,9.01238 -8.40378,7.35669 -17.69132,3.581 -20.64974,-8.39476 -1.44941,-5.86734 -4.32973,-10.66789 -6.40073,-10.66789 -4.17822,0 -4.53266,4.20884 -1.0781,12.80146 3.47533,8.64413 -1.62297,15.64623 -11.39209,15.64623 -6.69024,0 -9.1128,-1.66899 -11.35519,-7.82311 z m 15.79282,-13.68601 c 0,-11.13084 1.02581,-14.12555 5.11501,-14.93287 6.99576,-1.38111 12.65125,3.90815 14.84155,13.88043 1.22526,5.57865 3.58366,8.33772 7.12688,8.33772 7.54747,0 9.77567,-5.22801 4.64465,-10.89772 -2.4139,-2.66727 -5.15522,-9.19966 -6.09189,-14.51635 -2.39417,-13.5897 -3.87606,-15.12072 -13.29687,-13.73807 -10.75337,1.57825 -13.10606,-2.47943 -5.52996,-9.53762 7.14111,-6.65297 7.5846,-11.89626 1.51916,-17.96167 -3.00031,-3.00031 -6.98067,-3.87425 -12.09026,-2.65446 -18.55329,4.42918 -23.95554,10.73663 -20.52157,23.96015 1.39773,5.38236 3.92895,15.1089 5.6249,21.61444 8.64102,33.146 18.6584,41.9756 18.6584,16.44602 z m -14.61749,-39.65341 c -2.49655,-6.50596 1.00091,-12.80146 7.11192,-12.80146 7.57784,0 9.5712,7.07038 3.53377,12.53417 -6.23846,5.64574 -8.55944,5.70403 -10.64569,0.26729 z m 215.78443,33.36843 c 4.23545,-4.23545 5.32058,-7.83734 3.97557,-13.19623 -1.59719,-6.36378 -3.3742,-7.37074 -13.00694,-7.37074 -11.95499,0 -18.04748,-4.68599 -9.53949,-7.33725 10.05887,-3.13458 13.69297,-6.14879 13.69297,-11.35733 0,-6.28762 -14.57692,-11.35225 -25.08375,-8.71521 -6.06211,1.52147 -7.42496,4.27091 -10.40009,20.98109 -1.88306,10.57661 -4.03951,21.47877 -4.79213,24.22709 -3.17589,11.59738 34.04302,13.87942 45.15386,2.76858 z m -32.00326,-2.19652 c -5.08838,-6.13113 0.48879,-11.06935 9.84847,-8.72022 8.13547,2.04186 9.78734,8.70772 2.82038,11.38118 -6.70791,2.57407 -8.66537,2.16294 -12.66885,-2.66096 z m 7.21199,-4.14661 c 0.96698,-1.56462 0.40248,-2.84476 -1.25448,-2.84476 -1.65696,0 -3.01267,1.28014 -3.01267,2.84476 0,1.56463 0.56451,2.84477 1.25448,2.84477 0.68998,0 2.04566,-1.28014 3.01267,-2.84477 z m -6.57666,-30.54861 c 1.14484,-5.9447 10.17209,-8.24298 14.67815,-3.73693 2.41017,2.41018 2.15295,3.91094 -1.01336,5.91277 -7.15104,4.52102 -14.7223,3.31549 -13.66479,-2.17584 z m -119.54232,28.14751 c -1.16558,-11.57652 6.71502,-22.17082 12.76004,-17.1539 2.10945,1.75069 3.83534,6.12195 3.83534,9.71397 0,9.68928 2.91085,15.53057 7.73928,15.53057 3.44155,0 3.94196,-2.5218 2.54041,-12.80146 -0.95999,-7.0408 -2.55647,-18.7331 -3.54775,-25.9829 -2.05662,-15.04074 -9.22177,-23.80055 -19.46782,-23.80055 -10.04805,0 -16.47296,11.30001 -16.63778,29.2623 -0.21188,23.09238 3.19429,36.69636 8.91127,35.59031 3.61424,-0.69922 4.5793,-3.28423 3.86701,-10.35834 z m -0.32468,-30.13475 c -4.41446,-5.31907 -1.98355,-12.98045 4.1186,-12.98045 6.34096,0 8.65023,8.21522 3.70057,13.16482 -3.68925,3.68928 -4.6226,3.66729 -7.81917,-0.18432 z m 84.56152,36.64172 c 3.47738,-2.43566 6.32253,-7.40097 6.32253,-11.03394 0,-6.34114 -3.00879,-8.39104 -20.62458,-14.05174 -7.78257,-2.50088 -5.83844,-7.46787 2.92298,-7.46787 9.12032,0 22.16433,-8.0681 18.65252,-11.53717 -1.30533,-1.28939 -11.90867,-4.32574 -23.56298,-6.74744 -16.68543,-3.46715 -21.66496,-3.6547 -23.42575,-0.88235 -1.22989,1.9364 -2.25576,12.69635 -2.2797,23.91102 -0.0436,20.39027 -0.0436,20.39027 10.62432,25.94287 13.38138,6.96494 23.25317,7.55233 31.37066,1.86662 z m -29.39028,-7.19849 c -3.1022,-5.0195 3.42554,-9.15295 11.32398,-7.17053 10.32883,2.59235 9.54687,10.26315 -1.04619,10.26315 -4.60153,0 -9.22653,-1.39168 -10.27779,-3.09262 z m 0.1532,-31.0446 c -2.62658,-4.24991 1.028,-8.53431 7.27982,-8.53431 3.6251,0 5.52164,1.95418 5.52164,5.68954 0,6.03393 -9.52263,8.15005 -12.80146,2.84477 z m 177.54789,21.63716 c 2.51309,-3.02805 2.40517,-4.87783 -0.45649,-7.82311 -7.36449,-7.5798 -16.36196,-21.87636 -16.36196,-25.99835 0,-2.30672 3.79789,-5.7672 8.43972,-7.68991 9.67364,-4.00695 13.55108,-12.5993 8.45604,-18.73846 -3.0762,-3.70653 -4.03607,-3.70611 -8.13532,0.003 -2.55618,2.3133 -11.97372,7.56003 -20.92787,11.65938 -11.04096,5.05471 -16.28026,9.10512 -16.28026,12.58602 0,7.21443 6.07275,11.42095 15.45602,10.70626 6.98429,-0.532 8.50935,0.84185 11.95472,10.76929 2.17201,6.25849 4.53385,12.97926 5.24851,14.93504 1.73161,4.73873 8.51706,4.51817 12.60689,-0.4098 z m -60.14194,-35.32761 c 0.61936,-1.85799 -0.90081,-3.37817 -3.37816,-3.37817 -2.47729,0 -4.50419,2.0269 -4.50419,4.50422 0,5.02366 6.12411,4.14877 7.88235,-1.12605 z m -767.84308,45.6941 c -2.37674,-5.97594 -2.0902,-11.85329 1.21355,-24.89173 2.37871,-9.38774 3.72299,-18.04813 2.98727,-19.24528 -0.73572,-1.19717 -5.73013,-4.01198 -11.09871,-6.25511 -24.98422,-10.43909 -39.214213,-29.9726 -21.834764,-29.9726 4.313043,0 12.064623,1.21107 17.225739,2.69127 9.383845,2.69124 9.383845,2.69124 7.436765,-17.06862 -1.17144,-11.8882 -0.87577,-19.75988 0.74219,-19.75988 1.4791,0 6.3727,7.70663 10.87467,17.12583 11.46931,23.99658 15.96624,27.59174 28.73642,22.97397 12.84768,-4.64574 14.65507,-2.61312 8.72808,9.81588 -2.62735,5.50963 -4.777,11.09738 -4.777,12.41727 0,1.31988 7.70557,11.59993 17.1235,22.8445 9.41792,11.24457 16.40082,21.61402 15.51755,23.04316 -0.88327,1.4292 -6.32964,0.067 -12.10303,-3.02761 -5.77339,-3.09436 -15.20901,-5.62609 -20.96804,-5.62609 -8.81755,0 -11.89407,1.79683 -19.48336,11.37908 -10.5864,13.36644 -16.03951,14.32065 -20.32083,3.55596 z m 41.01467,-20.62458 c 7.39386,0 13.44338,-0.80495 13.44338,-1.78879 0,-0.98382 -4.6031,-6.88384 -10.22911,-13.11119 -10.33632,-11.44107 -10.56617,-12.80691 -5.14314,-30.5623 2.13426,-6.9877 2.08368,-7.01072 -5.08445,-2.31398 -6.4874,4.25071 -7.87468,4.29948 -13.34319,0.46918 -3.35668,-2.35108 -8.67221,-9.31072 -11.81231,-15.46582 -3.1401,-6.15511 -6.42504,-11.19109 -7.29987,-11.19109 -2.37254,0 1.91254,17.93185 5.28488,22.11571 4.80684,5.96352 0.20811,7.28317 -12.72198,3.65061 -21.590064,-6.06543 -24.993892,-6.56828 -24.993892,-3.69219 0,1.55322 8.785781,7.44082 19.523963,13.0836 24.996839,13.13548 28.090849,16.68881 22.268619,25.57468 -5.44293,8.30696 -8.91241,25.7659 -6.41405,32.27651 1.55154,4.04325 3.65588,2.8469 12.47211,-7.0905 9.63477,-10.86008 11.8363,-11.95443 24.04904,-11.95443 z m 263.71278,2.66128 c -17.50001,-1.97652 -26.76815,-5.98035 -30.88907,-13.34407 -2.5709,-4.59391 -3.29302,-4.52647 -10.78973,1.00812 -12.41265,9.1638 -28.56566,13.39928 -44.71461,11.72451 -19.44684,-2.0168 -27.31716,-6.05225 -36.21855,-18.57086 -7.47297,-10.50976 -21.32918,-42.47332 -25.46904,-58.7521 -1.20954,-4.75618 -5.5326,-17.60858 -9.60681,-28.56094 -6.01477,-16.16902 -7.10379,-17.77373 -5.79163,-8.53431 5.47527,38.55373 5.37721,40.67717 -2.42267,52.46362 -7.92747,11.97923 -20.61767,16.95008 -31.73906,12.43244 -19.67128,-7.99066 -35.56229,-23.15865 -55.63702,-53.10559 -30.55507,-45.58126 -41.79735,-78.65489 -50.90651,-149.76176 -11.883533,-92.76381 -10.04514,-139.63655 7.69863,-196.28905 15.17887,-48.463248 33.97092,-64.751598 68.07562,-59.005784 19.29412,3.250593 38.05939,19.111054 43.47931,36.748854 5.16573,16.81061 4.48246,55.72093 -1.21805,69.36418 -2.4962,5.97424 -11.31094,17.98142 -19.58831,26.68261 -28.37978,29.8329 -38.42996,62.43775 -33.15356,107.55701 3.45824,29.57194 8.07248,49.07941 11.60911,49.07941 3.0698,0 5.4907,-13.44077 5.1239,-28.44769 -0.33045,-13.51962 4.02137,-33.94052 9.59997,-45.04781 4.98521,-9.92581 16.84344,-14.69234 36.55187,-14.69234 16.8864,0 18.11808,0.49169 28.45638,11.35952 12.65067,13.29858 15.65555,25.09382 12.20664,47.91548 -3.09001,20.44675 -3.26911,59.03135 -0.28783,62.00615 3.6729,3.66489 11.47163,-2.9932 14.02675,-11.9752 4.12411,-14.49759 2.55241,-50.04562 -3.51281,-79.45271 -15.3045,-74.20326 -15.94472,-119.65845 -2.26039,-160.48796 11.23951,-33.53514 19.67576,-43.03899 34.13146,-38.45092 12.80845,4.06524 63.54784,46.65217 66.44014,55.76499 1.61624,5.09233 2.25018,5.21708 6.58347,1.29549 7.57927,-6.85913 25.57987,-8.14995 49.25501,-3.5321 27.2357,5.31234 36.84317,10.23163 53.61818,27.45391 15.90335,16.32735 24.17484,32.9726 29.89292,60.15537 7.86021,37.3661 9.25705,39.31174 59.8235,83.32722 11.08201,9.64628 15.70556,12.35441 14.57061,8.5343 -0.91435,-3.07768 -3.08622,-13.71181 -4.82636,-23.6314 -6.47013,-36.8823 -29.9619,-102.67294 -43.33318,-121.35805 -4.47864,-6.25849 -14.25655,-17.7798 -21.7287,-25.60292 -7.47217,-7.82311 -14.4559,-15.7166 -15.51945,-17.54108 -3.43417,-5.89132 2.95186,-16.47567 12.74655,-21.12642 36.70963,-17.43059 43.86485,-19.85883 63.37712,-21.50823 33.01375,-2.79068 38.47763,2.30732 51.17381,47.7469 2.46164,8.81037 6.72453,18.75107 9.47308,22.09043 4.99728,6.07156 4.99728,6.07156 12.05325,-4.34969 6.0217,-8.89374 7.08223,-13.80418 7.23517,-33.50066 0.1532,-19.69623 1.17424,-24.42526 6.96719,-32.26063 9.5077,-12.85985 24.62918,-22.648407 47.40111,-30.684058 34.86374,-12.302547 58.16797,-8.070684 110.05768,19.985578 39.35314,21.27787 86.96515,34.80404 113.45445,32.23146 9.20147,-0.89362 9.38146,-0.69105 9.78328,11.01075 0.3201,9.32178 7.44518,28.43059 17.13698,45.95967 0.29968,0.54197 6.30605,-2.97843 13.34756,-7.82312 7.04152,-4.84468 15.49255,-8.80851 18.78015,-8.80851 9.7241,0 9.7291,-7.14819 0.021,-28.21339 -9.6541,-20.94488 -9.6837,-30.36164 -0.086,-27.31541 8.101,2.57116 25.1616,-7.41584 40.9012,-23.94293 7.5351,-7.912012 19.1132,-17.55774 25.7291,-21.43495 11.207,-6.567748 13.4924,-6.885354 33.4444,-4.647831 23.556,2.6417 29.701,5.121367 46.689,18.840176 20.0534,16.194395 34.9177,53.092095 31.9599,79.334225 -0.7467,6.6243 -4.6397,18.57868 -8.6511,26.56529 -7.2936,14.52111 -7.2936,14.52111 2.0626,13.00282 13.527,-2.19513 28.8106,6.16751 40.9229,22.39145 15.665,20.98257 32.163,23.55892 68.0388,10.62495 14.935,-5.3844 14.935,-5.3844 14.9283,2.39878 -0.01,8.73846 -19.182,54.93171 -29.5376,71.15895 -9.3755,14.6916 -19.0316,23.01617 -28.9102,24.9237 -7.1268,1.37619 -12.2718,-1.25294 -34.0005,-17.37442 -24.7006,-18.32651 -48.408,-32.0876 -50.8243,-29.50124 -0.6411,0.68628 0.291,10.80515 2.0712,22.48648 3.2364,21.23869 3.2364,21.23869 18.8826,29.0397 23.0827,11.50872 26.5677,16.98193 24.8086,38.96254 -0.9235,11.54094 -3.4232,20.76442 -6.8833,25.39884 -6.4595,8.6518 -36.5912,25.85089 -45.6236,26.04176 -4.536,0.0957 -7.5704,3.02526 -10.5699,10.20395 -2.314,5.53823 -8.7462,15.60865 -14.2938,22.37876 -17.565,21.43577 -64.2742,41.5191 -96.547,41.51187 -21.3513,-0.006 -63.27037,-7.15418 -69.55628,-11.86295 -11.3668,-8.51484 -23.14006,-20.85328 -23.14006,-24.25083 0,-4.80576 -2.7161,-4.69976 -8.31031,0.3244 -2.47015,2.21838 -16.01246,10.05572 -30.09407,17.41632 -25.24341,13.19493 -25.88662,13.35901 -45.80783,11.68451 -23.96155,-2.01413 -41.31707,-4.32897 -41.31707,-10.08364 0,-3.13112 13.47259,-3.27608 18.13926,-1.86374 3.5204,1.06545 14.77522,2.64783 25.01073,3.51646 16.83517,1.42864 20.27461,0.73899 36.06358,-7.23126 9.59944,-4.84579 18.26386,-10.12165 19.25429,-11.72415 0.99039,-1.60249 -2.76583,-10.31196 -8.34709,-19.35432 -12.34876,-20.00658 -14.53754,-27.31456 -20.07773,-67.03597 -4.49858,-32.25364 -9.52313,-46.7913 -24.65238,-71.32761 -15.47038,-25.08951 -19.2744,-32.66271 -25.11513,-50.00066 -9.29584,-27.59431 -6.36718,-50.82221 8.02409,-63.64108 7.49392,-6.6751 26.57686,-6.84277 33.75273,-0.29656 2.83754,2.58855 12.19997,9.11308 20.8054,14.49895 13.97736,8.74801 17.46679,9.70659 32.71484,8.98701 16.92421,-0.79869 17.07608,-0.88244 17.9488,-9.90031 0.5454,-5.63556 -2.59102,-16.99679 -8.246,-29.87008 -5.01945,-11.42639 -9.72704,-26.07904 -10.4614,-32.56145 -1.33518,-11.78619 -1.33518,-11.78619 -18.77927,-15.08496 -27.47223,-5.19513 -43.47957,-11.07041 -78.85614,-28.94307 -18.13039,-9.15968 -38.6127,-18.66552 -45.5163,-21.124091 -25.26294,-8.996869 -56.18116,-4.212101 -83.10183,12.860471 -17.71909,11.23713 -23.13897,22.22369 -23.3955,47.42467 -0.17661,17.34941 -1.38543,22.10971 -8.24817,32.48 -21.34661,32.2569 5.33172,44.26535 38.01933,17.11325 16.24378,-13.49297 23.43867,-17.29385 32.73647,-17.29385 11.44406,0 25.61679,15.79775 34.36357,38.30358 7.29025,18.75813 7.60682,21.55906 5.94835,52.62822 -6.11024,114.46671 -4.86583,104.62606 8.00236,104.62606 11.58233,0 9.80012,0.73119 11.77427,13.89578 1.08578,7.24053 1.23166,21.11556 0.32421,30.83344 -1.08735,11.64447 -0.16713,23.40264 2.6988,34.4853 2.3918,9.24905 5.04128,21.11903 5.88775,26.37776 1.09127,6.77982 2.25261,8.43501 3.9921,5.68954 3.54437,-5.59415 3.093,-31.30707 -0.74266,-42.3101 -2.51712,-7.22068 -2.43868,-14.61551 0.33627,-31.70311 3.26046,-20.07714 3.1342,-23.02592 -1.27401,-29.75371 -2.69124,-4.10734 -10.53684,-3.40338 -13.12718,-1.75608 -6.90636,4.39206 -15.31473,-3.2588 4.54635,-13.56193 3.47219,-1.80122 9.66516,2.55324 12.78576,5.67383 5.04187,5.04188 5.68212,9.55712 5.74838,40.53796 0.0409,19.17528 0.36811,44.25186 0.7269,55.72576 0.63922,20.44245 0.45925,21.0341 -8.95669,29.44359 -9.30773,8.31286 -10.28894,8.53692 -31.29246,7.14538 -11.92587,-0.79007 -31.92459,-2.95032 -44.44157,-4.80052 -31.02971,-4.58665 -58.51865,-2.19479 -80.43813,6.99911 -9.81925,4.11858 -24.47568,8.27265 -32.56984,9.23128 -11.67588,1.38285 -17.09772,3.92596 -26.24071,12.30819 -6.33824,5.81082 -23.60616,17.25563 -38.37312,25.43285 -25.1285,13.91495 -27.08816,14.5406 -30.58127,9.76355 -5.31474,-7.26836 -4.63024,-20.42328 2.21599,-42.58883 4.67947,-15.15038 5.72874,-24.77115 4.91931,-45.10479 -1.29742,-32.59284 -6.70876,-44.90065 -22.52333,-51.22842 -16.90934,-6.76578 -26.61925,-5.88962 -30.55907,2.75744 -4.51889,9.91784 -4.19479,15.20538 2.38812,38.96056 7.07894,25.54526 7.16994,41.03298 0.38487,65.50208 -5.78958,20.87889 -16.54674,39.31986 -26.88976,46.09687 -9.38714,6.15069 -29.22333,9.07538 -47.52936,7.00782 z m -60.45602,-15.8936 c 17.9827,-22.34412 15.59902,-63.32619 -7.66316,-131.7512 -13.50693,-39.73028 -18.53734,-74.45744 -16.08554,-111.04568 2.12428,-31.70026 5.79498,-46.55811 19.86271,-80.39803 8.56818,-20.61079 10.36166,-28.38186 10.36166,-44.89648 0,-23.3981 -4.57875,-36.02758 -19.54848,-53.92033 -5.89318,-7.04388 -13.14263,-16.96753 -16.10993,-22.05255 -5.7104,-9.78588 -12.70486,-11.83118 -18.12515,-5.30011 -1.80091,2.16997 -7.3753,14.65139 -12.38753,27.7365 -8.80352,22.98281 -9.11155,25.24085 -9.0666,66.46263 0.0389,35.68239 1.38175,49.19475 8.19855,82.4983 10.09036,49.29641 11.07587,82.92294 2.9176,99.55221 -7.08137,14.43427 -17.53783,18.72892 -28.3506,11.64415 -12.07472,-7.91166 -16.30239,-22.1241 -17.42183,-58.56814 -0.55268,-17.99316 -1.79376,-36.55528 -2.75796,-41.24914 -2.42149,-11.78825 -11.93041,-21.33577 -21.2495,-21.33577 -17.17679,0 -28.13406,23.3474 -28.2072,60.10303 -0.0472,23.72508 -4.3961,32.01382 -13.7943,26.29106 -11.06141,-6.7355 -29.81785,-83.26265 -29.19302,-119.10893 0.44813,-25.70927 6.65865,-44.0356 21.61185,-63.77343 26.46763,-34.93656 33.12866,-62.32705 20.75673,-85.35261 -3.71681,-6.91742 -10.18319,-15.134514 -14.36972,-18.26021 -6.86363,-5.124433 -8.78704,-5.330987 -19.56693,-2.101256 -21.9894,6.588186 -31.96538,22.794616 -45.66678,74.187746 -10.66172,39.99144 -10.58576,107.69051 0.21546,192.0219 6.16465,48.13106 18.59293,81.96052 44.38598,120.81742 28.33359,42.68419 35.25323,48.07488 49.18466,38.31696 12.46858,-8.73335 15.24201,-18.92441 13.33429,-48.9972 -1.69894,-26.78166 -1.52631,-27.90357 5.56602,-36.17319 7.31934,-8.53431 7.31934,-8.53431 14.49193,0 3.94493,4.69387 7.86527,11.73467 8.71186,15.64623 3.17561,14.67231 12.06599,47.29541 15.50501,56.89538 15.9506,44.52573 21.87906,57.90165 29.52296,66.61032 11.05,12.58923 19.63477,16.12726 35.71174,14.71768 9.77599,-0.85714 14.20642,-2.98123 19.22522,-9.21726 z m 102.37185,4.79898 c 10.16036,-6.19508 17.82381,-19.40915 24.69268,-42.57763 6.26724,-21.13909 5.74608,-41.871 -1.6878,-67.13865 -5.21289,-17.71852 -5.75862,-23.2188 -3.24002,-32.65484 3.51113,-13.15447 0.99914,-14.4703 -7.35334,-3.85178 -7.07367,8.99267 -7.42014,19.74071 -1.36682,42.40137 7.39643,27.68884 6.00593,43.94219 -5.90506,69.02336 -5.70581,12.01483 -13.55624,26.01699 -17.44543,31.11594 -6.25852,8.20535 -6.4824,9.26959 -1.94804,9.26017 2.81771,-0.006 9.23195,-2.51591 14.25383,-5.57794 z m -23.29963,-3.4972 c 9.92045,-7.80341 28.93654,-48.3534 31.40624,-66.97069 1.33076,-10.03169 0.20092,-19.83219 -4.04369,-35.07354 -6.02501,-21.63489 -5.52027,-33.27962 2.05609,-47.43617 4.71811,-8.81594 21.66309,-12.79506 39.82208,-9.35126 31.77906,6.02676 42.07191,18.92592 44.95716,56.34095 1.41065,18.29287 0.4207,26.91889 -5.89679,51.38277 -4.17565,16.16964 -6.85195,31.73121 -5.94738,34.58128 1.49671,4.71571 3.52888,4.21275 22.5856,-5.5897 42.86525,-22.04924 50.64317,-32.21399 51.64399,-67.49235 1.29817,-45.75965 -19.11548,-97.9873 -51.48865,-131.7318 -35.38913,-36.88829 -41.49739,-44.38316 -49.84652,-61.16252 -4.6712,-9.38774 -10.48664,-26.66971 -12.92322,-38.40438 -2.43657,-11.73468 -6.70939,-26.45635 -9.49516,-32.71485 -5.48237,-12.31669 -28.78595,-35.55961 -35.65242,-35.55961 -2.32684,0 -5.51034,-2.39118 -7.07446,-5.31373 -5.61419,-10.4902 -38.66406,-10.61291 -45.18717,-0.16778 -1.83171,2.93306 -4.14184,15.9275 -5.1336,28.87652 -1.65707,21.63564 -0.93978,26.54076 8.85088,60.52566 22.70081,78.79812 26.41949,103.33461 19.913,131.39002 -4.20152,18.11661 -19.81106,51.03109 -29.08827,61.33594 -4.07317,4.52437 -4.05285,6.27977 0.2261,19.52887 6.82745,21.13992 6.3249,57.87839 -0.98793,72.22207 -7.36997,14.45575 -7.32374,14.73344 3.55596,21.36694 12.32763,7.5163 27.75469,7.27819 37.74813,-0.58264 z m 28.04613,-201.95299 c -1.28362,-2.05772 -7.17134,-18.38207 -13.08387,-36.27632 -16.51062,-49.96938 -14.52112,-79.83334 5.31833,-79.83334 3.89638,0 10.92809,7.5826 22.53415,24.29959 32.09463,46.22798 38.75835,57.81013 39.04324,67.86085 0.42713,15.06744 -4.51817,18.85892 -24.02291,18.41801 -12.1998,-0.27559 -18.2476,0.93978 -22.12241,4.44649 -4.27483,3.86862 -5.79565,4.08382 -7.66653,1.08472 z m 11.62002,-16.19865 c -10.69598,-26.58768 -15.66721,-48.9996 -15.03535,-67.78409 0.74504,-22.14985 -0.94434,-26.49543 -8.46475,-21.77382 -3.49593,2.19487 -5.07389,7.76643 -5.67635,20.04235 -0.67196,13.69154 1.11692,22.39312 9.18635,44.68526 5.51141,15.22556 10.72845,28.82791 11.59341,30.22742 2.76176,4.46863 10.39241,-0.43614 8.39669,-5.39712 z m 34.41447,-1.43726 c 2.14048,-8.52838 -4.95058,-22.66895 -26.03971,-51.9269 -16.12166,-22.36631 -16.12166,-22.36631 -14.6863,-1.03055 1.7405,25.87113 11.51649,53.40352 20.20687,56.90922 11.53539,4.65336 18.70599,3.27237 20.51914,-3.95177 z M 374.85123,568.7446 c 12.76545,-13.96088 16.46919,-25.24498 16.10684,-49.07226 -0.28655,-18.82882 -1.92603,-26.44189 -9.4967,-44.09392 -15.78165,-36.79715 -22.96715,-62.93468 -26.37524,-95.94102 -3.75975,-36.41162 -0.76462,-62.80239 10.74282,-94.6585 3.67375,-10.17004 8.63165,-24.25165 11.01756,-31.29245 5.69048,-16.79269 11.4912,-59.94747 9.25536,-68.8558 -2.68567,-10.70052 -16.70377,-26.75605 -33.37071,-38.22089 -15.01599,-10.32918 -15.01599,-10.32918 -1.97693,6.41341 7.17148,9.20843 14.42623,21.86318 16.12172,28.12167 5.39563,19.91696 3.72768,43.77947 -4.37467,62.58492 -24.60885,57.11703 -30.38174,92.32104 -22.78485,138.94553 2.67166,16.3968 10.53667,46.9813 17.47788,67.96562 18.03174,54.51303 21.81398,95.00342 10.89929,116.6813 -4.7647,9.46328 -1.26773,10.19933 6.75763,1.42239 z M 237.70136,530.65225 c 11.63906,-11.63904 12.95451,-16.26834 9.64577,-33.94482 -1.73594,-9.27403 -2.47657,-25.18281 -1.64585,-35.35286 1.06961,-13.09444 0.38649,-20.02705 -2.34067,-23.7542 -9.11194,-12.45319 -14.19027,5.01808 -10.01522,34.45599 3.48441,24.56831 -0.9115,39.2122 -15.16858,50.53035 -7.42845,5.89715 -8.20401,7.54234 -4.64875,9.86136 6.59066,4.29895 19.00046,3.37704 24.1733,-1.79582 z m 424.03616,-25.55171 c 24.7827,-10.03655 26.1604,-10.262 52.9653,-8.66644 15.13639,0.90099 38.58188,3.71082 52.10099,6.24409 22.51563,4.21906 25.16222,4.22463 31.50825,0.0667 8.39583,-5.50116 9.09617,-16.94457 2.26422,-36.99524 -3.59007,-10.53628 -4.2804,-19.60318 -2.99874,-39.38585 1.7493,-27.00068 -0.47513,-36.13562 -8.79505,-36.11799 -2.68306,0.006 -15.11944,3.88782 -27.63642,8.62697 -37.20125,14.08513 -54.55325,17.42625 -65.89389,12.68782 -5.25432,-2.19539 -10.72608,-7.13071 -12.19798,-11.00212 -3.50799,-9.22671 -4.24289,-35.5506 -1.64665,-58.98308 3.87724,-34.99371 -4.82757,-60.11869 -38.91845,-112.33206 -18.85892,-28.88422 -25.00842,-42.60405 -30.78808,-68.68997 -4.98531,-22.50061 -11.50949,-29.19187 -28.46295,-29.19187 -7.65648,0 -18.12476,1.84202 -23.26289,4.09337 -5.13809,2.25135 -12.70056,4.7954 -16.80541,5.65345 -4.10485,0.85805 -10.46134,3.98768 -14.12549,6.95473 -6.66212,5.39465 -6.66212,5.39465 9.52914,22.88314 20.44977,22.08819 27.25473,33.88519 41.98447,72.78368 16.54657,43.69642 29.92931,98.26066 35.56503,145.00596 5.27287,43.7356 6.88695,99.37922 3.36489,116.00159 -2.25759,10.65469 -2.24858,10.66788 7.27238,10.66788 5.24303,0 20.98287,-4.63709 34.97733,-10.30464 z m 400.51618,-2.5896 c 28.8303,-8.57333 45.376,-18.7646 52.9625,-32.62206 16.7306,-30.55996 1.5594,-72.51174 -25.9399,-71.72987 -9.1607,0.26047 -19.4728,7.5248 -19.4728,13.71756 0,5.82301 -27.174,31.47293 -35.5774,33.58206 -9.2667,2.32577 -23.9175,-5.46451 -29.2484,-15.55224 -2.2986,-4.3495 -3.3255,-14.26808 -2.7407,-26.46853 1.0888,-22.71162 5.0518,-27.38691 23.3051,-27.49421 32.4538,-0.19084 47.1062,-10.79572 47.1062,-34.09414 0,-19.09744 -12.275,-45.49153 -21.1565,-45.49153 -2.0353,0 -11.2292,7.73415 -20.4309,17.18702 -23.2453,23.87971 -35.0319,25.71188 -46.45924,7.22207 -15.59224,-25.22878 3.19894,-60.63379 33.73884,-63.56829 18.6685,-1.79381 24.1654,-7.83763 23.8874,-26.26427 -0.2664,-17.65576 -7.6027,-30.49234 -21.5677,-37.73767 -14.5647,-7.55649 -24.12326,-3.38174 -39.9586,17.4522 -18.33362,24.12082 -27.89693,29.55251 -49.66964,28.21109 -16.88503,-1.04029 -17.96285,-0.72638 -19.57613,5.70155 -2.87481,11.45416 1.00924,58.28794 5.74125,69.22783 14.45949,33.42855 24.33795,106.48998 16.40297,121.31665 -2.81884,5.26703 -1.8683,6.90129 8.12712,13.97294 12.92843,9.14673 13.88407,12.22578 5.43271,17.50377 -6.00303,3.7489 -6.00119,3.75937 2.13357,12.3233 14.12292,14.86801 24.24555,20.43777 43.49601,23.93257 26.65954,4.8399 52.49634,4.71796 69.46424,-0.3278 z M 935.67628,465.93385 c 9.21661,-6.7998 9.21661,-6.7998 -0.20061,-12.61987 -19.75612,-12.20992 -28.79161,-32.73152 -31.87984,-72.40589 -2.43083,-31.22833 -6.49657,-42.8354 -25.63048,-73.17104 -8.38843,-13.29929 -16.65482,-29.30111 -18.3698,-35.55961 -4.56633,-16.66381 -3.83502,-39.61944 1.62709,-51.0736 5.6314,-11.80911 3.67597,-15.00387 -6.90562,-11.28251 -9.86545,3.46949 -14.84513,13.44225 -14.89805,29.83614 -0.0634,19.69008 6.55677,37.79747 26.97095,73.76912 20.90837,36.84242 25.23983,49.59437 29.95477,88.18784 3.53113,28.90371 9.21023,45.10707 21.42019,61.11514 4.19677,5.50223 7.86993,10.00408 8.16256,10.00408 0.29277,0 4.67953,-3.05991 9.74867,-6.7998 z m -531.70404,-31.1837 c 11.49491,-22.72609 12.75004,-27.24981 13.78791,-49.69346 0.93688,-20.259 -0.22462,-29.79813 -6.47028,-53.1391 -4.18664,-15.64623 -10.18999,-38.68886 -13.34075,-51.20584 -7.95412,-31.59926 -9.32749,-33.39944 -15.08664,-19.77503 -19.40011,45.89481 -26.16124,81.98648 -21.40905,114.284 6.81367,46.30824 19.67833,87.45516 26.71229,85.43792 1.73822,-0.49851 8.85115,-12.15733 15.80652,-25.90849 z m 737.06296,0.18757 c 4.1521,-18.55337 -0.018,-36.95586 -9.8318,-43.38601 -10.655,-6.98139 -22.3417,-9.35393 -30.1337,-6.11741 -6.9334,2.87988 -6.9517,2.96686 -0.8502,4.04831 9.3142,1.65089 23.3271,17.49397 26.7648,30.26052 1.6673,6.19188 2.6052,18.15585 2.0842,26.58659 -0.9124,14.76402 -0.7707,15.11023 3.8466,9.39986 2.6367,-3.26079 6.2907,-12.61715 8.1201,-20.79186 z m -102.9631,-0.89551 c 4.153,-2.50484 11.3913,-9.76692 16.0852,-16.13793 4.6938,-6.371 15.3353,-18.18041 23.6477,-26.2432 13.1411,-12.74634 14.86,-15.66952 13.1712,-22.39828 -1.7401,-6.933 -2.4251,-7.30442 -6.5792,-3.56693 -6.8842,6.19386 -36.346,15.34219 -56.2678,17.47201 -17.4937,1.87023 -17.4937,1.87023 -19.3974,14.56551 -2.5665,17.11428 0.3033,28.26222 9.0455,35.13888 8.7841,6.90953 10.6047,7.01449 20.2948,1.16994 z m -109.45532,-7.536 c 5.06757,-18.90959 -2.42285,-71.0198 -15.05674,-104.748 -7.23475,-19.31435 -11.39093,-50.15494 -9.46297,-70.21945 0.95774,-9.96739 0.19884,-16.37608 -2.29532,-19.38124 -3.83463,-4.62041 -23.26452,-15.45298 -27.71738,-15.45298 -4.93464,0 -9.10424,14.81059 -9.10424,32.33859 0,18.82859 2.36964,24.73891 26.26039,65.49837 12.24495,20.89074 19.25591,44.93387 19.25591,66.03527 0,15.44478 9.87251,52.3302 14.00634,52.3302 1.31926,0 3.17059,-2.88033 4.11401,-6.40073 z M 608.96607,398.96749 c -1.89452,-11.84343 -5.29814,-26.01402 -7.56358,-31.4902 -5.18614,-12.53628 -19.28831,-27.38209 -32.46454,-34.17652 -5.57859,-2.87663 -16.09235,-12.19416 -23.3639,-20.70559 -12.98323,-15.197 -17.35069,-25.41049 -28.83971,-67.44295 -5.64358,-20.64698 -18.50486,-40.41246 -33.24323,-51.08888 -16.24425,-11.76728 -19.44986,-10.87521 -7.69113,2.14031 13.13806,14.54227 21.48533,32.61915 26.70314,57.82857 6.72888,32.50985 14.75813,46.5491 43.73038,76.46306 14.39598,14.86392 30.52256,32.91158 35.83683,40.10591 9.98623,13.5192 26.62988,47.87628 27.2106,56.17023 0.25306,3.6181 0.65527,3.43716 1.72985,-0.77864 0.76993,-3.02049 -0.15024,-15.18188 -2.04471,-27.0253 z m 560.47583,25.3543 c 10.1766,-7.2464 19.8694,-22.7426 19.7514,-31.57735 -0.1295,-9.68374 -5.6124,-15.64597 -19.4979,-21.20186 -14.9629,-5.98696 -24.9233,-20.69288 -29.3403,-43.31931 -1.7414,-8.92042 -5.7079,-19.87175 -8.8144,-24.33623 -6.6737,-9.59112 -4.6155,-11.75325 13.8202,-14.51786 20.4246,-3.06285 34.0271,2.12934 62.2292,23.75326 34.9751,26.81704 38.915,27.85784 52.5732,13.88798 8.9981,-9.20354 25.8426,-39.64913 25.8426,-46.70934 0,-2.89544 -3.8373,-3.36808 -16.554,-2.03892 -25.9544,2.71277 -45.8086,-4.30484 -62.4433,-22.07106 -16.763,-17.9033 -37.6329,-29.18554 -49.2625,-26.63124 -9.6134,2.11145 -10.837,-1.65459 -2.9853,-9.18854 9.578,-9.19049 12.7567,-18.92043 12.4123,-37.99404 -0.4754,-26.32442 -8.7481,-46.21154 -28.9348,-69.55735 -17.5335,-20.277325 -34.3491,-32.624733 -44.4648,-32.649723 -7.604,-0.01867 -28.4621,15.086571 -42.4299,30.727543 -10.8624,12.16371 -25.5166,20.46372 -36.1298,20.46372 -6.8432,0 -5.4225,5.88409 6.9132,28.63293 6.9949,12.89965 11.1066,16.98842 22.2027,22.07886 22.3869,10.27016 31.5351,37.43007 21.0381,62.45915 -6.8695,16.37944 -3.4884,27.4075 10.8255,35.30981 23.1999,12.80803 30.7428,36.22971 20.7704,64.49465 -3.6193,10.25815 -3.6146,12.95123 0.038,21.69344 3.6534,8.74393 5.4175,9.98129 14.2302,9.98129 22.9051,0 38.225,15.54559 38.225,38.78803 0,13.59821 0.6501,15.26257 5.9615,15.26257 3.2789,0 9.5894,-2.58319 14.0233,-5.74041 z M 1087.072,224.52757 c -1.3773,-3.52041 -6.5571,-16.442 -11.5106,-28.71466 -4.9536,-12.27266 -8.333,-24.06898 -7.5099,-26.21405 2.0076,-5.2318 39.6898,-24.01363 48.1787,-24.01363 7.9262,0 16.1699,8.11076 16.1304,15.87023 -0.064,12.59651 -31.871,69.47284 -38.8514,69.47284 -2.1632,0 -5.06,-2.88033 -6.4372,-6.40073 z m 11.1151,-7.70333 c 2.3825,-4.4518 0.8499,-9.87632 -7.6357,-27.02531 -11.1892,-22.61301 -16.9871,-27.68331 -13.9621,-12.21005 1.7564,8.9847 15.9242,44.80511 17.7214,44.80511 0.4925,0 2.2369,-2.50639 3.8764,-5.56975 z m 18.8197,-32.47203 c 7.9758,-17.12944 8.8339,-29.64889 2.2066,-32.19205 -4.9421,-1.89643 -29.4965,10.04569 -29.4965,14.3457 0,6.31352 15.243,35.68066 17.7241,34.14724 1.5257,-0.94294 5.8303,-8.27834 9.5658,-16.30089 z M 272.21188,380.99237 c 0.20133,-14.47415 0.76139,-34.93764 1.24459,-45.47443 0.81366,-17.74336 0.23884,-19.94873 -7.78541,-29.87007 -4.76516,-5.89176 -10.76011,-11.12508 -13.32212,-11.6296 -4.08837,-0.80513 -3.93545,0.76081 1.25014,12.80146 4.75182,11.03344 5.56113,17.05985 4.13458,30.7874 -2.15938,20.7797 2.15689,53.42144 8.30471,62.8042 2.48393,3.79095 4.80675,6.89376 5.16184,6.89515 0.35509,10e-4 0.81034,-11.83998 1.01167,-26.31411 z m 434.86633,17.69876 c -1.04044,-4.73707 -1.9537,-24.57975 -2.02947,-44.09484 -0.0779,-20.10285 -1.89702,-43.09706 -4.1966,-53.05102 -4.37665,-18.94465 -28.20683,-71.98741 -35.69305,-79.44786 -2.51872,-2.51006 -6.62152,-8.91079 -9.11733,-14.22385 -2.49585,-5.31306 -7.57373,-14.62186 -11.2842,-20.68624 -3.71049,-6.06437 -7.55816,-16.10298 -8.55039,-22.30801 -2.54417,-15.91043 -12.02149,-33.1793 -20.27218,-36.93858 -9.73474,-4.43544 -11.0006,-1.75865 -4.47509,9.46285 3.0717,5.28222 7.12241,17.56281 9.00159,27.29022 2.06299,10.67887 7.68138,24.76767 14.18064,35.55961 54.55321,90.58501 53.63592,87.6038 51.48756,167.33162 -0.74192,27.53354 0.75339,33.49019 9.27119,36.93189 11.36254,4.59116 13.70823,3.42089 11.67733,-5.82579 z m 494.70529,-8.81594 c 2.961,-16.51056 -1.7856,-24.29575 -20.1936,-33.12081 -18.3676,-8.80569 -23.4944,-16.19412 -23.5566,-33.94844 -0.058,-16.46881 -5.1965,-26.95049 -12.6482,-25.79947 -6.2578,0.9666 -6.3467,1.70096 -1.8156,14.99774 1.5996,4.69387 3.6098,13.19178 4.4672,18.88428 2.2955,15.24076 12.6724,28.63728 27.7268,35.79493 15.6607,7.44592 23.4562,19.79186 20.9578,33.19143 -1.0407,5.58099 -0.7522,7.27484 0.7808,4.58435 1.3371,-2.34694 3.2638,-8.90973 4.2814,-14.58401 z m -443.72451,1.13207 c 13.98159,-5.60271 13.98159,-5.60271 13.33239,-25.61928 -0.35707,-11.0091 0.8217,-30.72457 2.61944,-43.8121 5.51198,-40.12724 4.47883,-75.28737 -2.76947,-94.24792 -13.65489,-35.71935 -27.33378,-41.55619 -50.46021,-21.53159 -7.52714,6.51754 -19.44634,14.36442 -26.48714,17.43751 -7.0408,3.07309 -13.2053,5.93197 -13.69893,6.35306 -0.49359,0.4211 2.84815,8.25601 7.42612,17.41091 18.85392,37.7036 21.55298,49.77446 22.29348,99.70122 0.37637,25.37454 2.02847,48.58726 3.6774,51.66826 2.78432,5.20255 3.94264,5.33691 16.53966,1.91847 7.45016,-2.02171 19.83743,-6.19706 27.52726,-9.27854 z m 329.15281,-44.97129 c 11.0521,-24.98501 6.1641,-47.22693 -12.3694,-56.28406 -14.0566,-6.86937 -18.4905,-3.79019 -9.6577,6.707 10.5916,12.58736 16.7228,31.48436 15.578,48.01282 -0.5514,7.96109 -0.6105,14.47389 -0.1315,14.47294 0.4791,-9.8e-4 3.4403,-5.80988 6.5804,-12.9087 z m -54.3239,-45.9514 c 27.1229,-27.12285 29.3761,-33.63034 11.8434,-34.20504 -5.7681,-0.18906 -16.5785,-0.66293 -24.0232,-1.05302 -15.4361,-0.80882 -25.48277,6.08456 -32.34717,22.1946 -5.23829,12.29377 -4.91143,17.60065 1.75783,28.53906 8.85793,14.52808 14.98104,12.31251 42.76914,-15.4756 z M 170.78191,280.00056 c 5.33049,-27.47521 16.28027,-50.18614 31.31392,-64.9482 21.91297,-21.51711 26.56739,-33.56415 25.01488,-64.74608 -1.42865,-28.69442 -4.39284,-37.05038 -16.61191,-46.82842 -8.18236,-6.547759 -8.18236,-6.547759 -3.69723,4.18667 10.58318,25.32912 2.85523,60.59433 -19.30227,88.08261 -13.24351,16.42972 -21.67238,37.6697 -23.89335,60.20912 -1.75347,17.79487 -0.12482,40.40172 2.91064,40.40172 0.60049,0 2.51988,-7.36084 4.26532,-16.35742 z M 1280.1535,268.93855 c 8.2497,-1.64996 19.9562,-13.47563 16.6312,-16.80061 -0.754,-0.75402 -6.0068,0.56608 -11.673,2.93355 -13.0622,5.45773 -39.6421,5.55477 -50.0306,0.18266 -4.3839,-2.26701 -11.6938,-8.34771 -16.2441,-13.51266 -13.0427,-14.80424 -23.956,-22.19228 -32.7816,-22.19228 -9.3254,0 -10.9017,4.43301 -2.522,7.09263 3.0959,0.98257 13.686,9.96342 23.5336,19.95744 9.8477,9.99401 21.0763,19.43638 24.9525,20.98303 8.1486,3.25138 34.8908,4.00487 48.134,1.35623 z m -229.832,-11.69614 c 11.3226,-13.55647 14.3237,-37.13686 6.6219,-52.0304 -2.3792,-4.60082 -9.74,-11.09526 -16.3574,-14.4321 -12.0317,-6.06699 -12.0317,-6.06699 -5.7667,0.7221 15.4257,16.71624 20.1499,49.27057 9.1748,63.22318 -4.3993,5.59279 -4.8723,7.49556 -1.8633,7.49556 2.218,0 5.9038,-2.24025 8.1907,-4.97834 z M 970.23658,204.6394 c 0,-4.37571 -3.84044,-15.15266 -8.53431,-23.94877 -4.69386,-8.79611 -8.5343,-19.50386 -8.5343,-23.79499 0,-8.1267 -7.47481,-12.63678 -14.1284,-8.52465 -4.21743,2.60653 0.25425,20.85665 9.76168,39.83813 3.53963,7.06701 7.29828,17.59606 8.35254,23.3979 1.84705,10.16471 2.12012,10.37474 7.49981,5.76851 3.07704,-2.63466 5.58298,-8.35127 5.58298,-12.73613 z m 209.81732,-45.92927 c -2.3421,-28.84439 -19.6831,-56.74064 -42.88,-68.980859 -12.127,-6.398985 -16.2116,-2.730709 -4.6562,4.181611 19.6656,11.763868 42.3998,55.906558 42.6287,82.771938 0.074,8.74452 0.5185,9.4078 3.2032,4.78546 1.8151,-3.12531 2.5269,-12.6287 1.7043,-22.75815 z m 59.6179,387.32269 c -3.7952,-3.54588 -8.9199,-10.38077 -11.3881,-15.1886 -8.089,-15.75682 -11.2086,-16.47127 -23.595,-5.40385 -6.1258,5.47348 -15.6183,11.20827 -21.0945,12.74391 -10.6505,2.98666 -25.6029,3.77718 -25.6029,1.35358 0,-0.80865 5.4406,-7.08857 12.0903,-13.95543 6.6496,-6.86686 16.2084,-17.51533 21.2418,-23.66326 9.1515,-11.1781 9.1515,-11.1781 -0.7323,-26.51932 -14.0165,-21.75585 -13.0351,-22.84187 16.4725,-18.22907 12.0853,1.88925 13.5155,1.54568 13.5404,-3.25267 0.039,-7.55891 13.3214,-35.23507 16.91,-35.23507 1.6366,0 2.9867,4.80055 3.0003,10.66788 0.015,5.86734 0.8275,17.35084 1.8088,25.51891 1.7839,14.85106 1.7839,14.85106 19.0705,13.04428 17.2866,-1.80685 17.2866,-1.80685 10.2816,6.96595 -3.8528,4.82505 -11.1603,11.08479 -16.2389,13.91053 -6.3865,3.55347 -8.764,6.61818 -7.7101,9.93876 2.561,8.06904 3.4342,50.91503 1.0675,52.37774 -1.2218,0.75505 -5.3265,-1.52835 -9.1219,-5.07427 z m 5.0324,-23.03599 c -0.9243,-6.52231 -2.7546,-15.8995 -4.0672,-20.83814 -2.4147,-9.08539 0.4166,-15.2012 7.0376,-15.2012 1.7613,0 6.3058,-3.35934 10.099,-7.46526 6.2437,-6.75867 6.358,-7.30999 1.207,-5.82464 -21.9559,6.33124 -20.4116,7.48403 -22.701,-16.94661 -1.9266,-20.56036 -2.3457,-21.64214 -5.8697,-15.15435 -2.0872,3.84257 -4.6018,11.64298 -5.5879,17.33424 -1.7929,10.34776 -1.7929,10.34776 -18.6656,5.23915 -9.28,-2.80978 -16.8726,-4.07448 -16.8726,-2.81055 0,1.26397 4.5057,8.99368 10.0128,17.17716 10.0128,14.879 10.0128,14.879 0.01,24.59896 -10.2917,9.99515 -20.0912,25.93211 -17.5241,28.49928 0.7959,0.79588 8.7796,-3.80358 17.7415,-10.22105 8.9619,-6.4175 17.9767,-11.66818 20.0329,-11.66818 2.0561,0 5.6882,3.20037 8.0712,7.11193 2.383,3.91155 6.3092,10.35309 8.7248,14.31452 6.164,10.10811 10.3636,6.01476 8.3569,-8.14526 z M 938.94412,128.2735 c 0,-1.69834 4.31709,-11.85102 9.59357,-22.56152 9.59357,-19.473641 9.59357,-19.473641 -4.97834,-22.890187 -8.01458,-1.879101 -15.70497,-4.070242 -17.08983,-4.869202 -4.14809,-2.393162 10.14761,-8.841856 23.85368,-10.760217 12.80146,-1.791751 12.80146,-1.791751 11.84751,-20.017207 -0.6182,-11.811223 0.13424,-18.225463 2.13832,-18.225463 1.70073,0 7.53837,6.188689 12.97253,13.752642 9.88027,13.752644 9.88027,13.752644 25.59814,12.449194 8.7132,-0.722562 15.718,-0.126088 15.718,1.338443 0,1.453046 -5.7607,7.55229 -12.8015,13.553881 -7.04081,6.001588 -12.80147,12.030874 -12.80147,13.398411 0,3.682903 16.94297,13.427923 29.15887,16.771145 5.8673,1.60577 10.6679,3.89435 10.6679,5.08574 0,8.90805 -22.3299,11.90724 -42.85917,5.75653 -10.06411,-3.01528 -11.54864,-2.65364 -21.66579,5.27792 -17.83955,13.98563 -29.35242,18.6688 -29.35242,11.93989 z m 18.19852,-10.66274 c 0.80611,-1.30435 6.52564,-5.87808 12.71002,-10.16385 10.90764,-7.559023 11.51272,-7.653526 20.20906,-3.15647 4.96246,2.5662 13.65088,4.24623 19.46148,3.76313 10.4968,-0.87272 10.4968,-0.87272 -2.3046,-6.86045 -7.0408,-3.293246 -15.02227,-8.493096 -17.73653,-11.555217 -4.74875,-5.357325 -4.50713,-5.985337 6.40073,-16.636573 6.2347,-6.087992 11.3358,-11.954608 11.3358,-13.036924 0,-1.082313 -4.8006,-0.862062 -10.66791,0.489446 -8.66919,1.996894 -11.3719,1.54102 -14.42558,-2.433161 -16.19053,-21.071161 -15.00705,-20.899666 -14.11684,-2.045682 0.80593,17.068613 0.80593,17.068613 -7.72838,16.324253 -4.69387,-0.409398 -11.73467,0.05553 -15.64623,1.033182 -6.37151,1.592483 -5.7197,2.192985 6.2608,5.767997 16.40333,4.894774 18.74155,8.20645 11.43861,16.200733 -3.11016,3.404572 -7.75765,10.350616 -10.32778,15.435636 -3.99154,7.89725 -4.06453,9.2455 -0.50068,9.2455 2.29481,0 4.8319,-1.0672 5.63803,-2.37155 z M 292.98223,87.1974 c -6.95505,-6.955036 -7.80701,-7.091662 -26.96066,-4.323507 -10.87827,1.572168 -22.01892,2.883846 -24.75701,2.914836 -9.78954,0.110798 -4.7146,-8.717343 10.66788,-18.557396 8.60543,-5.504823 15.63081,-11.569616 15.61196,-13.477318 -0.0187,-1.907699 -3.2192,-9.039834 -7.11192,-15.849188 -11.64215,-20.365126 -8.66015,-22.451975 13.02035,-9.111833 13.61533,8.377601 13.61533,8.377601 23.07278,-4.179189 13.46776,-17.8813601 17.60841,-16.8719004 15.21957,3.710431 -1.90845,16.443148 -1.90845,16.443148 8.25499,21.289745 5.58988,2.665626 10.16341,6.152364 10.16341,7.748306 0,1.595942 -5.8353,4.46242 -12.96737,6.369951 -10.66279,2.851863 -12.71271,4.441813 -11.53477,8.946365 1.65616,6.333155 -0.93187,21.700786 -3.65461,21.700786 -1.01345,0 -5.07454,-3.231897 -9.0246,-7.181989 z m 8.09664,-14.978657 c -0.63506,-6.072224 1.04759,-8.38885 8.79229,-12.105016 9.57766,-4.595677 9.57766,-4.595677 1.01153,-8.143898 -7.9754,-3.303505 -8.47113,-4.366829 -7.18791,-15.417746 1.37827,-11.869532 1.37827,-11.869532 -6.19602,-2.624033 -9.1027,11.111107 -10.59952,11.252697 -22.5553,2.133577 -12.45299,-9.498357 -13.45663,-9.0154 -7.38967,3.555961 9.06785,18.789553 8.52731,21.262733 -6.36762,29.134185 -7.42743,3.925138 -13.50812,7.864764 -13.51265,8.754726 -0.004,0.889959 9.1,0.442809 20.23227,-0.993663 16.92908,-2.184474 20.96373,-1.888553 24.66105,1.808772 5.83176,5.831747 9.48619,3.211629 8.51203,-6.102865 z"
       id="path1537"
       sodipodi:nodetypes="ssssssssssssssssssssssscsssscssssssssccscssssssssssssssssssssssssssssssssssssscsssssssssssssssssssssssssssssssssssssssssssssssscsscsssssssssccsssssssssssssssssssssssssssssssssssssssssssssssssssssssssssssssssssssssscsssscsssssccsssssssssssssssssscsssssssssssssssssssssssssssssssssssssssssssssssssssssssssssssssscsssssssscsssssssssscssssssssssscssssssssssssssssssssssssssssssssssssssssssssssssssssssssssssssssssssssssssssssssssssssssssssssssssssssssssssscsssssssssssssssssssssssssssscsscssssscsssssscssssssssssssssssssssssssssscsssssssssssssssssssssssssssssssssssssssssssssssssssssssssssssssssssssssssssssssssssssssssssssssssssssscsssssssssssssssssssssssssssssssssssssssssssssssssssssssssssssssssssssssssssssssssssssssssssssssssssssssssssssssssssssssssssssssssssssssssssssssssssssssssssssscssssssscsssssssssscsssssccssssssssssssssssssssssssssssssssssssssscsssssssssssssssssscsss"
       inkscape:export-filename="/home/marcel/Documents/walterLogo.png"
       inkscape:export-xdpi="38"
       inkscape:export-ydpi="38" />
    <path
       style="fill:#10d4a0;fill-opacity:1;stroke:none;stroke-width:1.41005"
       d="m 320.77661,583.94186 c -12.1017,-3.98849 -22.01919,-13.9778 -29.88541,-30.10184 -8.26558,-16.94261 -22.81019,-58.8361 -30.19332,-86.96719 -5.53604,-21.09334 -7.73723,-27.25908 -11.78372,-33.0072 -8.645,-12.28042 -11.12233,-12.32662 -19.36806,-0.36129 l -4.6391,6.73179 0.35027,29.10777 c 0.33369,27.72971 0.20201,29.38501 -2.78141,34.96408 -3.68685,6.8945 -11.95377,14.11707 -17.57022,15.35066 -8.20055,1.80116 -17.36686,-7.37269 -37.3918,-37.42251 -30.56229,-45.86239 -41.09023,-74.79147 -48.23586,-132.54443 -5.36528,-43.36367 -6.40318,-59.84257 -6.43873,-102.22843 -0.0451,-53.81899 1.77325,-67.26449 14.30224,-105.75353 6.65469,-20.44318 13.48265,-33.3509 21.26637,-40.20241 6.59051,-5.801203 18.93959,-11.267992 25.43334,-11.259043 12.41975,0.01719 28.32894,22.393633 29.59038,41.619303 1.18058,17.99326 -6.33411,37.22357 -24.23337,62.01389 -18.30267,25.34905 -22.61321,38.68464 -22.561,69.79734 0.0397,23.66542 2.4866,40.46621 10.54668,72.41524 7.9193,31.39099 15.25668,46.02872 23.07264,46.02872 6.38284,0 8.12972,-5.03168 9.44393,-27.20209 0.65318,-11.01898 2.16884,-24.47613 3.36813,-29.90484 4.23465,-19.16838 13.44517,-30.316 25.04808,-30.316 4.73195,0 6.56544,0.94825 11.63413,6.01694 3.64224,3.64225 6.61573,8.2407 7.53414,11.6514 0.83446,3.09896 2.16262,17.68204 2.95145,32.40684 2.32463,43.39247 3.90743,52.83461 10.53588,62.85087 3.9268,5.9338 12.58669,11.1581 18.49584,11.1581 8.40412,0 18.4163,-10.81116 21.54632,-23.26577 4.2176,-16.78218 3.01569,-44.76389 -3.3918,-78.96266 -9.80282,-52.32091 -9.63975,-50.72234 -9.7086,-95.17817 -0.0716,-46.2764 -0.45278,-43.70579 10.69971,-72.16684 7.82649,-19.97309 11.11818,-25.12641 16.0495,-25.12641 3.56308,0 5.41564,1.99541 20.73321,22.3318 23.50849,31.21113 24.28668,33.18103 24.32135,61.566 l 0.0267,21.15071 -6.16686,15.51052 c -18.60506,46.79411 -21.27061,58.43026 -22.28746,97.29324 -1.08105,41.31547 2.20617,61.94152 17.21645,108.02728 15.42831,47.36923 20.65821,80.97555 16.03815,103.05789 -2.27276,10.86293 -9.32998,23.39153 -15.46203,27.4495 -5.63439,3.72866 -21.4113,5.67698 -28.10528,3.47077 z"
       id="path3963"
       inkscape:export-filename="/home/marcel/Documents/walterLogo.png"
       inkscape:export-xdpi="38"
       inkscape:export-ydpi="38" />
    <path
       style="fill:#ff9e00;fill-opacity:1;stroke:none;stroke-width:1.43374"
       d="m 397.22824,580.22212 c -10.77966,-5.38666 -11.88305,-8.22788 -6.98818,-17.99456 9.08637,-18.13007 10.16255,-53.6762 2.37684,-78.50712 -1.51167,-4.82111 -2.75679,-9.85345 -2.76696,-11.18293 -0.009,-1.32955 3.45506,-7.60683 7.7005,-13.94959 8.88854,-13.27959 19.93128,-37.56562 24.17588,-53.16942 2.18419,-8.02941 2.92525,-15.11084 2.92558,-27.95788 5.6e-4,-20.2007 -3.59612,-39.6183 -15.00465,-81.00616 -16.16302,-58.6364 -16.83587,-61.63944 -16.86447,-75.27123 -0.0267,-13.21397 1.72295,-28.71123 4.34476,-38.46032 1.20171,-4.46851 2.58797,-5.98968 7.484,-8.2125 11.61383,-5.27272 34.55232,-2.56557 38.34745,4.52569 0.78614,1.46893 4.91413,4.31934 9.17332,6.33425 9.13206,4.32016 28.88862,24.31111 33.54127,33.93915 1.64117,3.39622 5.87015,17.14303 9.39779,30.54849 12.36043,46.97127 16.02511,53.21616 57.08135,97.27049 26.97333,28.94303 40.44796,50.73897 50.48315,81.65927 7.10582,21.89438 8.70802,32.2352 8.70802,56.20318 0,23.87152 -1.70938,31.56253 -9.36338,42.1286 -5.51696,7.61589 -20.87166,18.24845 -41.65492,28.84438 -16.90646,8.61944 -20.48112,9.78885 -22.06906,7.21955 -1.15032,-1.86131 1.53609,-17.18214 6.67146,-38.04789 9.16555,-37.2409 6.05583,-74.96974 -7.53757,-91.45014 -8.54045,-10.35427 -26.64272,-16.79705 -47.19481,-16.79705 -17.07475,0 -23.49832,3.26034 -29.29987,14.87135 -5.51613,11.03987 -5.59116,23.95586 -0.26344,45.34565 5.19431,20.85399 5.06757,33.64855 -0.49784,50.26025 -4.72397,14.10015 -13.6033,32.58262 -21.09944,43.91896 -9.25789,14.00062 -24.95799,17.35703 -41.80684,8.93753 z m 73.31304,-206.64529 c 3.72048,-2.64925 7.16799,-3.3218 21.08895,-4.11419 18.19242,-1.03558 20.44749,-3.75741 22.73554,-10.321 4.70659,-13.50133 0.64553,-17.01053 -28.84237,-62.41414 -20.8133,-32.04694 -25.65972,-37.21863 -31.79947,-37.04408 -6.40607,0.1823 -9.60688,2.7779 -12.2497,9.08282 -1.73682,4.14357 -3.22691,6.44357 -2.60631,19.41967 0.82229,17.1928 3.48626,34.28885 12.36203,59.88309 10.85478,31.30093 10.96718,31.4494 19.31133,25.50783 z"
       id="path4548"
       sodipodi:nodetypes="ssscsssscssssssssssssssssssssssssscssss"
       inkscape:export-filename="/home/marcel/Documents/walterLogo.png"
       inkscape:export-xdpi="38"
       inkscape:export-ydpi="38" />
    <path
       style="fill:#ff9e00;fill-opacity:1;stroke:none;stroke-width:1.41005"
       d="m 619.4361,513.91755 c -0.41232,-0.41232 -0.10579,-3.74354 0.68126,-7.40274 1.93181,-8.98189 1.73063,-62.61601 -0.32641,-87.02578 -4.94794,-58.7144 -17.16696,-116.24849 -35.63307,-167.78077 -15.08841,-42.10635 -23.11072,-56.56525 -45.31216,-81.66773 -7.48174,-8.45937 -13.60315,-15.80439 -13.60315,-16.32226 0,-1.35139 5.79106,-6.43522 9.5218,-8.35896 1.74713,-0.9009 10.78031,-4.1528 20.07372,-7.22644 13.31486,-4.40366 19.02336,-5.58844 26.9263,-5.58844 18.70086,0 22.7151,4.30597 30.18487,32.37858 6.31998,23.75145 12.94888,37.77395 33.02045,69.84984 18.2432,29.15408 29.09718,45.13118 33.74127,61.22472 2.94513,10.20612 4.18379,17.01268 3.60109,36.78702 -1.08724,36.89461 -2.59212,59.56045 -0.72284,65.13075 2.23036,6.64627 9.71225,13.23502 17.42311,15.34335 9.44455,2.58231 22.87085,-1.92428 57.89615,-13.79515 34.35408,-11.64337 37.475,-12.58105 40.36519,-3.8236 0.95934,2.90679 1.42615,15.10368 1.22814,32.08941 -0.29929,25.67795 -1.49774,30.45141 1.66725,39.70126 2.19755,6.42293 3.40862,13.2339 3.46744,19.50054 0.0856,9.14321 -0.14253,9.8384 -4.51456,13.74794 -5.45036,4.87383 -10.33531,5.21455 -28.53119,1.98988 -20.09299,-3.56085 -44.87712,-6.32448 -64.15715,-7.15406 l -18.3306,-0.78871 -16.21554,5.87178 c -34.91438,12.64281 -49.43962,16.33135 -52.45137,13.31957 z"
       id="path4944"
       sodipodi:nodetypes="ssssssssssssssssssssssscss"
       inkscape:export-filename="/home/marcel/Documents/walterLogo.png"
       inkscape:export-xdpi="38"
       inkscape:export-ydpi="38" />
    <path
       style="fill:#ff9e00;fill-opacity:1;stroke:none;stroke-width:1.41005"
       d="m 1011.0771,504.6513 c -24.43891,-2.57422 -37.52722,-6.82083 -50.06127,-16.24286 -4.62616,-3.47755 -10.42433,-8.86456 -12.88476,-11.97114 l -4.47355,-5.64832 5.21129,-4.77334 c 6.49271,-5.94708 5.80051,-7.69958 -7.02098,-17.7756 -5.0059,-3.93399 -9.09209,-7.57067 -9.08041,-8.08154 0.0118,-0.51085 0.9356,-3.46689 2.05318,-6.56899 6.03124,-16.74123 -1.36961,-75.23368 -14.26563,-112.74847 -2.71556,-7.89963 -5.75855,-20.69911 -6.88531,-28.96128 -2.36214,-17.32065 -2.71267,-45.52395 -0.61453,-49.44435 1.29786,-2.42505 3.06707,-2.7274 15.95962,-2.7274 21.12852,0 27.30018,-2.20813 38.8364,-13.89509 5.12133,-5.18825 13.39009,-14.09732 18.37499,-19.79794 13.95076,-15.95381 19.98606,-18.42373 31.82786,-13.02558 14.7936,6.74371 21.8852,18.15077 22.9007,36.8366 0.5934,10.91746 0.3489,12.4412 -2.7167,16.93225 -4.1893,6.1373 -7.7618,7.88588 -20.1577,9.86614 -17.3986,2.77944 -28.60861,11.15752 -35.76613,26.73074 -6.80831,14.81345 -3.82648,33.45632 7.16852,44.81868 9.81004,10.13781 19.34311,7.08351 40.78061,-13.06581 17.2357,-16.19995 19.8897,-18.10728 23.5699,-16.93924 7.5988,2.4118 17.4416,26.52726 17.5761,43.06266 0.1855,22.82409 -10.4897,31.35848 -42.1917,33.7304 -17.5302,1.31161 -20.6376,2.46315 -24.1919,8.96532 -2.0369,3.72629 -2.4822,8.10124 -2.4822,24.38894 0,19.53799 0.061,19.92852 3.9254,24.99689 4.6222,6.06274 13.6921,11.66365 21.0733,13.01328 4.2668,0.78018 6.4884,0.24033 11.7851,-2.86373 10.5283,-6.16992 26.8486,-22.59224 30.8429,-31.03542 2.8164,-5.95342 4.7732,-8.06928 9.6425,-10.42647 11.4216,-5.52913 20.7875,-3.19426 30.2336,7.53713 7.9613,9.04456 10.96,18.24733 10.8236,33.21703 -0.2566,28.17999 -14.7118,44.20255 -50.78,56.28651 -12.1126,4.05809 -32.3246,7.34256 -42.8706,6.96648 -2.7143,-0.0966 -9.9783,-0.70719 -16.1422,-1.35648 z"
       id="path5022"
       inkscape:export-filename="/home/marcel/Documents/walterLogo.png"
       inkscape:export-xdpi="38"
       inkscape:export-ydpi="38" />
    <path
       style="fill:#ff9e00;fill-opacity:1;stroke:none;stroke-width:1.41005"
       d="m 1150.7493,426.42392 c -0.4707,-1.22669 -0.8558,-6.27905 -0.8558,-11.22747 0,-16.77264 -8.4723,-31.11999 -21.6085,-36.59283 -2.966,-1.23572 -9.6285,-2.62044 -14.8055,-3.07712 -5.1769,-0.45667 -10.4224,-1.70475 -11.6567,-2.7735 -1.2342,-1.06874 -3.407,-5.36452 -4.8284,-9.54615 -2.5775,-7.58294 -2.5753,-7.63216 0.8299,-18.66684 4.1288,-13.37954 4.5875,-33.33261 0.9512,-41.37986 -4.1973,-9.28907 -10.6081,-16.45756 -20.6122,-23.04824 -16.3207,-10.75211 -18.2813,-16.4272 -12.0842,-34.97753 7.1399,-21.37236 4.5621,-39.73375 -7.5081,-53.48096 -2.3756,-2.70572 -8.8918,-7.42597 -14.4805,-10.48945 -5.5887,-3.06348 -11.9443,-7.73323 -14.1237,-10.37721 -4.6079,-5.59018 -18.2824,-32.23218 -18.2679,-35.59129 0.01,-1.65708 2.2671,-2.72821 8.2322,-3.90176 10.9287,-2.15009 19.2547,-7.65883 36.2089,-23.95676 14.3287,-13.774101 26.7984,-23.069733 34.5912,-25.786328 7.0029,-2.441205 20.0199,4.89166 35.0907,19.767528 28.9921,28.61704 39.8385,50.5776 40.1459,81.28295 0.1728,17.27218 -2.0576,25.58191 -8.9932,33.50279 -5.9488,6.79399 -9.1123,12.17265 -7.8827,13.40223 0.4603,0.46033 5.1457,0.88188 10.4119,0.93677 13.4441,0.14016 24.3807,5.93908 42.4947,22.53193 24.6162,22.54903 35.6205,27.03784 63.5188,25.91017 17.3475,-0.7012 19.7407,-0.42734 19.7407,2.25899 0,3.37208 -11.4583,25.33776 -18.6259,35.70602 -7.3855,10.68359 -13.2595,16.19465 -19.1802,17.99527 -4.8541,1.47623 -15.063,-4.17067 -36.9264,-20.42541 -10.4696,-7.78379 -24.382,-16.83276 -30.9164,-20.1088 -11.4528,-5.74192 -12.3415,-5.95205 -24.6758,-5.83511 -13.8281,0.13112 -23.4062,2.16398 -26.2307,5.56726 -1.4686,1.76954 -0.9006,4.04184 3.2579,13.03282 2.7702,5.98928 6.6919,17.21761 8.7149,24.95185 5.9376,22.69998 12.2181,31.42942 28.8304,40.07207 13.6574,7.10537 18.4589,12.32025 18.4589,20.04821 0,6.17531 -4.7414,16.62533 -10.822,23.85176 -8.5118,10.11567 -24.1427,16.28909 -26.3934,10.424 z m -47.5426,-204.5465 c 12.2772,-16.71939 28.2802,-48.92508 29.4448,-59.25676 0.6344,-5.62862 0.2569,-6.50176 -5.1495,-11.90811 -5.5848,-5.58477 -6.1356,-5.80516 -12.887,-5.15643 -8.0028,0.76897 -39.6415,15.73024 -44.7387,21.15601 -2.6986,2.87253 -2.8744,3.91381 -1.6137,9.55639 1.9092,8.54474 18.0282,49.42222 20.7066,52.51163 3.8401,4.42929 7.0642,2.86617 14.2375,-6.90273 z"
       id="path5061"
       inkscape:export-filename="/home/marcel/Documents/walterLogo.png"
       inkscape:export-xdpi="38"
       inkscape:export-ydpi="38" />
    <path
       inkscape:original-d="M 0,0"
       inkscape:path-effect="#path-effect5516"
       d="M 0,0"
       id="path5518"
       style="stroke-width:2.9633"
       inkscape:export-filename="/home/marcel/Documents/walterLogo.png"
       inkscape:export-xdpi="38"
       inkscape:export-ydpi="38"
       class="UnoptimicedTransforms" />
    <path
       style="fill:#a0a0a0;stroke:none;stroke-width:1.41005"
       d=""
       id="path5673"
       inkscape:export-filename="/home/marcel/Documents/walterLogo.png"
       inkscape:export-xdpi="38"
       inkscape:export-ydpi="38" />
    <path
       style="fill:#a0a0a0;stroke:none;stroke-width:0.705023"
       d="m 173.56248,89.664677 c -10.83268,1.041114 -21.2878,6.496462 -28.73019,14.382063 -12.26207,15.09516 -17.25581,34.43295 -23.14578,52.59107 -11.16093,34.91743 -9.66453,71.99758 -9.58967,108.17253 0.5481,40.28025 4.63764,80.53311 12.00086,120.13241 5.45192,29.33825 17.04281,57.29681 33.01937,82.44602 10.87241,16.80725 21.23682,34.38926 35.74768,48.37719 3.92739,3.88854 10.14807,6.96293 15.34441,3.42469 8.38266,-4.6408 15.16787,-12.65104 17.87439,-21.79099 -0.12289,-18.91401 -0.2448,-37.82802 -0.36585,-56.74203 4.10469,-5.10588 6.78349,-12.32848 13.13933,-15.02168 5.00679,1.58883 7.92475,6.88079 10.73508,11.08209 6.75753,13.50555 9.26158,28.62825 13.96409,42.90813 8.20821,26.48536 16.1246,53.30519 28.53424,78.19206 6.68254,12.22598 16.87988,24.46187 31.16838,27.3472 8.89405,0.71303 18.6309,0.30914 26.42047,-4.46836 12.50602,-11.10722 17.41348,-28.71705 16.96116,-45.01823 -0.33091,-42.08972 -17.56947,-81.26257 -27.89589,-121.39212 -8.62347,-32.99171 -7.75253,-67.61815 -5.10316,-101.27552 3.52227,-29.51581 16.53955,-56.70357 26.8969,-84.25033 -0.68695,-15.0493 0.50341,-30.28425 -1.84515,-45.21101 -3.52675,-13.42871 -13.24282,-24.00542 -20.91664,-35.21676 -6.65916,-8.31251 -12.57234,-17.56402 -20.81195,-24.4018 -5.82703,-2.39773 -9.91662,4.31875 -12.13276,8.62415 -6.38926,13.18214 -11.7009,26.95949 -15.83823,41.00704 -2.8306,16.28729 -1.47677,32.95526 -2.06392,49.40805 -0.52521,23.0053 0.6149,46.09099 5.10292,68.70435 4.62606,26.97446 10.95864,53.85513 9.8621,81.32664 0.13927,12.2393 -0.36766,25.61433 -8.57044,35.59269 -3.98112,5.43685 -10.33973,10.85466 -17.56638,8.50434 -12.72156,-3.1477 -19.60006,-16.36438 -20.90875,-28.53762 -3.73199,-24.60897 -3.01065,-49.86551 -6.65464,-74.57209 -1.51962,-7.80335 -7.13826,-14.55265 -13.80992,-18.61289 -7.94627,-3.614 -17.31778,0.34453 -22.21788,7.10808 -11.78332,15.33825 -11.61735,35.69157 -13.4273,54.05997 -1.18501,7.77656 -0.15898,16.63538 -4.6348,23.3907 -4.06447,2.87203 -9.08938,-0.22936 -11.279,-3.98641 -8.92441,-14.62001 -12.43422,-31.78105 -16.77742,-48.12469 -7.51566,-30.78567 -11.61524,-62.98465 -5.95133,-94.4553 5.22028,-24.39536 24.61674,-42.00767 35.09628,-64.00385 7.72773,-14.90382 12.00225,-32.97147 6.63628,-49.34785 -4.32185,-11.27856 -10.72096,-23.116951 -21.8005,-28.933623 -2.02384,-0.918523 -4.237,-1.454593 -6.46639,-1.41831 z"
       id="path5907"
       inkscape:export-filename="/home/marcel/Documents/walterLogo.png"
       inkscape:export-xdpi="38"
       inkscape:export-ydpi="38" />
    <path
       style="fill:#ff9e00;fill-opacity:1;stroke:none;stroke-width:0.705023"
       d="m 177.04629,88.888049 c -18.11035,-0.04946 -34.4529,12.288381 -41.73134,28.488741 -6.00727,12.27822 -10.05906,25.47989 -14.3139,38.37145 -5.4171,17.27062 -8.28715,35.37953 -9.01797,53.4799 -1.33455,21.98978 -0.49675,44.14019 -0.49434,66.19235 0.58973,28.38044 3.4667,56.69641 7.41376,84.77632 1.37446,6.20101 2.35118,12.7056 2.80357,18.94477 2.30495,7.43012 3.21898,15.39414 5.34551,22.96558 1.48349,6.1298 4.08897,12.1888 5.49147,18.15849 3.34786,7.33648 6.02443,15.12691 9.73401,22.35419 0.21932,2.7188 3.0682,4.63576 3.89829,7.38073 2.19936,4.43185 5.04336,8.81229 6.86158,13.22195 1.99514,2.14724 3.0064,5.07993 5.05442,7.31867 11.16567,16.5343 21.22274,34.50891 36.73613,47.45421 4.00667,3.49862 10.17733,5.27619 14.62649,1.4252 6.40603,-3.9801 11.64286,-9.64812 15.49812,-16.04203 1.07879,-1.43092 0.82896,-3.53433 1.62073,-5.33312 1.06292,-18.94103 -0.24258,-37.95715 -0.20654,-56.92376 4.03712,-4.8669 6.80243,-11.59975 12.70006,-14.33595 7.56547,3.82358 10.57261,12.67152 13.70941,20.01055 4.98536,15.16564 9.06595,31.02789 14.16532,46.35604 7.69677,24.58633 15.3261,49.51433 28.53662,71.8121 8.15024,12.16047 21.76205,23.30029 37.29345,21.33565 8.95053,-0.81277 18.83761,-3.64886 23.56183,-12.01295 3.47701,-5.19366 7.14718,-10.88477 8.40655,-16.91506 2.16158,-1.46704 0.63095,-4.9747 1.70473,-7.2554 2.49632,-17.52597 -0.0311,-35.38733 -3.31078,-52.63694 -2.53726,-11.8791 -5.80614,-23.57777 -9.21026,-35.18807 -6.44266,-19.63531 -12.19828,-39.62556 -16.84755,-59.84022 -5.36491,-23.57264 -3.56233,-47.9129 -3.53827,-71.93229 0.003,-20.66544 4.70634,-41.10225 12.08887,-60.38941 2.53075,-7.13713 5.19123,-14.39311 8.24877,-21.23576 2.4678,-8.3837 7.96179,-16.60719 7.23276,-25.87925 -0.22284,-14.48593 0.9311,-29.24894 -2.71758,-43.35077 -1.08884,-3.07995 -1.69839,-6.30413 -3.99607,-8.60899 -2.93945,-5.34711 -6.98157,-10.2078 -9.81662,-15.43754 -9.05066,-10.37006 -15.81158,-22.73899 -26.4797,-31.598 -5.31782,-3.53153 -11.08488,1.91972 -13.13243,6.66192 -3.89236,5.54145 -5.15502,12.37668 -8.5856,18.14472 -0.97684,3.32467 -2.34993,6.81106 -3.5201,10.2125 -0.69906,2.17211 -2.15945,4.15835 -2.45056,6.19444 -5.05498,16.54395 -3.89545,34.24933 -4.23324,51.38273 0.26675,15.99009 -0.32271,32.0671 1.02872,47.99979 2.20739,17.56059 5.04631,35.02178 8.48157,52.39245 4.26219,21.66451 6.04376,43.62242 4.78658,65.66491 0.23825,12.41964 -4.81257,26.10813 -16.01502,32.58185 -7.51819,4.11276 -15.89038,-1.64858 -20.83262,-7.26365 -9.28276,-11.62814 -8.50647,-27.44538 -10.12346,-41.43841 -1.34294,-17.16599 -2.0733,-34.3595 -4.12594,-51.49121 -0.0175,-1.67651 0.41912,-3.34616 -1.20879,-4.33747 -3.12834,-7.42811 -8.87326,-14.86829 -16.88201,-17.16017 -8.24196,-1.39691 -16.31564,2.97947 -20.76515,9.81939 -12.47403,18.42708 -11.08497,41.68043 -13.60152,62.82578 -1.01416,4.5326 -0.5143,10.64598 -4.54595,13.76705 -6.02496,1.32747 -9.2857,-5.65031 -11.67558,-9.89375 -9.33532,-20.21686 -13.78362,-42.24601 -18.21128,-63.94893 -4.59357,-25.46037 -6.44613,-51.95446 -0.11106,-77.26922 3.59577,-11.79135 10.25525,-22.6801 17.49202,-32.49856 7.11725,-11.62513 15.18747,-22.84548 20.20609,-35.64638 1.51867,-2.09494 1.27344,-4.74051 2.83386,-6.62887 0.0507,-5.3925 2.25631,-10.72295 1.87582,-16.23954 1.16957,-16.38455 -6.69469,-32.58633 -18.67521,-43.453376 -2.49462,-2.046468 -5.42628,-3.84934 -8.0224,-5.501114 -0.34604,-0.0065 -0.69191,-0.03141 -1.03826,-0.0083 z m 2.3767,1.730888 c -0.24352,0.643957 0.24216,-1.85812 0,0 z m 148.55068,44.463303 c -0.89065,1.20275 0.3428,-1.18102 0,0 z m -31.01965,15.3618 c -0.15884,0.0671 -0.45834,-0.50127 0,0 z m 47.58356,7.90398 c -0.32552,0.0998 0.0877,-0.0556 0,0 z m -211.0981,260.7348 c 0.0648,-0.0578 0.27953,-0.0376 0,0 z m 19.86046,41.56059 c 0.0421,-0.0296 0.18147,-0.0267 0,0 z m 71.4277,40.20423 c 0.0546,0.0302 -0.0725,-0.0207 0,0 z"
       id="path6024"
       inkscape:export-filename="/home/marcel/Documents/walterLogo.png"
       inkscape:export-xdpi="38"
       inkscape:export-ydpi="38" />
    <path
       style="fill:#325b96;fill-opacity:1;stroke:none;stroke-width:0.352511"
       d="m 237.96404,432.55194 c -3.94511,0.5312 -5.24929,5.08283 -6.07093,8.38952 -1.76025,10.22093 -0.71444,20.69045 0.4118,30.92708 1.40309,12.15597 2.39286,25.04793 -3.43595,36.31712 -3.29852,7.33826 -9.82574,12.29426 -15.69529,17.46007 -1.71904,1.44997 -3.68037,4.22051 -1.74096,6.27802 5.27129,4.80369 13.27719,4.91765 19.84325,3.22908 6.16854,-1.48634 10.15899,-6.88935 13.97853,-11.53447 4.1904,-5.20439 5.14085,-12.17132 4.3094,-18.62939 -1.15344,-9.37968 -3.09815,-18.63729 -2.93576,-28.04121 -0.34302,-10.28944 0.47296,-20.61912 0.27609,-30.93568 -0.15984,-5.29562 -2.80117,-10.75041 -7.61136,-13.26047 -0.42413,-0.15261 -0.87892,-0.21632 -1.32881,-0.19973 z"
       id="path6498"
       inkscape:export-filename="/home/marcel/Documents/walterLogo.png"
       inkscape:export-xdpi="38"
       inkscape:export-ydpi="38" />
    <path
       style="fill:#325b96;fill-opacity:1;stroke:none;stroke-width:1.48165"
       d="m 341.19948,138.9232 c -4.71607,2.16267 10.95977,14.93365 11.89925,17.95233 17.39342,22.26092 20.9799,53.06919 11.1934,79.06862 -14.25147,38.34988 -30.7855,77.92569 -27.69993,119.81402 2.39517,51.97103 25.34555,99.93937 34.3037,150.52642 3.13431,22.27803 4.65908,46.04652 -5.35943,66.82184 2.46672,4.66175 7.65326,-2.80266 9.81306,-4.66776 18.49619,-18.81563 18.26238,-47.85266 13.40141,-71.99897 -9.93917,-32.06327 -25.33305,-62.49074 -30.06621,-96.01676 -6.468,-37.79029 -6.35015,-77.26336 7.12955,-113.66859 10.95032,-32.37974 22.33799,-66.01764 20.70551,-100.63359 -4.80452,-15.77924 -18.33439,-27.13358 -30.44039,-37.55926 -1.83355,-1.19297 -12.58117,-9.59239 -14.87992,-9.6383 z"
       id="path6908"
       sodipodi:nodetypes="ccccccccccccc"
       inkscape:export-filename="/home/marcel/Documents/walterLogo.png"
       inkscape:export-xdpi="38"
       inkscape:export-ydpi="38" />
    <path
       style="fill:#325b96;fill-opacity:1;stroke:none;stroke-width:0.740825"
       d="m 250.82722,292.93127 c -3.76315,1.06076 -0.87368,5.93808 -0.24782,8.33506 4.1943,9.91153 7.87329,19.99256 6.67863,30.83901 -1.6469,22.00186 -1.26047,45.10962 6.94457,65.9493 1.73644,2.82009 2.82732,7.36517 6.33897,8.29813 3.413,-1.31487 1.11346,-6.4055 2.00254,-9.1243 0.53932,-26.25591 1.91049,-52.53917 1.18359,-78.79517 -1.70605,-7.0924 -7.22367,-12.67997 -11.77507,-18.1531 -3.21869,-2.86308 -6.78873,-6.48376 -11.1254,-7.34893 z"
       id="path6986"
       inkscape:export-filename="/home/marcel/Documents/walterLogo.png"
       inkscape:export-xdpi="38"
       inkscape:export-ydpi="38" />
    <path
       style="fill:#325b96;fill-opacity:1;stroke:none;stroke-width:0.740825"
       d="m 204.53866,98.852421 c -2.85499,1.821739 0.68182,5.548209 1.1286,7.911779 6.16049,15.29742 5.52689,32.50476 1.87522,48.24914 -4.4649,17.65401 -14.7929,32.8547 -25.61403,47.20696 -15.6368,23.05275 -21.42175,51.60983 -19.43087,79.14174 0.71269,4.43031 0.12194,11.29385 3.0875,14.96304 3.90569,1.3123 3.46914,-5.93169 4.22636,-8.30045 4.69598,-23.40939 11.51886,-47.32036 27.27122,-65.9724 10.71367,-12.93913 25.07853,-24.3742 28.87482,-41.59039 3.91409,-16.66415 2.02073,-34.05604 -0.0181,-50.8478 -1.22625,-11.48052 -7.76997,-21.75761 -17.14547,-28.35539 -1.34448,-0.82447 -2.5704,-2.400614 -4.25541,-2.406229 z"
       id="path7025"
       sodipodi:nodetypes="ccccccccccccc"
       inkscape:export-filename="/home/marcel/Documents/walterLogo.png"
       inkscape:export-xdpi="38"
       inkscape:export-ydpi="38" />
    <path
       style="fill:#325b96;fill-opacity:1;stroke:none;stroke-width:0.740825"
       d="m 454.27489,267.2281 c -8.44896,1.69772 -9.75225,11.7846 -10.29537,18.90778 -1.84098,16.804 3.28364,33.19556 9.12647,48.71873 4.10408,10.17307 6.88638,21.03362 12.23787,30.62832 4.10138,4.77281 12.13946,-2.61307 8.72787,-7.5486 -8.20085,-20.82068 -14.77464,-43.06867 -14.50338,-65.80581 -0.65927,-7.35278 0.52534,-15.08919 -1.58788,-22.22071 -0.84582,-1.21281 -2.07025,-2.74098 -3.70558,-2.67971 z"
       id="path7064"
       inkscape:export-filename="/home/marcel/Documents/walterLogo.png"
       inkscape:export-xdpi="38"
       inkscape:export-ydpi="38" />
    <path
       style="fill:#325b96;fill-opacity:1;stroke:none;stroke-width:0.740825"
       d="m 477.08567,427.02064 c -5.15754,2.45528 -8.36232,7.9912 -11.26576,12.73147 -3.04959,6.81767 -1.41797,14.64644 -1.49178,21.88762 2.15289,15.92691 8.6806,31.2142 7.45356,47.53849 -0.55553,21.54705 -11.91689,40.87545 -22.11236,59.27926 -3.02378,5.841 -7.67536,10.67008 -10.41929,16.62516 0.73946,3.72807 5.8345,1.52474 8.26918,0.98681 13.97578,-3.88406 23.54156,-16.09624 28.58207,-29.14172 7.14144,-16.91613 12.10974,-35.14704 10.67577,-53.66639 -0.25099,-17.44653 -7.15703,-33.7576 -9.91278,-50.78206 -1.6224,-8.07663 3.17391,-16.18875 2.10092,-24.30111 -0.30525,-0.73712 -1.07467,-1.24136 -1.87953,-1.15753 z"
       id="path7103"
       inkscape:export-filename="/home/marcel/Documents/walterLogo.png"
       inkscape:export-xdpi="38"
       inkscape:export-ydpi="38" />
    <path
       style="fill:#325b96;fill-opacity:1;stroke:none;stroke-width:0.740825"
       d="m 469.42275,185.19763 c -3.156,1.25551 0.64985,4.63874 1.64786,6.2736 9.3112,11.13523 18.15653,22.96267 23.01727,36.80415 8.90818,22.93451 9.79148,49.04073 24.1311,69.81047 14.13139,21.28035 33.58345,38.25106 50.17672,57.51468 12.11427,12.86375 21.71448,27.85174 29.13055,43.81045 4.18235,8.01584 8.36496,21.34723 12.03767,29.56005 2.20553,2.33623 3.00606,-5.98777 2.36205,-8.07088 -0.86289,-18.2769 -4.16652,-36.54725 -9.99246,-53.89649 -7.15762,-15.45954 -20.37415,-27.43136 -34.85894,-35.99779 -12.91291,-9.52526 -24.84885,-21.27294 -32.43028,-35.60471 -11.45342,-22.55136 -14.24882,-48.35846 -25.31536,-71.03819 -8.722,-16.52995 -22.10841,-31.31604 -39.28545,-39.12628 -0.20418,-0.0373 -0.41318,-0.0592 -0.62073,-0.0391 z"
       id="path7142"
       sodipodi:nodetypes="sccccccccccccss"
       inkscape:export-filename="/home/marcel/Documents/walterLogo.png"
       inkscape:export-xdpi="38"
       inkscape:export-ydpi="38" />
    <path
       style="fill:#325b96;fill-opacity:1;stroke:none;stroke-width:0.740825"
       d="m 609.25206,125.19802 c -4.34565,0.62676 -1.93302,6.11069 -0.55994,8.46016 10.79794,18.84707 10.72946,41.73849 21.91367,60.42356 15.26206,28.21187 34.01025,54.57786 46.57669,84.18665 5.12354,12.5306 8.44863,25.81331 8.15497,39.32368 0.74892,25.23731 -0.59162,50.53403 0.96334,75.73981 0.12001,8.81911 9.29158,13.14177 16.83205,14.27247 2.53102,0.76329 5.43339,-0.87171 4.75317,-3.78372 -1.02625,-17.87199 -2.03105,-35.69829 -1.98885,-53.61257 -0.93095,-19.08976 -1.09944,-38.61504 -6.69454,-57.04462 -8.22749,-23.60512 -18.4197,-46.64907 -31.17215,-68.16961 -9.57834,-12.38462 -15.89203,-26.80415 -23.67642,-40.3023 -7.8574,-14.26538 -7.91006,-31.49108 -16.95322,-45.28182 -3.93224,-6.83447 -9.8069,-13.4647 -18.14877,-14.21169 z"
       id="path7181"
       inkscape:export-filename="/home/marcel/Documents/walterLogo.png"
       inkscape:export-xdpi="38"
       inkscape:export-ydpi="38" />
    <path
       style="fill:#325b96;fill-opacity:1;stroke:none;stroke-width:1.04768"
       d="m 859.80568,207.95321 c -11.66299,0.84483 -19.41564,11.91538 -20.34597,22.88537 -4.37125,37.64826 20.98313,69.33388 36.28844,101.47286 10.85531,19.8593 16.74386,41.8403 19.28098,64.29542 2.90155,22.91352 7.20962,46.77778 21.75143,65.50507 3.18984,3.27134 5.2611,9.42031 9.9542,10.42884 5.84176,-3.49261 12.15345,-7.4816 16.17159,-12.97944 -3.80745,-6.31776 -12.01624,-9.04705 -16.8501,-14.73392 -16.21924,-15.26129 -18.50809,-38.67134 -21.36584,-59.49691 -1.08223,-21.08837 -5.26187,-42.36389 -16.18481,-60.71155 -11.93683,-22.96357 -31.08268,-44.35912 -30.64385,-71.69713 -0.20506,-12.37626 0.15143,-25.00375 5.62719,-36.39683 1.59446,-2.87702 2.74461,-8.54954 -2.16697,-8.56564 -0.50418,-0.0449 -1.01164,-0.0375 -1.51629,-0.006 z"
       id="path7220"
       inkscape:export-filename="/home/marcel/Documents/walterLogo.png"
       inkscape:export-xdpi="38"
       inkscape:export-ydpi="38" />
    <path
       style="fill:#325b96;fill-opacity:1;stroke:none;stroke-width:0.261921"
       d="m 944.13565,145.80625 c -2.4636,0.16118 -5.21248,0.96877 -6.79666,2.95275 -1.77004,3.72749 -0.60413,8.02445 0.0607,11.88264 2.37923,10.97594 7.18761,21.18891 11.95988,31.28373 3.54112,7.61513 6.02217,15.68915 7.60413,23.93666 0.59097,1.88971 0.66372,4.98304 3.13873,5.36322 2.47551,-0.21682 4.22424,-2.3881 6.0067,-3.9059 2.89908,-3.22618 4.77005,-7.49445 5.07483,-11.83035 0.002,-5.73651 -2.3045,-11.16502 -4.41923,-16.39933 -4.37603,-10.11418 -10.36053,-19.7431 -12.41318,-30.70693 -0.13127,-3.12325 -0.59571,-6.42297 -2.65414,-8.92238 -1.79037,-2.29053 -4.62903,-3.76217 -7.56193,-3.65411 z"
       id="path7259"
       inkscape:export-filename="/home/marcel/Documents/walterLogo.png"
       inkscape:export-xdpi="38"
       inkscape:export-ydpi="38" />
    <path
       style="fill:#325b96;fill-opacity:1;stroke:none;stroke-width:0.261921"
       d="m 1030.9845,185.31032 c -1.6801,0.13261 -1.4173,2.24377 -0.3642,3.01875 4.3657,4.8282 8.641,9.81571 11.3835,15.73484 5.2238,10.81913 7.7696,22.91216 6.5734,34.92477 -0.5234,5.73638 -2.4885,11.45258 -6.0492,15.95024 -1.2698,2.01619 -3.2545,3.98404 -3.3108,6.48869 0.6561,2.31388 3.6386,2.0594 5.3637,1.21701 6.1521,-2.45986 9.6706,-8.53802 12.4216,-14.21239 3.8311,-8.29783 5.6585,-17.50586 5.1214,-26.64024 -0.2453,-6.30894 -1.7933,-12.69067 -4.9578,-18.18314 -4.6529,-6.88817 -11.7881,-11.60921 -19.147,-15.20356 -2.3164,-1.0167 -4.5256,-2.66056 -7.0346,-3.09497 z"
       id="path7298"
       inkscape:export-filename="/home/marcel/Documents/walterLogo.png"
       inkscape:export-xdpi="38"
       inkscape:export-ydpi="38" />
    <path
       style="fill:#325b96;fill-opacity:1;stroke:none;stroke-width:0.523843"
       d="m 1063.5999,285.57501 c -2.6208,-0.46509 -4.575,2.14249 -3.4551,4.51303 3.3328,6.76036 8.9946,12.1384 12.1322,19.05786 4.6466,9.41485 7.8555,19.76284 7.1988,30.30713 0.1408,6.07464 -0.3288,12.23751 0.4982,18.2598 2.1111,2.15678 3.361,-1.89708 4.2003,-3.31727 6.6422,-12.78202 11.7439,-27.40096 8.862,-41.94905 -2.332,-13.82605 -14.5059,-25.01901 -28.2844,-26.83057 -0.3831,-0.0314 -0.7677,-0.046 -1.152,-0.0409 z"
       id="path7337"
       inkscape:export-filename="/home/marcel/Documents/walterLogo.png"
       inkscape:export-xdpi="38"
       inkscape:export-ydpi="38" />
    <path
       style="fill:#325b96;fill-opacity:1;stroke:none;stroke-width:0.523843"
       d="m 1108.0426,383.34328 c -4.3276,-0.0119 -8.9074,1.32785 -12.2561,4.06182 -0.5802,2.84652 3.5086,2.57378 5.3111,3.33641 10.1655,3.98727 17.367,13.21523 22.3472,22.60199 6.4731,13.97602 4.2739,29.66697 4.6818,44.53275 0.069,2.60127 3.2113,1.53295 4.026,-0.0459 6.4185,-8.08928 9.2952,-18.5019 10.6356,-28.59414 1.3713,-12.09815 0.7087,-25.87646 -7.8281,-35.40878 -5.6702,-5.39261 -13.2432,-8.70582 -20.879,-10.14023 -1.9983,-0.28952 -4.0213,-0.37092 -6.0385,-0.34378 z"
       id="path7376"
       inkscape:export-filename="/home/marcel/Documents/walterLogo.png"
       inkscape:export-xdpi="38"
       inkscape:export-ydpi="38" />
    <path
       style="fill:#325b96;fill-opacity:1;stroke:none;stroke-width:0.523843"
       d="m 1145.6088,296.06005 c -3.0489,-0.078 -7.0576,2.08776 -5.9362,5.67531 2.5201,9.92463 5.9748,19.60766 7.5303,29.7393 2.5938,14.6551 12.4136,27.40683 25.392,34.48666 9.1544,4.69316 18.9531,10.76802 22.2265,21.16547 2.4151,5.27953 0.1289,11.15863 1.3638,16.5655 1.8594,2.26539 3.5377,-1.431 3.8224,-3.03051 2.6493,-8.66199 4.7716,-18.26344 2.0719,-27.1641 -4.0648,-10.56064 -15.5241,-14.85455 -24.6576,-19.96497 -7.4412,-3.74985 -14.7613,-9.42724 -16.8856,-17.89902 -2.6555,-11.26473 -0.2477,-23.78858 -6.1981,-34.26462 -1.8365,-3.04838 -5.0454,-5.43484 -8.7294,-5.30902 z"
       id="path7415"
       inkscape:export-filename="/home/marcel/Documents/walterLogo.png"
       inkscape:export-xdpi="38"
       inkscape:export-ydpi="38" />
    <path
       style="fill:#325b96;fill-opacity:1;stroke:none;stroke-width:0.523843"
       d="m 1076.8535,168.02557 c -2.8456,1.07886 -1.5691,5.0402 -1.4938,7.35528 2.4887,12.50591 7.7429,24.27239 12.4545,36.06326 1.9316,4.02091 3.3337,8.51309 5.9537,12.06068 3.0639,-1.20407 4.5892,-5.04432 5.6908,-8.09242 1.7037,-6.55877 -2.3767,-12.84323 -4.6632,-18.73501 -4.6453,-9.3558 -8.836,-19.18096 -15.4599,-27.3473 -0.6592,-0.65578 -1.4805,-1.38663 -2.4821,-1.30449 z"
       id="path7454"
       inkscape:export-filename="/home/marcel/Documents/walterLogo.png"
       inkscape:export-xdpi="38"
       inkscape:export-ydpi="38" />
    <path
       style="fill:#325b96;fill-opacity:1;stroke:none;stroke-width:0.523843"
       d="m 1183.9056,218.90889 c -2.6505,-0.0537 -7.4819,0.93093 -6.4508,4.57441 2.2833,3.38972 6.884,4.07091 9.8865,6.72094 14.9041,11.36761 26.7373,26.38615 42.2645,36.99024 8.4091,4.23267 18.2092,3.78687 27.382,4.18622 8.6216,-0.21437 17.5743,0.27683 25.8699,-2.42439 6.4319,-2.78248 12.4623,-7.72533 15.2129,-14.28801 0.9913,-2.49256 -1.8671,-4.40093 -4.0793,-3.40702 -8.9867,2.58099 -17.7569,6.68786 -27.3219,6.46734 -10.2916,-0.14247 -21.1682,1.30898 -30.7703,-3.21993 -11.2333,-6.1915 -18.8403,-17.01586 -28.5717,-25.21903 -6.4448,-5.91652 -14.2414,-11.18509 -23.4218,-10.38077 z"
       id="path7530"
       inkscape:export-filename="/home/marcel/Documents/walterLogo.png"
       inkscape:export-xdpi="38"
       inkscape:export-ydpi="38" />
    <path
       style="fill:#325b96;fill-opacity:1;stroke:none;stroke-width:0.523843"
       d="m 1127.1649,85.514227 c -2.784,-0.08523 -2.9232,3.57209 -0.8185,4.727881 5.4229,4.735178 11.9295,8.212244 16.543,13.881832 13.408,15.32653 22.5467,34.04758 28.2537,53.36237 2.3489,7.56057 2.9876,15.52503 3.1821,23.46071 -0.2995,1.88916 1.6416,4.79836 3.4775,2.79996 4.1232,-5.35394 3.0197,-12.70763 3.2095,-19.02491 0.041,-13.65765 -3.3042,-27.20914 -9.7084,-39.27303 -8.2052,-16.84935 -21.7295,-31.942153 -39.4284,-38.921915 -1.5115,-0.530893 -3.0867,-1.070339 -4.7105,-1.012898 z"
       id="path7569"
       inkscape:export-filename="/home/marcel/Documents/walterLogo.png"
       inkscape:export-xdpi="38"
       inkscape:export-ydpi="38" />
    <g
       id="g4820"
       style="fill-opacity:1;fill:#598bc9">
      <path
         style="fill:#598bc9;fill-opacity:1;stroke:none;stroke-width:0.185206"
         d="m 459.17853,629.0836 c -4.5377,0.1369 -9.21844,-0.0803 -13.59313,1.32504 -3.19326,0.92434 -5.21793,4.52952 -4.28831,7.73164 1.16294,4.08897 5.23481,6.3572 8.97237,7.6951 5.01639,1.81537 10.43366,1.24076 15.63402,1.87956 2.08981,0.32561 2.22321,2.86083 2.36353,4.53213 0.30276,7.14484 -0.0178,14.38896 1.25223,21.48254 1.1761,6.58303 3.01279,13.43012 7.49842,18.58351 2.70742,3.17361 6.88971,4.29625 10.70869,5.50952 1.69299,0.4613 4.22567,0.87725 5.22448,-1.00418 1.12333,-2.51157 -0.52397,-5.0582 -1.27348,-7.41604 -4.13745,-10.83504 -10.27993,-21.16926 -12.00315,-32.66411 -0.42695,-3.53344 -0.6865,-7.21608 0.49123,-10.64901 0.77961,-2.06272 2.66398,-3.47817 4.79109,-3.9224 1.93827,-0.77262 4.30198,-1.45042 5.36885,-3.40083 0.55473,-2.08237 -0.67192,-4.32571 -2.26986,-5.63072 -3.42916,-2.54956 -7.88842,-2.89799 -11.99209,-3.39846 -5.61071,-0.5101 -11.25319,-0.65012 -16.88489,-0.65329 z"
         id="path9385"
         inkscape:export-filename="/home/marcel/Documents/walterLogo.png"
         inkscape:export-xdpi="38"
         inkscape:export-ydpi="38" />
      <path
         style="fill:#598bc9;fill-opacity:1;stroke:none;stroke-width:0.185206"
         d="m 522.31216,619.72309 c -2.01033,-0.1209 -4.69947,0.61033 -5.13042,2.8801 -0.32466,2.86835 2.14685,4.96198 3.85081,6.91021 2.53359,2.66664 5.56849,5.27443 6.29936,9.07469 0.35695,2.3333 0.23173,5.04049 -1.62452,6.75244 -2.52781,2.55668 -6.46909,2.55644 -9.78013,2.03221 -3.59212,-0.80172 -6.38337,-3.65897 -7.76927,-6.98323 -2.18793,-4.3637 -2.17886,-9.81667 -5.75622,-13.44518 -1.30166,-1.59307 -3.52111,-2.01815 -5.42633,-1.40677 -1.90766,0.33945 -2.65388,2.41661 -2.44965,4.1422 0.48999,4.59202 2.38472,8.88593 3.88338,13.21362 5.06253,13.38811 10.51456,26.64485 14.43848,40.40532 0.94502,3.06014 3.20712,6.1639 6.61082,6.54887 2.12268,0.10756 4.63256,0.4599 6.40518,-0.97668 1.61132,-1.63456 0.45478,-4.05033 -0.18876,-5.84982 -1.70029,-5.30582 -2.41995,-10.94955 -1.96171,-16.50082 0.10312,-1.74147 1.03034,-3.5786 2.88264,-3.95191 1.86487,-0.46053 3.99702,-0.95054 5.83581,-0.18254 1.76076,1.19062 1.91103,3.59964 2.44505,5.47902 1.03674,4.5359 1.26983,9.41604 3.60817,13.54009 1.30785,2.36104 4.18821,3.24621 6.73695,2.85514 2.36175,-0.0637 5.19217,-1.11476 5.69934,-3.71461 0.76305,-4.25904 -0.87624,-8.46805 -2.04521,-12.49891 -3.61031,-10.7991 -7.54266,-21.49741 -11.87548,-32.02818 -2.16564,-4.84862 -4.14602,-9.97812 -7.79186,-13.94133 -1.44194,-1.5285 -3.46018,-2.59099 -5.60825,-2.35567 -0.42938,-0.003 -0.85877,-6.3e-4 -1.28815,0.002 z"
         id="path9424"
         inkscape:export-filename="/home/marcel/Documents/walterLogo.png"
         inkscape:export-xdpi="38"
         inkscape:export-ydpi="38" />
      <path
         style="fill:#598bc9;fill-opacity:1;stroke:none;stroke-width:0.185206"
         d="m 561.96442,595.73817 c -3.19041,0.27795 -5.57578,2.77264 -7.85367,4.77524 -5.60873,5.516 -10.98815,11.36586 -15.27368,17.98738 -0.79417,1.56365 -2.09114,3.10225 -2.06252,4.92895 1.398,5.25515 4.2692,9.96413 6.8137,14.72458 4.93961,8.65222 10.05821,17.25572 16.17882,25.13555 2.25172,2.64824 4.72054,5.74267 8.34315,6.39226 3.29768,0.26729 6.14022,-1.87927 8.84829,-3.45018 4.2724,-2.84568 8.88431,-5.54294 11.98816,-9.73743 2.48935,-3.44893 2.16255,-7.96853 1.64478,-11.96066 -0.5264,-2.95568 -1.02151,-6.41089 -3.58512,-8.34512 -2.50835,-1.63403 -5.63709,-0.0578 -7.56389,1.76725 -3.22117,2.74757 -5.8225,6.13059 -8.97121,8.94505 -0.6479,0.59761 -1.8211,1.05265 -2.4337,0.13809 -2.27982,-2.4599 -4.48706,-5.14773 -5.72513,-8.29739 -0.64399,-1.47691 0.14194,-3.13049 1.53445,-3.84586 3.95895,-2.55541 8.97528,-3.34545 12.31667,-6.87252 1.95957,-1.73415 3.02719,-4.45559 2.39278,-7.04406 -0.44414,-2.99264 -2.73563,-6.23298 -6.04416,-6.13605 -2.58584,0.11379 -4.19838,2.40368 -5.49325,4.35235 -2.28189,2.29955 -5.87658,4.08251 -9.08741,2.72312 -1.65272,-0.64982 -1.86848,-2.71151 -1.1467,-4.14003 1.26909,-3.43985 4.71698,-5.20607 7.77377,-6.77543 2.64081,-1.3596 5.4576,-3.63171 5.42074,-6.88171 -0.17869,-3.11461 -2.62341,-5.50003 -4.91233,-7.34531 -0.89859,-0.64908 -1.98064,-1.07926 -3.10254,-1.03816 z"
         id="path9463"
         inkscape:export-filename="/home/marcel/Documents/walterLogo.png"
         inkscape:export-xdpi="38"
         inkscape:export-ydpi="38" />
      <path
         style="fill:#598bc9;fill-opacity:1;stroke:url(#linearGradient1765);stroke-width:6.969;stroke-dasharray:none;stroke-opacity:1"
         d="m 655.41263,561.78853 c -6.68067,0.60579 -13.26302,2.84263 -19.02993,6.24927 -3.9654,2.46094 -7.45688,6.7176 -6.87003,11.65787 -0.23943,3.68966 0.12298,7.31031 1.36505,10.80799 3.94865,14.2388 7.03656,28.85635 13.13243,42.38311 1.682,3.05457 3.45082,6.89048 6.98287,8.06877 3.4729,0.15261 4.1635,-4.02946 4.67141,-6.64573 1.40359,-6.53162 0.1292,-13.32496 1.66104,-19.81346 0.62692,-3.20446 4.40581,-3.65396 6.98433,-3.13402 5.75597,0.90173 8.28219,6.90553 9.76022,11.85735 1.13041,4.03039 2.47714,9.40629 7.34893,10.21693 3.87798,0.59752 9.2842,-1.4137 9.40066,-5.95194 -0.28448,-4.56001 -4.40857,-7.48888 -5.9259,-11.55586 -3.28959,-6.45733 -2.81252,-14.14784 -6.23768,-20.52101 -1.62114,-2.99101 -5.23213,-3.78849 -8.3652,-3.28387 -3.6368,0.0329 -7.70553,1.46405 -11.10968,-0.45715 -1.17272,-1.53671 0.83894,-3.42477 1.60466,-4.70323 3.19213,-4.12661 8.53226,-7.93222 8.00654,-13.77325 -0.95125,-6.19374 -6.92932,-11.83293 -13.37972,-11.40177 z m -7.42778,12.18311 c 2.92869,-0.31447 6.31047,1.6473 5.77758,4.97162 -0.32543,4.47254 -4.56271,7.08803 -7.95228,9.3095 -2.43009,1.42674 -3.82323,-1.87609 -4.2858,-3.7193 -1.06856,-3.67511 -0.35361,-8.66798 3.70194,-10.14874 0.88211,-0.31541 1.8264,-0.41492 2.75856,-0.41308 z"
         id="path9502"
         inkscape:export-filename="/home/marcel/Documents/walterLogo.png"
         inkscape:export-xdpi="38"
         inkscape:export-ydpi="38" />
      <path
         style="fill:#598bc9;fill-opacity:1;stroke:none;stroke-width:0.370413"
         d="m 709.64834,554.28342 c -7.09432,0.10194 -12.14414,6.32609 -14.36649,12.51589 -3.4887,8.65758 -2.60466,18.16978 -2.63903,27.28812 0.28151,7.95697 0.75997,16.29078 4.337,23.54885 1.28228,3.03027 5.4976,4.712 8.07526,2.23332 3.63769,-3.33528 1.75489,-8.65127 2.07564,-12.91448 0.0827,-5.30395 1.93436,-11.41893 6.78967,-14.20378 3.17268,-1.54252 6.07986,1.68013 6.73905,4.5484 2.00108,6.21238 0.32626,13.65249 4.80813,18.99233 1.88321,2.3392 6.22987,3.53945 8.35455,0.96292 1.66084,-4.07857 0.22136,-8.66315 0.006,-12.8927 -1.39658,-10.557 -2.34646,-21.21732 -4.62337,-31.62986 -1.96082,-7.39533 -6.27373,-15.22701 -14.08004,-17.57436 -1.76215,-0.57953 -3.61712,-0.9143 -5.47588,-0.87465 z m 0.59542,13.33847 c 4.67938,0.19232 6.27606,6.30173 3.8973,9.75806 -1.10857,1.67024 -2.68824,3.86184 -4.81536,3.99711 -3.86118,-2.31923 -6.24871,-7.84602 -3.43862,-11.85608 1.02255,-1.3042 2.7367,-1.91654 4.35668,-1.89909 z"
         id="path9541"
         inkscape:export-filename="/home/marcel/Documents/walterLogo.png"
         inkscape:export-xdpi="38"
         inkscape:export-ydpi="38" />
      <path
         style="fill:#598bc9;fill-opacity:1;stroke:none;stroke-width:0.370413"
         d="m 755.11288,561.60485 c -3.21077,-0.24862 -5.91946,2.30272 -6.17114,5.4549 -1.77771,11.37244 -1.86285,22.97848 -1.23638,34.4527 0.0886,3.6294 1.0542,7.53458 4.28435,9.65245 6.05618,4.30731 13.02646,7.3956 20.22509,9.21184 8.21643,1.88996 18.03269,-0.38541 22.79557,-7.82353 2.76497,-3.65117 3.67239,-9.1152 1.0085,-13.05198 -3.73476,-4.35747 -9.71266,-5.64882 -14.83241,-7.69616 -2.98082,-1.26281 -6.64485,-1.75783 -8.91883,-4.19465 -0.006,-2.34536 3.24535,-2.39929 4.93917,-2.7812 6.34802,-0.30039 12.67778,-2.0875 17.84625,-5.8866 2.0586,-1.51955 5.26489,-4.23971 3.56378,-7.07547 -2.63743,-2.38736 -6.51739,-2.72159 -9.77492,-3.8875 -10.75347,-2.76102 -21.61713,-5.53701 -32.71751,-6.38114 -0.33711,-0.009 -0.67454,-0.006 -1.01152,0.006 z m 13.51573,8.95068 c 2.97512,-0.35133 4.73127,2.67106 4.10275,5.30804 -0.61204,4.20149 -6.72924,5.14906 -9.63796,2.81499 -3.02769,-2.18253 -1.48482,-7.16002 2.09008,-7.68896 1.11423,-0.33044 2.28485,-0.46219 3.44513,-0.43407 z m -0.26255,31.88657 c 3.64261,0.1452 8.10013,1.02311 10.07496,4.41748 0.83565,2.58412 -2.5098,3.81125 -4.51441,3.98988 -4.06684,0.3147 -8.77161,0.23825 -12.14405,-2.33677 -1.56457,-2.53816 0.75744,-5.23073 3.30117,-5.64227 1.06709,-0.29693 2.17655,-0.42124 3.28233,-0.42832 z"
         id="path9580"
         inkscape:export-filename="/home/marcel/Documents/walterLogo.png"
         inkscape:export-xdpi="38"
         inkscape:export-ydpi="38" />
      <path
         style="fill:#598bc9;fill-opacity:1;stroke:none;stroke-width:0.370413"
         d="m 832.44955,569.01456 c -4.70738,-0.11409 -10.47841,1.01413 -12.49494,5.86798 -3.30974,8.15116 -4.09632,17.05176 -5.96275,25.59157 -0.92183,5.69508 -2.51531,11.29228 -3.18324,17.01818 0.39815,4.33442 5.16791,6.29319 8.76328,7.48062 10.1128,2.84998 21.1914,2.18117 31.00182,-1.49685 5.2355,-2.16881 10.43097,-6.19671 11.71935,-11.96534 0.28063,-4.37834 -0.12387,-9.70004 -3.75332,-12.68737 -4.66755,-2.88958 -10.41843,-1.21685 -15.51753,-2.30856 -2.50891,-0.55669 -5.7694,-0.68289 -7.41041,-2.90107 0.8008,-1.84472 3.5879,-1.90674 5.17472,-2.80017 4.94219,-1.77419 11.09223,-4.21035 12.25565,-10.0044 0.90976,-4.64406 -3.69331,-7.95383 -7.4466,-9.51353 -4.11339,-1.91533 -8.66579,-2.33174 -13.14603,-2.28106 z m 1.95696,7.5023 c 2.69773,-0.08 6.03165,1.58321 6.48006,4.39212 -2.26918,2.95156 -6.13024,4.15665 -9.6937,4.59762 -2.18327,0.17661 -5.43025,-1.09159 -4.46448,-3.85751 0.75244,-3.35961 4.49423,-5.10588 7.67812,-5.13223 z m -3.84592,31.47856 c 3.8119,0.20891 8.93278,1.16834 10.30355,5.29138 0.61625,3.42505 -3.5346,4.76778 -6.0988,5.55839 -2.32954,0.89097 -5.24507,1.06278 -6.95223,-1.09613 -1.95371,-1.82326 -4.55027,-4.70738 -3.16611,-7.54782 1.38238,-1.74879 3.80849,-2.19605 5.91359,-2.20582 z"
         id="path9695"
         inkscape:export-filename="/home/marcel/Documents/walterLogo.png"
         inkscape:export-xdpi="38"
         inkscape:export-ydpi="38" />
      <path
         style="fill:#598bc9;fill-opacity:1;stroke:none;stroke-width:0.370413"
         d="m 875.36315,560.06097 c -4.08289,-0.27855 -7.06824,4.72501 -4.82549,8.13678 2.10687,2.95382 6.42517,0.81876 7.9711,-1.64804 1.754,-2.00316 1.2981,-5.82004 -1.67845,-6.32232 -0.4781,-0.12446 -0.97383,-0.17335 -1.46716,-0.16654 z"
         id="path9734"
         inkscape:export-filename="/home/marcel/Documents/walterLogo.png"
         inkscape:export-xdpi="38"
         inkscape:export-ydpi="38" />
      <path
         style="fill:#598bc9;fill-opacity:1;stroke:none;stroke-width:0.370413"
         d="m 934.92435,535.62316 c -3.32871,0.79565 -5.37188,3.98004 -8.41839,5.42382 -9.76235,6.08582 -20.74017,10.04002 -30.21017,16.60124 -2.46289,1.65587 -4.22143,4.46368 -3.61946,7.51677 0.43706,5.67893 6.09604,9.85327 11.5775,9.88246 3.68759,0.63347 7.83976,-0.43119 11.2072,1.47735 3.09822,3.20393 3.79466,7.94269 5.50371,11.91935 1.76749,4.54271 2.99753,9.35591 5.23971,13.68399 2.87087,3.4886 8.2541,2.55964 11.30988,-0.18313 2.45764,-1.89906 5.22655,-5.52875 3.07182,-8.62294 -4.64687,-5.72178 -9.55362,-11.28813 -13.25339,-17.70996 -1.65616,-3.1216 -4.02429,-6.2488 -4.34844,-9.89592 1.64099,-4.80851 7.25413,-6.03888 11.09718,-8.5354 4.9154,-2.77572 8.90904,-8.36353 7.4994,-14.21602 -0.79517,-3.08166 -3.01229,-6.10209 -5.99171,-7.30335 -0.21869,-0.0412 -0.44274,-0.0528 -0.66484,-0.0382 z"
         id="path9773"
         inkscape:export-filename="/home/marcel/Documents/walterLogo.png"
         inkscape:export-xdpi="38"
         inkscape:export-ydpi="38" />
      <path
         style="fill:#598bc9;fill-opacity:1;stroke:none;stroke-width:0.523843"
         d="m 877.6593,581.82331 c -3.03321,-0.0471 -7.1265,0.69204 -7.50874,4.39537 -1.31769,11.55993 0.56033,23.56272 5.14942,34.24927 1.35319,2.71667 3.01853,5.6052 5.61901,7.21718 4.25622,-2.48506 8.26835,-6.21473 13.48076,-6.51325 3.50995,-1.55499 1.29153,-5.70397 0.29672,-8.15026 -3.97076,-9.66999 -6.5163,-20.10849 -12.19366,-28.97608 -1.06086,-1.61342 -2.95868,-2.35229 -4.84351,-2.22223 z"
         id="path10176"
         inkscape:export-filename="/home/marcel/Documents/walterLogo.png"
         inkscape:export-xdpi="38"
         inkscape:export-ydpi="38" />
    </g>
    <path
       style="fill:#ff9e00;fill-opacity:1;stroke:none;stroke-width:1.04768"
       d="m 760.61733,88.498695 c -22.63983,-1.324625 -44.45509,8.462743 -62.45293,21.454145 -15.17323,10.28095 -17.3691,30.0659 -17.75433,46.85615 1.19244,12.80245 -4.83346,24.37762 -11.36082,34.87236 -4.373,7.55615 -6.9167,19.45417 2.06261,24.79658 7.95806,3.68163 17.6042,0.42394 25.0585,-3.23923 15.10913,-7.44694 26.0382,-22.64393 42.93874,-26.36196 11.25968,-2.52128 20.24349,6.22056 26.20441,14.6287 11.38135,16.28463 19.7034,35.67917 18.56066,55.80354 -0.19617,39.715 -5.25959,79.44762 -2.59576,119.15579 1.39909,6.76851 10.7852,5.84473 15.60889,3.5789 4.91289,-3.19497 11.43434,-9.36477 17.34204,-4.35854 6.18645,3.60802 9.5893,10.28259 9.3165,17.33578 2.14021,32.88743 1.14454,65.97891 1.46319,98.95318 6.4562,3.40019 15.09437,3.06993 22.44436,4.78621 16.14549,2.90818 33.67887,2.83081 48.13643,-5.89629 6.21155,-4.04081 14.27066,-6.50678 18.74255,-12.61418 0.86979,-7.80009 -5.50827,-14.39097 -8.48592,-21.16054 -10.09937,-15.31624 -14.35965,-33.34597 -16.78662,-51.31234 -3.93067,-25.75956 -7.29589,-52.52066 -21.23656,-75.17735 -16.21862,-28.50289 -36.43577,-57.51375 -35.72475,-91.63029 0.75979,-12.84076 4.95342,-28.88325 18.10612,-34.17348 10.91793,-4.01166 23.85247,-2.12499 32.42305,6.03308 11.26555,6.88895 21.65224,16.4814 34.75362,19.59429 9.64291,0.22331 19.95282,1.6227 29.17556,-1.70659 8.76871,-8.67656 0.275,-22.59131 -2.16466,-32.38714 -5.73908,-14.58064 -11.59291,-29.25581 -13.81254,-44.87349 -3.4099,-8.50167 -14.67969,-7.64385 -22.02402,-10.01516 -45.40556,-8.15448 -83.69559,-35.8001 -126.61835,-51.080028 -6.85646,-2.347637 -14.19975,-1.784634 -21.31997,-1.862097 z"
       id="path17900"
       inkscape:export-filename="/home/marcel/Documents/walterLogo.png"
       inkscape:export-xdpi="38"
       inkscape:export-ydpi="38" />
    <path
       style="fill:#325b96;fill-opacity:1;stroke:none;stroke-width:1.04768"
       d="m 807.1554,384.75825 c -4.72691,-0.53055 -5.28564,4.67843 -4.05566,8.09091 2.06397,21.10054 -1.40362,42.68934 2.45406,63.65523 3.01575,11.55444 4.65173,23.63914 8.33994,34.92129 3.56186,2.91497 5.70347,-3.47646 5.51672,-6.23289 1.72541,-15.22375 -1.67823,-30.44072 -4.23983,-45.2019 -0.34603,-16.08337 6.0542,-32.40772 2.4596,-48.43702 -1.68372,-4.07214 -6.06887,-6.92855 -10.47483,-6.79562 z"
       id="path25934"
       inkscape:export-filename="/home/marcel/Documents/walterLogo.png"
       inkscape:export-xdpi="38"
       inkscape:export-ydpi="38" />
    <path
       style="fill:#ffffff;stroke:none;stroke-width:3.53553;stop-color:#000000;stroke-opacity:1;fill-opacity:1"
       d="m 101.15563,8.802927 c -1.881982,1.37608 -2.918221,3.750184 -4.959415,4.95907 -1.502204,0.431064 -2.769106,-0.964237 -3.935651,-1.686211 -1.327967,-0.847518 -2.530552,-2.02513 -4.008597,-2.5750744 -0.998673,0.2667715 -0.272431,1.5147694 -0.07078,2.1278804 0.896032,2.415778 2.439708,4.653769 2.667878,7.266489 -0.152596,1.697118 -1.947564,2.512115 -3.204689,3.356621 -1.641537,1.060925 -3.619336,1.738838 -4.97883,3.169616 -0.337316,0.920108 0.992931,0.870488 1.556464,0.816211 3.954047,-0.09497 7.902886,-1.122495 11.82056,-0.689499 1.347378,0.326931 2.125068,2.233904 3.65914,1.780198 1.40676,-0.819924 0.81646,-2.747542 1.08701,-4.074808 0.0215,-0.762588 0.13251,-1.601813 0.93453,-1.946649 1.31004,-1.0174 3.04321,-1.425044 4.25265,-2.554976 0.125,-0.887742 -1.17861,-1.041574 -1.72929,-1.474491 -1.0852,-0.630566 -3.01562,-1.011037 -2.80579,-2.656283 -0.0424,-1.769188 0.38094,-3.661824 0.25964,-5.4755891 -0.0663,-0.2266303 -0.30374,-0.3992352 -0.54483,-0.3425049 z"
       id="path1512"
       transform="scale(3)" />
    <path
       style="fill:#ffffff;fill-opacity:1;stroke:none;stroke-width:7.07107;stroke-opacity:1;stop-color:#000000"
       d="m 322.8999,14.30303 c -0.86103,1.410728 -0.0895,3.470729 -0.22626,5.083982 -0.0421,1.586138 0.8285,4.737299 -1.681,4.768557 -1.98049,0.386426 -4.41118,-0.346788 -6.14989,0.783756 0.30331,1.306569 2.37141,1.293494 3.37562,1.877383 1.30435,0.619293 3.98452,1.00654 3.7645,2.918375 -1.60132,3.318201 -4.78821,5.956617 -5.45246,9.684049 0.52471,1.61234 2.24761,-0.219135 2.9464,-0.735692 2.44172,-1.778191 4.78816,-4.08855 7.75481,-4.888708 2.72193,0.673112 5.22896,2.265868 8.15175,2.06884 0.80488,-0.169304 2.62977,0.571659 2.89127,-0.50409 -2.50109,-2.004363 -5.82931,-2.980047 -8.18076,-5.283966 -0.95356,-0.713978 -1.83127,-2.084006 -0.53793,-2.981725 1.80224,-2.487036 4.44387,-4.427374 5.98141,-7.04828 -1.08877,-0.944436 -2.90966,0.315106 -4.19568,0.225113 -1.84163,0.675243 -3.69131,-0.236267 -4.68113,-1.856845 -1.24465,-1.29587 -2.18146,-3.250988 -3.76065,-4.110749 z"
       id="path2758"
       transform="scale(3)" />
    <path
       style="fill:#ffffff;fill-opacity:1;stroke:none;stroke-width:7.07107;stroke-opacity:1;stop-color:#000000"
       d="m 410.90569,146.532 c -1.67282,1.37373 -1.76875,3.97649 -2.47797,5.9155 -0.50295,1.15614 -0.52547,3.78317 -2.44278,3.18159 -3.05648,-0.41764 -5.98055,-1.76961 -9.05151,-1.93073 -0.5153,1.23797 1.06801,2.52869 1.50042,3.65284 1.193,2.42321 3.66826,4.51505 3.71725,7.34253 -2.60677,3.97371 -6.80164,7.05239 -8.30781,11.71284 -0.12757,1.49048 1.63607,0.21546 2.18415,-0.15399 3.47689,-1.98843 6.57322,-4.75182 10.27308,-6.27212 2.32738,0.3446 3.14219,3.21362 4.43737,4.82407 1.11131,1.22696 1.6035,3.78883 3.52379,3.88218 1.56252,-1.18972 0.53904,-3.67429 0.47923,-5.3254 -0.32933,-3.28776 -1.98117,-6.70817 -0.98815,-9.92849 1.16161,-1.21204 3.12751,-1.25821 4.2835,-2.59531 0.79502,-0.8555 2.51191,-1.5613 2.52033,-2.8385 -2.35244,-0.31278 -4.85754,1.74802 -7.19329,0.8169 -1.19529,-1.61767 -0.73209,-4.0005 -1.16993,-5.9199 -0.44202,-2.04987 -0.0351,-4.52583 -1.0895,-6.34813 -0.0629,-0.0245 -0.13211,-0.0284 -0.19818,-0.0159 z"
       id="path2797"
       transform="scale(3)" />
    <path
       style="fill:#ffffff;fill-opacity:1;stroke:none;stroke-width:7.07107;stroke-opacity:1;stop-color:#000000"
       d="m 37.549856,172.33518 c -1.083866,0.59174 0.273474,2.34613 0.24583,3.30213 0.297778,1.73799 1.584865,3.23806 1.878253,4.89934 -1.474821,1.27174 -3.65779,-0.23664 -5.298467,-0.34112 -2.398132,-0.40852 -4.881393,-1.72558 -7.322423,-1.28578 -0.436784,1.10642 1.469041,1.64579 2.106819,2.26841 3.981289,2.73747 9.13596,4.18869 12.076058,8.20423 0.124907,2.26059 -1.766863,4.16195 -2.200731,6.37156 -0.591025,2.38502 -1.604975,5.23631 -0.332838,7.52613 1.111104,0.70092 1.921742,-1.36663 2.786995,-1.77398 2.252111,-2.26312 4.568589,-5.33027 8.135871,-5.06162 1.530621,-0.31188 3.721824,0.55952 4.871718,-0.71401 -0.429428,-2.18841 -2.722446,-3.58843 -3.863316,-5.43818 -2.631918,-2.31736 -1.705146,-6.03704 -0.738403,-8.91526 0.337772,-0.62443 0.38938,-2.03856 -0.656698,-1.34378 -1.547416,0.84451 -3.673908,2.35999 -5.254963,0.68847 -2.79438,-2.21485 -4.070047,-5.68975 -6.253476,-8.36651 -0.05666,-0.0246 -0.119972,-0.0234 -0.180229,-0.02 z"
       id="path2836"
       transform="scale(3)"
       inkscape:export-filename="/home/marcel/Proyectos/nft/WalterTheRabbit/logo/walterLogo.png"
       inkscape:export-xdpi="96"
       inkscape:export-ydpi="96" />
  </g>
  <g
     inkscape:groupmode="layer"
     id="layer1"
     inkscape:label="colors"
     style="display:none" />
</svg>
