<?xml version="1.0" encoding="UTF-8" standalone="no"?>
<svg
   width="64"
   height="64"
   viewBox="0 0 64 64"
   fill="none"
   version="1.1"
   id="svg28"
   sodipodi:docname="promo_image_3.svg"
   inkscape:version="1.1.2 (0a00cf5339, 2022-02-04)"
   xmlns:inkscape="http://www.inkscape.org/namespaces/inkscape"
   xmlns:sodipodi="http://sodipodi.sourceforge.net/DTD/sodipodi-0.dtd"
   xmlns="http://www.w3.org/2000/svg"
   xmlns:svg="http://www.w3.org/2000/svg">
  <defs
     id="defs32" />
  <sodipodi:namedview
     id="namedview30"
     pagecolor="#ffffff"
     bordercolor="#666666"
     borderopacity="1.0"
     inkscape:pageshadow="2"
     inkscape:pageopacity="0.0"
     inkscape:pagecheckerboard="0"
     showgrid="false"
     inkscape:zoom="13.1875"
     inkscape:cx="16.834123"
     inkscape:cy="25.971564"
     inkscape:window-width="1852"
     inkscape:window-height="1016"
     inkscape:window-x="1988"
     inkscape:window-y="27"
     inkscape:window-maximized="1"
     inkscape:current-layer="svg28" />
  <path
     d="M33.513 58.6668L12.3738 49.4502"
     stroke="white"
     stroke-width="1.77778"
     stroke-linecap="round"
     stroke-linejoin="round"
     id="path2" />
  <path
     d="M12.3738 49.4543V37.333"
     stroke="white"
     stroke-width="1.77778"
     stroke-linecap="round"
     stroke-linejoin="round"
     id="path4" />
  <path
     d="M33.5127 58.6658L52.4443 49.3329V37.7773"
     stroke="white"
     stroke-width="1.77778"
     stroke-linecap="round"
     stroke-linejoin="round"
     id="path6" />
  <path
     d="M44.7729 25.1035L51.129 28.1213"
     stroke="white"
     stroke-width="1.77778"
     stroke-linecap="round"
     stroke-linejoin="round"
     id="path8" />
  <path
     d="M33.5127 37.5225V58.6664"
     stroke="white"
     stroke-width="1.77778"
     stroke-linecap="round"
     stroke-linejoin="round"
     id="path10" />
  <path
     fill-rule="evenodd"
     clip-rule="evenodd"
     d="M32.428 7.17285L24.157 12.0211V21.7181L32.428 26.5669L40.6988 21.7181V12.0211L32.428 7.17285Z"
     stroke="#1199FA"
     stroke-width="1.77778"
     id="path12"
     style="stroke:#ff00c4;stroke-opacity:1" />
  <path
     d="M5.3335 34.2994L12.374 28.1221L33.6421 37.3342L26.8461 43.4948L5.3335 34.2994Z"
     stroke="white"
     stroke-width="1.77778"
     stroke-linecap="round"
     stroke-linejoin="round"
     id="path14" />
  <path
     d="M40.4446 43.5561L33.1694 37.3342L51.1292 28.1221L58.6668 33.7783L40.4446 43.5561Z"
     stroke="white"
     stroke-width="1.77778"
     stroke-linecap="round"
     stroke-linejoin="round"
     id="path16" />
  <path
     fill-rule="evenodd"
     clip-rule="evenodd"
     d="M51.1829 13.3094C51.3424 12.9672 51.829 12.9672 51.9885 13.3094L52.7125 14.8624L54.3276 15.104C54.683 15.1572 54.8316 15.5884 54.5844 15.8493L53.3784 17.1219L53.6357 18.8047C53.6941 19.1867 53.2708 19.4561 52.9495 19.2414L51.5857 18.3304L50.2219 19.2414C49.9005 19.4561 49.4772 19.1867 49.5356 18.8047L49.793 17.1219L48.5869 15.8493C48.3397 15.5884 48.4883 15.1572 48.8438 15.104L50.4588 14.8624L51.1829 13.3094Z"
     fill="#C4C4C4"
     id="path18" />
  <path
     fill-rule="evenodd"
     clip-rule="evenodd"
     d="M51.1829 13.3094C51.3424 12.9672 51.829 12.9672 51.9885 13.3094L52.7125 14.8624L54.3276 15.104C54.683 15.1572 54.8316 15.5884 54.5844 15.8493L53.3784 17.1219L53.6357 18.8047C53.6941 19.1867 53.2708 19.4561 52.9495 19.2414L51.5857 18.3304L50.2219 19.2414C49.9005 19.4561 49.4772 19.1867 49.5356 18.8047L49.793 17.1219L48.5869 15.8493C48.3397 15.5884 48.4883 15.1572 48.8438 15.104L50.4588 14.8624L51.1829 13.3094Z"
     fill="white"
     id="path20" />
  <path
     fill-rule="evenodd"
     clip-rule="evenodd"
     d="M14.1387 6.19803C14.2982 5.85583 14.7848 5.85583 14.9443 6.19803L15.6683 7.75107L17.2834 7.99269C17.6388 8.04587 17.7874 8.47708 17.5402 8.73797L16.3342 10.0105L16.5915 11.6934C16.6499 12.0754 16.2266 12.3448 15.9053 12.1301L14.5415 11.2191L13.1777 12.1301C12.8563 12.3448 12.433 12.0754 12.4915 11.6934L12.7488 10.0105L11.5428 8.73797C11.2955 8.47708 11.4441 8.04587 11.7996 7.99269L13.4146 7.75107L14.1387 6.19803Z"
     fill="#C4C4C4"
     id="path22" />
  <path
     fill-rule="evenodd"
     clip-rule="evenodd"
     d="M14.1387 6.19803C14.2982 5.85583 14.7848 5.85583 14.9443 6.19803L15.6683 7.75107L17.2834 7.99269C17.6388 8.04587 17.7874 8.47708 17.5402 8.73797L16.3342 10.0105L16.5915 11.6934C16.6499 12.0754 16.2266 12.3448 15.9053 12.1301L14.5415 11.2191L13.1777 12.1301C12.8563 12.3448 12.433 12.0754 12.4915 11.6934L12.7488 10.0105L11.5428 8.73797C11.2955 8.47708 11.4441 8.04587 11.7996 7.99269L13.4146 7.75107L14.1387 6.19803Z"
     fill="white"
     id="path24" />
  <path
     d="M12.3738 28.1218L19.6751 24.1846"
     stroke="white"
     stroke-width="1.77778"
     stroke-linecap="round"
     stroke-linejoin="round"
     id="path26" />
</svg>
