<?xml version="1.0" encoding="UTF-8" standalone="no"?>
<!-- Created with Inkscape (http://www.inkscape.org/) -->

<svg
   width="244.63"
   height="185"
   viewBox="0 0 64.725022 48.947916"
   version="1.1"
   id="svg5"
   sodipodi:docname="text_bubble_small_down.svg"
   inkscape:version="1.2.2 (b0a8486541, 2022-12-01)"
   xmlns:inkscape="http://www.inkscape.org/namespaces/inkscape"
   xmlns:sodipodi="http://sodipodi.sourceforge.net/DTD/sodipodi-0.dtd"
   xmlns="http://www.w3.org/2000/svg"
   xmlns:svg="http://www.w3.org/2000/svg">
  <sodipodi:namedview
     id="namedview7"
     pagecolor="#ffffff"
     bordercolor="#666666"
     borderopacity="1.0"
     inkscape:pageshadow="2"
     inkscape:pageopacity="0.0"
     inkscape:pagecheckerboard="0"
     inkscape:document-units="mm"
     showgrid="false"
     inkscape:zoom="1.189552"
     inkscape:cx="184.94358"
     inkscape:cy="39.510674"
     inkscape:window-width="1920"
     inkscape:window-height="1011"
     inkscape:window-x="0"
     inkscape:window-y="32"
     inkscape:window-maximized="1"
     inkscape:current-layer="g397"
     fit-margin-top="0"
     fit-margin-left="0"
     fit-margin-right="0"
     fit-margin-bottom="0"
     inkscape:showpageshadow="2"
     inkscape:deskcolor="#d1d1d1" />
  <defs
     id="defs2" />
  <g
     inkscape:groupmode="layer"
     id="layer2"
     inkscape:label="Bg"
     transform="translate(-43.996203,-117.58367)"
     sodipodi:insensitive="true"
     style="display:none">
    <rect
       style="fill:#d40000;stroke-width:0.449792;stop-color:#000000"
       id="rect345"
       width="61.621536"
       height="57.572754"
       x="1.0388107"
       y="0.94760627"
       transform="translate(43.996203,117.58367)" />
  </g>
  <g
     inkscape:label="Down"
     inkscape:groupmode="layer"
     id="g397"
     transform="translate(-43.996202,-117.58367)"
     style="display:inline">
    <path
       style="display:inline;fill:#030303;stroke:none;stroke-width:0.0813543;stroke-opacity:1"
       d="m 70.525238,159.06012 c 0.732578,2.20278 1.271065,6.10403 3.96824,6.2955 2.127523,-1.46302 1.897984,-5.19565 4.66549,-5.93945 3.387159,-0.561 6.86392,-0.50626 10.292432,-0.66699 4.049796,-0.21773 8.936118,0.69944 12.07337,-2.54349 2.24367,-2.0099 3.34234,-4.92116 4.37597,-7.6796 1.73403,-7.13013 2.22316,-14.96254 -0.58131,-21.88904 -1.37835,-3.48368 -4.66449,-6.0141 -8.407931,-6.35732 -9.241919,-1.08607 -18.517597,-1.94541 -27.797858,-2.62968 -5.304834,-0.28266 -10.719228,0.17148 -15.710915,2.06989 -2.323467,1.32832 -4.65888,3.26897 -5.458414,5.99152 -1.69087,4.99007 -1.493538,10.34665 -2.224252,15.51557 -0.347845,4.77931 -0.457707,10.23823 2.802594,14.10598 1.8944,1.63583 4.155749,3.13461 6.679921,3.51647 4.350649,0.49053 8.751708,0.70324 13.109552,0.17389 0.762285,-0.0274 1.532943,-0.007 2.280865,0.15577 m 1.807898,1.89583 c 0.268314,-0.99843 -0.562029,-1.85432 -0.319519,-2.99875 -2.388392,-1.82355 -5.572979,-0.52501 -8.310021,-0.64281 -3.816539,-0.12902 -7.80281,0.13415 -11.447617,-1.17795 -3.776228,-1.44429 -5.025663,-5.76297 -4.961935,-9.45248 -0.140687,-6.68709 0.844187,-13.3771 2.329351,-19.879 0.930388,-3.71448 4.4003,-6.01836 7.984727,-6.71081 11.304832,-2.16785 22.682396,0.71096 33.982039,1.38506 3.863956,0.4454 8.663555,0.61419 11.005645,4.24775 2.94211,4.62656 2.76718,10.34436 2.75883,15.61223 -0.17181,5.21291 -2.13415,10.5602 -6.026701,14.124 -2.508107,1.91912 -5.783221,0.73414 -8.661257,1.0281 -4.617352,0.014 -9.310612,0.35044 -13.744361,1.65306 -0.788977,0.3079 -1.176571,1.06856 -1.533487,1.77566 m 33.208216,-15.37373 0.0564,0.0261 z"
       id="path393"
       inkscape:label="lines"
       sodipodi:nodetypes="csccccscsccccccsccccsscccccccccccccccsccccccscccccccc" />
    <path
       id="path395"
       style="display:inline;fill:#fffbff;fill-opacity:1;stroke:none;stroke-width:0.0992278;stroke-opacity:1;-inkscape-stroke:none;stop-color:#000000"
       d="m 65.359375,118.95987 c -4.842142,0.16525 -10.395815,0.35545 -14.027921,4.01664 -2.963304,3.45191 -2.872444,8.25059 -3.691631,12.4924 -0.639242,5.0003 -1.20897,10.13941 -0.297949,15.13666 0.678046,3.72096 4.02663,6.47011 7.74789,6.73995 4.743371,0.62218 9.532746,0.42558 14.291214,0.17547 3.620578,-0.3943 1.640856,3.99194 3.62432,5.64606 0.578556,1.46986 1.880797,2.46333 2.003757,0.13184 0.07242,-3.65311 2.930787,-5.72912 6.39311,-5.61985 5.318389,-1.00769 10.75694,-0.44484 16.118781,-0.79199 3.352824,-0.96033 5.094334,-4.4134 6.545854,-7.3094 2.49831,-5.5566 1.94598,-11.83887 1.35457,-17.72885 -0.73811,-3.90818 -2.57537,-8.47799 -6.843777,-9.5486 -5.323716,-1.5493 -10.942052,-1.29933 -16.389863,-2.13094 -5.585572,-0.66062 -11.192064,-1.37466 -16.828355,-1.20939 z"
       sodipodi:nodetypes="cccccccccccccccccccccccc" />
  </g>
</svg>
