<?xml version="1.0" encoding="UTF-8" standalone="no"?>
<!-- Created with Inkscape (http://www.inkscape.org/) -->

<svg
   width="64.724998mm"
   height="61.686802mm"
   viewBox="0 0 64.724999 61.686802"
   version="1.1"
   id="svg5"
   sodipodi:docname="text_bubble_small.svg"
   inkscape:version="1.2.2 (b0a8486541, 2022-12-01)"
   xmlns:inkscape="http://www.inkscape.org/namespaces/inkscape"
   xmlns:sodipodi="http://sodipodi.sourceforge.net/DTD/sodipodi-0.dtd"
   xmlns="http://www.w3.org/2000/svg"
   xmlns:svg="http://www.w3.org/2000/svg">
  <sodipodi:namedview
     id="namedview7"
     pagecolor="#ffffff"
     bordercolor="#666666"
     borderopacity="1.0"
     inkscape:pageshadow="2"
     inkscape:pageopacity="0.0"
     inkscape:pagecheckerboard="0"
     inkscape:document-units="mm"
     showgrid="false"
     inkscape:zoom="3.623347"
     inkscape:cx="39.742261"
     inkscape:cy="74.930721"
     inkscape:window-width="1920"
     inkscape:window-height="1016"
     inkscape:window-x="0"
     inkscape:window-y="27"
     inkscape:window-maximized="1"
     inkscape:current-layer="layer1"
     fit-margin-top="0"
     fit-margin-left="0"
     fit-margin-right="0"
     fit-margin-bottom="0"
     inkscape:showpageshadow="2"
     inkscape:deskcolor="#d1d1d1" />
  <defs
     id="defs2" />
  <g
     inkscape:groupmode="layer"
     id="layer2"
     inkscape:label="Bg"
     transform="translate(-43.996203,-117.58367)"
     sodipodi:insensitive="true"
     style="display:none">
    <rect
       style="fill:#d40000;stroke-width:0.449792;stop-color:#000000"
       id="rect345"
       width="61.621536"
       height="57.572754"
       x="1.0388107"
       y="0.94760627"
       transform="translate(43.996203,117.58367)" />
  </g>
  <g
     inkscape:label="Layer 1"
     inkscape:groupmode="layer"
     id="layer1"
     transform="translate(-43.996202,-117.58367)">
    <path
       style="display:inline;fill:#030303;stroke:none;stroke-width:0.0846667;stroke-opacity:1"
       d="m 70.592982,162.63532 c -1.879516,5.55219 -5.170678,12.15314 -11.599334,13.35109 -2.351108,0.43806 -4.811437,0.50681 -7.196667,0.44831 -1.525185,-0.0373 -2.894736,-0.32233 -4.402666,0.0745 -0.847785,0.22309 -3.067787,0.24282 -3.379352,1.28134 -0.150004,0.50004 0.640199,0.44171 0.924018,0.40784 1.189516,-0.14232 2.356274,-0.41123 3.556,-0.50224 1.58242,-0.12006 3.285998,0.35754 4.826,0.67699 3.06214,0.63526 6.533389,1.34112 9.652001,0.5384 5.462608,-1.40606 8.93826,-6.29209 12.060258,-10.63947 0.738971,-1.02895 1.343152,-2.11658 1.965622,-3.18897 0.360934,-0.62188 0.543306,-1.39294 1.208108,-1.78063 1.590887,-0.92777 3.787056,-0.70298 5.569882,-0.86385 3.038687,-0.27423 6.043168,-0.27483 9.083463,-0.31098 2.12852,-0.0253 4.588847,-0.0362 6.519337,-1.03835 1.523738,-0.79096 2.894828,-2.41724 3.905248,-3.77139 0.33672,-0.45128 0.48124,-1.12031 0.74642,-1.62527 0.99221,-1.88933 1.85488,-4.08271 2.24561,-6.18066 1.16705,-6.26576 1.53806,-12.86366 0.0106,-19.13467 -0.7731,-3.17432 -2.32453,-6.58004 -5.15527,-8.39191 -2.429088,-1.5548 -5.927853,-1.71421 -8.695268,-2.04626 -5.637445,-0.6764 -11.28903,-1.16257 -16.940954,-1.7571 -5.630248,-0.59226 -11.420009,-1.03804 -17.01038,0.14209 -1.549315,0.32706 -2.952242,0.76038 -4.402667,1.39355 -0.415459,0.18134 -0.955463,0.15731 -1.329351,0.42214 -0.331978,0.23514 -0.591735,0.64764 -0.912114,0.91958 -0.836845,0.71036 -1.982131,1.52655 -2.560659,2.46025 -2.526453,4.07738 -2.610383,9.66732 -3.041887,14.30833 -0.38111,4.09896 -0.971931,8.15069 -0.557911,12.28428 0.351028,3.5047 1.093132,7.2252 4.087224,9.53864 0.494115,0.38176 1.08983,0.59156 1.605365,0.93395 0.64135,0.42588 1.128522,0.9172 1.862667,1.18847 1.70942,0.63178 3.541353,0.69672 5.334,0.82669 1.953683,0.14173 3.877733,0.28735 5.842,0.20133 1.935057,-0.0847 4.279477,-0.61866 6.180667,-0.16603 m -11.260667,14.732 c 0.670475,-0.30895 1.432814,-0.37372 2.116667,-0.64948 0.865801,-0.34916 1.850136,-0.97188 2.621364,-1.4997 0.497248,-0.34036 0.817711,-0.85936 1.26382,-1.25018 2.442548,-2.13995 3.92811,-4.47879 5.395468,-7.3533 0.575648,-1.12751 0.951653,-2.40268 1.218607,-3.64067 0.07484,-0.34714 0.352637,-0.92939 0.263991,-1.26992 -0.09584,-0.36821 -0.54627,-0.67555 -0.871644,-0.83024 -1.792816,-0.85217 -4.263051,-0.32385 -6.166273,-0.19338 -2.502239,0.17145 -4.955879,0.0168 -7.450667,-0.15426 -2.619756,-0.17949 -4.900507,-0.37423 -7.026063,-2.07256 -2.630568,-2.10168 -3.17318,-5.47209 -3.312093,-8.60298 -0.293099,-6.60628 0.714934,-13.38436 1.793596,-19.89666 0.498602,-3.01033 1.657011,-6.12758 4.395893,-7.82346 3.488267,-2.15989 7.453207,-2.34145 11.430001,-2.50921 7.749116,-0.3269 15.505853,1.28832 23.198667,2.02094 3.071791,0.29261 6.152134,0.36559 9.144003,1.22437 1.24248,0.35661 2.692898,0.8205 3.676558,1.70205 2.0999,1.8818 2.96698,4.52476 3.64524,7.16331 0.46228,1.79806 0.51808,3.65794 0.6444,5.50333 0.36593,5.34247 0.25823,11.38394 -2.28245,16.256 -1.10498,2.11895 -2.54897,4.9508 -4.837088,6.01853 -1.506725,0.70307 -3.47387,0.34011 -5.079997,0.33816 -4.169579,-0.005 -8.720582,0.008 -12.784667,0.97079 -1.380913,0.32723 -2.578269,0.22453 -3.795522,1.11472 -0.568113,0.41537 -0.758698,1.03903 -1.077552,1.63314 -0.536194,0.99923 -1.085342,2.11361 -1.724491,3.048 -1.632119,2.38633 -3.366347,4.60679 -5.294376,6.73252 -1.110234,1.22403 -2.486745,2.45339 -4.025392,3.14697 -1.548299,0.69791 -3.403177,0.87317 -5.08,0.87317 m 49.332475,-30.4518 0.0564,0.0283 z"
       id="path206"
       inkscape:label="lines"
       sodipodi:nodetypes="ccccscccsccccscsccccccsccccsscccccccccccccccccccsccccccscccccccccccc" />
    <path
       id="path3793"
       style="display:inline;fill:#fffbff;fill-opacity:1;stroke:none;stroke-width:0.103268;stroke-opacity:1;-inkscape-stroke:none;stop-color:#000000"
       d="m 65.359375,119.07422 c -4.173266,0.12324 -8.613863,0.37644 -12.214479,2.72958 -2.799473,1.80598 -3.998403,5.18232 -4.488869,8.32893 -0.735838,4.53597 -1.413385,9.09491 -1.681964,13.68546 -0.0656,2.83772 -0.227802,5.70371 0.175983,8.52279 0.414867,2.68235 1.581952,5.47914 4.009587,6.92464 2.391021,1.58089 5.38008,1.52209 8.127747,1.76077 3.085865,0.20839 6.176564,0.0396 9.254378,-0.19441 1.068914,-0.005 2.412385,-0.0276 3.13793,0.86919 -0.0454,1.11974 -0.520887,2.19908 -0.8299,3.27457 -1.276851,3.26739 -3.287981,6.24144 -5.869642,8.62048 -1.23774,1.317 -2.793763,2.30165 -4.495771,2.89597 -0.626612,0.22484 -0.539714,1.19743 0.150391,1.2207 2.705551,-0.0626 5.358263,-1.22167 7.21161,-3.20288 2.60593,-2.68384 4.980363,-5.61906 6.928181,-8.8165 0.708004,-1.13499 1.189555,-2.429 2.053568,-3.45523 1.35257,-0.87905 3.050652,-0.84529 4.57404,-1.22771 5.068656,-1.00026 10.255849,-0.60837 15.383216,-0.76681 2.023457,-0.0539 3.547819,-1.68779 4.656699,-3.21439 2.40062,-3.41503 3.92834,-7.44021 4.28637,-11.60687 0.34436,-3.49072 0.12727,-7.01258 -0.0952,-10.50449 -0.15293,-2.52542 -0.84257,-5.00706 -1.84836,-7.32067 -0.94075,-2.10717 -2.55858,-4.03522 -4.813926,-4.76559 -4.185122,-1.54054 -8.722578,-1.42841 -13.069066,-2.00358 -6.605314,-0.72285 -13.191818,-1.91427 -19.860037,-1.76114 -0.227488,0.002 -0.454977,0.005 -0.682466,0.007 z" />
  </g>
</svg>
