<svg xmlns="http://www.w3.org/2000/svg" xmlns:xlink="http://www.w3.org/1999/xlink" width="467.52" height="241.92" viewBox="0 0 1402.56 725.76"><defs><linearGradient id="a"><stop offset="0" style="stop-color:#000;stop-opacity:1"/><stop offset="1" style="stop-color:#000;stop-opacity:0"/></linearGradient><linearGradient xlink:href="#a" id="b" x1="625.959" x2="694.307" y1="601.361" y2="601.361" gradientUnits="userSpaceOnUse"/></defs><path d="M481.06 698.981c-11.736-4.007-16.88-14.11-17.064-33.514-.118-12.386-.706-13.513-7.055-13.513-3.81 0-10.21-1.248-14.224-2.774-9.042-3.438-10.034-16.625-1.81-24.068 4.736-4.286 6.806-4.488 15.124-1.48 7.498 2.71 13.885 2.745 28.758.155 10.515-1.83 20.186-2.67 21.49-1.864 1.303.806 3.15 5.362 4.102 10.126.953 4.763 3.734 9.428 6.18 10.367 7.434 2.853 8.38-1.478 1.843-8.436-10.709-11.4-6.902-19.008 9.51-19.008 4.036 0 8.91-3.1 12.297-7.823 3.087-4.303 9.441-10.057 14.12-12.787 8.095-4.722 8.79-4.722 14.28 0 3.174 2.73 8.68 12.005 12.237 20.61 3.557 8.605 7.175 16.286 8.04 17.069 3.651 3.303 8.684 14.534 8.684 19.379 0 10.48-21.742 24.878-33.218 21.998-4.4-1.105-6.42-.701-5.328 1.064 3.83 6.2-5.28 14.454-15.952 14.454-5.752 0-10.884 1.236-11.406 2.747-.521 1.512-5.363 3.112-10.76 3.556-8.71.718-10.108-.15-12.452-7.725-8.743-28.252-14.415-41.25-18-41.25-7.21 0-7.132 7.523.27 25.738 11.282 27.768 9.25 33.439-9.666 26.98zm11.255-4.073c0-1.41-3.187-9.41-7.084-17.78-8.876-19.068-9.468-33.632-1.45-35.729 3.13-.818 5.67-2.298 5.646-3.29-.134-5.552-6.336-7.53-24.672-7.869-16.388-.303-20.796.53-22.201 4.192-2.382 6.207 5.98 11.833 17.59 11.833 9.36 0 9.413.077 9.413 13.799 0 17.963 4.888 31.552 12.447 34.605 8.055 3.253 10.311 3.305 10.311.239zm32.547-10.95c-1.21-2.738-2.307-8.819-2.438-13.513-.189-6.748 1.087-8.723 6.098-9.435 5.427-.771 6.603.76 8.187 10.668 1.374 8.595 3.176 11.569 7.008 11.569 8.195 0 8.401-3.393 1.39-22.908-11.829-32.918-15.498-39.677-21.537-39.677-7.234 0-7.178 3.426.163 10.07 7.545 6.828 6.217 16.66-2.415 17.884-8.472 1.201-13.954-3.499-16.244-13.927-1.008-4.586-3.65-8.338-5.873-8.338-5.596 0-5.187 2.623 4.09 26.24 4.472 11.384 8.977 24.22 10.011 28.522 1.306 5.436 3.692 7.823 7.82 7.823 4.598 0 5.442-1.124 3.74-4.978zm5.23-12.203c-.834-3.192-2.153-5.167-2.93-4.39-1.539 1.539 1.18 10.192 3.202 10.192.685 0 .563-2.611-.272-5.802zm50.702-9.345c7.574-5.182 9.537-8.359 9.068-14.68-.955-12.876-5.246-14.6-13.443-5.4-7.121 7.992-7.416 8.06-11.568 2.68-6.084-7.885-5.369-10.2 4.273-13.84 4.93-1.861 8.534-5.29 8.534-8.12 0-6.974-5.953-9.744-9.05-4.21-1.436 2.566-5.202 4.666-8.368 4.666-7.754 0-5.985-9.032 2.5-12.764 7.365-3.24 8.168-7.817 2.234-12.741-3.406-2.827-6.203-1.232-15.61 8.897-6.304 6.788-11.477 14.094-11.497 16.236-.04 4.424 18.095 35.165 24.559 41.629 5.61 5.61 6.984 5.434 18.368-2.353zm-7.403-24.68c.967-1.564.478-2.845-1.086-2.845-1.565 0-3.636 1.28-4.603 2.845-.967 1.565-.478 2.845 1.086 2.845 1.565 0 3.636-1.28 4.603-2.845zm66.706.711a1598.028 1598.028 0 0 0-5.54-14.935c-4.926-13.026-11.917-48.554-10.355-52.624 3.772-9.83 34.412-19.257 43.6-13.415 4.918 3.127 9.284 16.176 7.585 22.67-1.04 3.975.233 6.048 4.379 7.132 4.9 1.282 6.146-.148 7.721-8.854 3.892-21.516 10.685-28.968 26.242-28.782 14.992.179 23.237 12.132 23.237 33.692 0 22.622 4.808 19.485 6.324-4.125.756-11.784 2.658-22.709 4.226-24.277 2.923-2.924 33.974 2.82 49.9 9.23 8.879 3.573 10.831 14.716 3.317 18.922-4.043 2.262-3.937 3.46 1.03 11.629 5.539 9.107 5.539 9.107 9.056-8.782 1.934-9.839 4.99-18.83 6.792-19.979 4.86-3.1 27.016-2.613 33.267.733 8.18 4.378 12.01 13.126 8.565 19.564-2.19 4.092-1.869 5.798 1.322 7.023 2.96 1.136 4.215-.304 4.215-4.837 0-3.549 1.392-7.845 3.093-9.546 2.227-2.227 2.227-3.628 0-5.004-7.748-4.788.159-18.644 10.64-18.644 4.467 0 6.377 8.541 3.225 14.43-2.435 4.55-1.983 5.483 2.657 5.483 4.953 0 5.289-1.053 2.945-9.226-1.456-5.075-2.646-9.636-2.646-10.135 0-.5 8-4.752 17.78-9.45 9.778-4.697 21.392-10.491 25.809-12.877 7.322-3.954 8.512-3.9 13.512.626 9.218 8.342 6.91 20.143-5.184 26.513-8.48 4.465-8.076 8.538 2.017 20.346 10.655 12.465 10.739 17.932.388 25.302-12.688 9.035-16.037 7.55-21.394-9.48-4.661-14.82-5.23-15.403-16.036-16.433-13.218-1.261-13.926 1.34-5.45 20.017 3.094 6.82 5.626 14.664 5.626 17.431 0 6.153-19.162 18.845-23.23 16.331-4.52-2.794 8.433-13.448 13.578-13.448 3.239 0 3.973-1.452 2.52-4.979-1.128-2.738-4.367-11.379-7.198-19.202-2.831-7.823-6.526-14.096-8.21-13.94-1.685.157-4.497.477-6.25.712-5.944.796-1.535 33.621 5.526 41.137 5.785 6.158 5.78 10.495-.01 10.495-1.326 0-4.949-4.16-8.049-9.245-3.1-5.085-5.642-7.678-5.648-5.763-.02 6.875-16.956 12.73-32.345 11.184-19.09-1.918-25.369-3.115-29.402-5.608-1.825-1.128-8.404-.017-14.62 2.471-11.03 4.414-11.59 4.34-23.305-3.055-8.146-5.142-14.174-7.036-18.756-5.893-3.714.927-9.96 2.476-13.88 3.443-9.3 2.292-15.631-3.171-15.631-13.485 0-4.502-1.159-8.186-2.574-8.186-1.416 0-1.903 5.009-1.082 11.13 1.392 10.378.846 11.457-8.093 15.99-5.273 2.672-11.722 6.728-14.33 9.012-8.405 7.356-17.692 3.58-20.65-8.395-1.45-5.868-4.33-10.668-6.401-10.668-4.179 0-4.533 4.209-1.078 12.801 3.475 8.644-1.623 15.647-11.392 15.647-6.69 0-9.113-1.67-11.356-7.824zm15.793-13.686c0-11.13 1.025-14.125 5.115-14.932 6.995-1.382 12.65 3.908 14.841 13.88 1.225 5.579 3.584 8.338 7.127 8.338 7.548 0 9.776-5.228 4.645-10.898-2.414-2.667-5.156-9.2-6.092-14.516-2.394-13.59-3.876-15.121-13.297-13.738-10.753 1.578-13.106-2.48-5.53-9.538 7.141-6.653 7.585-11.896 1.52-17.962-3.001-3-6.982-3.874-12.091-2.654-18.553 4.429-23.956 10.736-20.522 23.96 1.398 5.382 3.93 15.109 5.625 21.614 8.641 33.146 18.659 41.976 18.659 16.446zm-14.618-39.653c-2.496-6.506 1.001-12.801 7.112-12.801 7.578 0 9.571 7.07 3.534 12.534-6.239 5.645-8.56 5.704-10.646.267zm215.785 33.368c4.235-4.235 5.32-7.837 3.975-13.196-1.597-6.364-3.374-7.37-13.007-7.37-11.955 0-18.047-4.687-9.54-7.338 10.06-3.134 13.694-6.149 13.694-11.357 0-6.288-14.577-11.352-25.084-8.715-6.062 1.521-7.425 4.27-10.4 20.98-1.883 10.577-4.04 21.48-4.792 24.228-3.176 11.597 34.043 13.88 45.154 2.768zm-32.004-2.196c-5.088-6.131.49-11.07 9.849-8.72 8.135 2.042 9.787 8.707 2.82 11.38-6.708 2.575-8.665 2.164-12.669-2.66zm7.212-4.147c.967-1.564.403-2.844-1.254-2.844s-3.013 1.28-3.013 2.844c0 1.565.565 2.845 1.255 2.845s2.045-1.28 3.012-2.845zm-6.576-30.548c1.144-5.945 10.172-8.243 14.678-3.737 2.41 2.41 2.153 3.91-1.014 5.913-7.15 4.52-14.722 3.315-13.664-2.176zm-119.543 28.147c-1.165-11.576 6.715-22.17 12.76-17.154 2.11 1.751 3.836 6.122 3.836 9.714 0 9.69 2.91 15.53 7.739 15.53 3.442 0 3.942-2.52 2.54-12.8-.96-7.041-2.556-18.734-3.547-25.984-2.057-15.04-9.222-23.8-19.468-23.8-10.048 0-16.473 11.3-16.638 29.262-.212 23.093 3.194 36.697 8.911 35.59 3.615-.699 4.58-3.284 3.867-10.358zm-.324-30.135c-4.415-5.319-1.984-12.98 4.118-12.98 6.341 0 8.65 8.215 3.7 13.165-3.688 3.69-4.622 3.667-7.818-.184zm84.561 36.642c3.478-2.435 6.323-7.4 6.323-11.034 0-6.34-3.01-8.39-20.625-14.051-7.782-2.501-5.838-7.468 2.923-7.468 9.12 0 22.164-8.068 18.653-11.538-1.306-1.289-11.91-4.325-23.563-6.747-16.686-3.467-21.665-3.655-23.426-.882-1.23 1.936-2.256 12.696-2.28 23.91-.043 20.391-.043 20.391 10.624 25.944 13.382 6.965 23.254 7.552 31.371 1.866zm-29.39-7.198c-3.102-5.02 3.425-9.153 11.324-7.17 10.329 2.592 9.547 10.262-1.046 10.262-4.602 0-9.227-1.391-10.278-3.092zm.153-31.045c-2.627-4.25 1.028-8.534 7.28-8.534 3.625 0 5.522 1.954 5.522 5.69 0 6.033-9.523 8.15-12.802 2.844zm177.548 21.637c2.513-3.028 2.405-4.878-.457-7.823-7.364-7.58-16.361-21.876-16.361-25.998 0-2.307 3.797-5.767 8.44-7.69 9.673-4.007 13.55-12.6 8.455-18.739-3.076-3.706-4.036-3.706-8.135.003-2.556 2.314-11.974 7.56-20.928 11.66-11.04 5.055-16.28 9.105-16.28 12.586 0 7.214 6.073 11.42 15.456 10.706 6.984-.532 8.51.842 11.955 10.77 2.172 6.258 4.533 12.979 5.248 14.934 1.732 4.74 8.517 4.519 12.607-.41zM878.552 564.3c.62-1.858-.9-3.379-3.378-3.379a4.517 4.517 0 0 0-4.504 4.505c0 5.023 6.124 4.148 7.882-1.126zm-767.843 45.694c-2.377-5.976-2.09-11.854 1.213-24.892 2.38-9.388 3.723-18.048 2.988-19.245-.736-1.197-5.73-4.012-11.099-6.255-24.984-10.44-39.214-29.973-21.835-29.973 4.313 0 12.065 1.211 17.226 2.691 9.384 2.692 9.384 2.692 7.437-17.068-1.172-11.889-.876-19.76.742-19.76 1.48 0 6.373 7.706 10.875 17.126 11.469 23.996 15.966 27.591 28.736 22.974 12.848-4.646 14.655-2.614 8.728 9.815-2.627 5.51-4.777 11.098-4.777 12.418 0 1.32 7.706 11.6 17.124 22.844 9.418 11.245 16.4 21.614 15.517 23.043-.883 1.43-6.33.067-12.103-3.027-5.773-3.095-15.209-5.626-20.968-5.626-8.817 0-11.894 1.797-19.483 11.379-10.587 13.366-16.04 14.32-20.321 3.556zm41.015-20.625c7.393 0 13.443-.805 13.443-1.789 0-.983-4.603-6.883-10.23-13.11-10.335-11.442-10.565-12.808-5.142-30.563 2.134-6.988 2.083-7.01-5.085-2.314-6.487 4.25-7.874 4.3-13.343.47-3.357-2.352-8.672-9.312-11.812-15.467-3.14-6.155-6.425-11.19-7.3-11.19-2.373 0 1.912 17.931 5.285 22.115 4.807 5.963.208 7.283-12.722 3.65-21.59-6.065-24.994-6.568-24.994-3.692 0 1.554 8.786 7.441 19.524 13.084 24.997 13.135 28.09 16.689 22.269 25.575-5.443 8.307-8.913 25.765-6.415 32.276 1.552 4.043 3.656 2.847 12.473-7.09 9.634-10.86 11.836-11.955 24.049-11.955zm263.712 2.661c-17.5-1.976-26.768-5.98-30.889-13.344-2.57-4.594-3.293-4.526-10.79 1.008-12.412 9.164-28.565 13.4-44.714 11.725-19.447-2.017-27.317-6.052-36.219-18.57-7.473-10.51-21.329-42.474-25.469-58.753-1.21-4.756-5.532-17.609-9.606-28.56-6.015-16.17-7.104-17.775-5.792-8.535 5.475 38.554 5.377 40.677-2.423 52.463-7.927 11.98-20.617 16.95-31.739 12.433-19.671-7.99-35.562-23.159-55.637-53.106-30.555-45.581-41.797-78.655-50.906-149.761-11.884-92.764-10.045-139.637 7.698-196.29 15.18-48.463 33.971-64.751 68.076-59.005 19.294 3.25 38.06 19.11 43.48 36.749 5.165 16.81 4.482 55.72-1.219 69.364-2.496 5.974-11.31 17.981-19.588 26.682-28.38 29.833-38.43 62.438-33.154 107.557 3.459 29.572 8.073 49.08 11.61 49.08 3.07 0 5.49-13.441 5.123-28.448-.33-13.52 4.022-33.94 9.6-45.048 4.986-9.926 16.844-14.692 36.552-14.692 16.887 0 18.118.492 28.457 11.36 12.65 13.298 15.655 25.093 12.206 47.915-3.09 20.447-3.269 59.031-.288 62.006 3.673 3.665 11.472-2.993 14.027-11.975 4.124-14.498 2.553-50.046-3.513-79.453-15.304-74.203-15.944-119.658-2.26-160.488 11.24-33.535 19.676-43.039 34.131-38.45 12.809 4.064 63.548 46.651 66.44 55.764 1.617 5.093 2.25 5.217 6.584 1.296 7.58-6.86 25.58-8.15 49.255-3.532 27.236 5.312 36.843 10.231 53.618 27.454 15.904 16.327 24.175 32.972 29.893 60.155 7.86 37.366 9.257 39.312 59.824 83.327 11.082 9.646 15.705 12.355 14.57 8.534-.914-3.077-3.086-13.711-4.826-23.631-6.47-36.882-29.962-102.673-43.333-121.358-4.479-6.259-14.257-17.78-21.729-25.603-7.472-7.823-14.456-15.717-15.52-17.541-3.434-5.891 2.952-16.476 12.747-21.126 36.71-17.431 43.865-19.86 63.377-21.509 33.014-2.79 38.478 2.308 51.174 47.747 2.462 8.81 6.725 18.751 9.473 22.09 4.997 6.072 4.997 6.072 12.053-4.349 6.022-8.894 7.083-13.804 7.235-33.5.154-19.697 1.175-24.426 6.968-32.261 9.507-12.86 24.629-22.649 47.4-30.684 34.865-12.303 58.169-8.071 110.058 19.985 39.354 21.278 86.966 34.804 113.455 32.232 9.201-.894 9.381-.691 9.783 11.01.32 9.322 7.445 28.431 17.137 45.96.3.542 6.306-2.978 13.348-7.823 7.041-4.845 15.492-8.809 18.78-8.809 9.724 0 9.729-7.148.02-28.213-9.653-20.945-9.683-30.362-.085-27.315 8.1 2.57 25.161-7.416 40.901-23.943 7.535-7.912 19.113-17.558 25.73-21.435 11.206-6.568 13.492-6.886 33.444-4.648 23.556 2.642 29.7 5.121 46.689 18.84 20.053 16.195 34.917 53.092 31.96 79.334-.747 6.625-4.64 18.579-8.652 26.566-7.293 14.52-7.293 14.52 2.063 13.002 13.527-2.195 28.81 6.168 40.923 22.392 15.665 20.982 32.163 23.559 68.039 10.625 14.935-5.385 14.935-5.385 14.928 2.399-.01 8.738-19.182 54.931-29.538 71.159-9.375 14.691-19.031 23.016-28.91 24.923-7.127 1.376-12.272-1.253-34-17.374-24.7-18.327-48.408-32.088-50.825-29.501-.64.686.291 10.805 2.072 22.486 3.236 21.239 3.236 21.239 18.882 29.04 23.083 11.509 26.568 16.982 24.809 38.962-.924 11.541-3.423 20.765-6.883 25.4-6.46 8.651-36.592 25.85-45.624 26.04-4.536.097-7.57 3.026-10.57 10.205-2.314 5.538-8.746 15.609-14.294 22.379-17.565 21.435-64.274 41.519-96.547 41.512-21.351-.006-63.27-7.155-69.556-11.863-11.367-8.515-23.14-20.854-23.14-24.251 0-4.806-2.716-4.7-8.31.324-2.47 2.219-16.013 10.056-30.095 17.416-25.243 13.195-25.886 13.36-45.807 11.685-23.962-2.014-41.317-4.329-41.317-10.084 0-3.13 13.472-3.276 18.139-1.863 3.52 1.065 14.775 2.647 25.01 3.516 16.836 1.429 20.275.739 36.064-7.231 9.6-4.846 18.264-10.122 19.254-11.724.99-1.603-2.765-10.312-8.347-19.355-12.348-20.006-14.537-27.314-20.077-67.036-4.499-32.253-9.524-46.79-24.653-71.327-15.47-25.09-19.274-32.663-25.115-50-9.296-27.595-6.367-50.823 8.024-63.642 7.494-6.675 26.577-6.843 33.753-.297 2.837 2.589 12.2 9.114 20.805 14.5 13.978 8.747 17.467 9.706 32.715 8.986 16.924-.798 17.076-.882 17.949-9.9.545-5.635-2.591-16.997-8.246-29.87-5.02-11.426-9.727-26.079-10.461-32.561-1.336-11.787-1.336-11.787-18.78-15.085-27.472-5.196-43.48-11.07-78.856-28.943-18.13-9.16-38.613-18.666-45.516-21.125-25.263-8.996-56.181-4.212-83.102 12.86-17.72 11.238-23.139 22.225-23.395 47.426-.177 17.349-1.386 22.11-8.249 32.48-21.346 32.256 5.332 44.265 38.02 17.113 16.243-13.493 23.438-17.294 32.736-17.294 11.444 0 25.617 15.798 34.364 38.304 7.29 18.758 7.607 21.559 5.948 52.628-6.11 114.466-4.866 104.626 8.002 104.626 11.583 0 9.8.731 11.775 13.896 1.085 7.24 1.231 21.115.324 30.833-1.087 11.645-.167 23.403 2.699 34.485 2.392 9.25 5.041 21.12 5.887 26.378 1.092 6.78 2.253 8.435 3.993 5.69 3.544-5.594 3.093-31.307-.743-42.31-2.517-7.221-2.439-14.616.336-31.704 3.26-20.077 3.134-23.025-1.274-29.753-2.691-4.108-10.537-3.404-13.127-1.756-6.906 4.392-15.315-3.26 4.546-13.562 3.473-1.801 9.666 2.553 12.786 5.674 5.042 5.041 5.682 9.557 5.748 40.538.041 19.175.369 44.251.727 55.725.64 20.443.46 21.034-8.956 29.444-9.308 8.313-10.29 8.537-31.293 7.145-11.926-.79-31.924-2.95-44.441-4.8-31.03-4.587-58.519-2.195-80.438 6.999-9.82 4.118-24.476 8.272-32.57 9.231-11.676 1.383-17.098 3.926-26.241 12.308-6.338 5.811-23.606 17.256-38.373 25.433-25.129 13.915-27.088 14.54-30.581 9.764-5.315-7.269-4.63-20.424 2.216-42.59 4.68-15.15 5.728-24.77 4.919-45.104-1.298-32.593-6.709-44.9-22.523-51.228-16.91-6.766-26.62-5.89-30.56 2.757-4.518 9.918-4.194 15.205 2.389 38.96 7.079 25.546 7.17 41.034.384 65.503-5.79 20.879-16.546 39.32-26.89 46.097-9.386 6.15-29.223 9.075-47.529 7.007zm-60.456-15.893c17.983-22.344 15.6-63.326-7.663-131.751-13.507-39.73-18.537-74.458-16.085-111.046 2.124-31.7 5.795-46.558 19.862-80.398 8.569-20.61 10.362-28.382 10.362-44.897 0-23.398-4.579-36.027-19.548-53.92-5.894-7.044-13.143-16.967-16.11-22.052-5.71-9.786-12.705-11.832-18.126-5.3-1.8 2.17-7.375 14.65-12.387 27.736-8.804 22.983-9.112 25.24-9.067 66.463.04 35.682 1.382 49.194 8.199 82.498 10.09 49.296 11.076 82.923 2.918 99.552-7.082 14.434-17.538 18.729-28.351 11.644-12.075-7.911-16.302-22.124-17.422-58.568-.553-17.993-1.794-36.555-2.758-41.249-2.421-11.788-11.93-21.336-21.25-21.336-17.176 0-28.133 23.348-28.207 60.103-.047 23.725-4.396 32.014-13.794 26.291-11.061-6.735-29.818-83.262-29.193-119.109.448-25.709 6.659-44.035 21.612-63.773 26.468-34.937 33.129-62.327 20.757-85.353-3.717-6.917-10.184-15.134-14.37-18.26-6.864-5.124-8.787-5.33-19.567-2.101-21.99 6.588-31.965 22.794-45.667 74.188-10.661 39.991-10.586 107.69.216 192.022 6.164 48.13 18.593 81.96 44.386 120.817 28.333 42.684 35.253 48.075 49.184 38.317 12.469-8.733 15.242-18.925 13.335-48.997-1.7-26.782-1.527-27.904 5.566-36.174 7.319-8.534 7.319-8.534 14.492 0 3.945 4.694 7.865 11.735 8.711 15.647 3.176 14.672 12.066 47.295 15.505 56.895 15.951 44.526 21.88 57.902 29.523 66.61 11.05 12.59 19.635 16.128 35.712 14.718 9.776-.857 14.207-2.981 19.225-9.217zm102.372 4.799c10.16-6.195 17.824-19.41 24.693-42.578 6.267-21.139 5.746-41.87-1.688-67.138-5.213-17.719-5.759-23.22-3.24-32.655 3.511-13.155 1-14.47-7.353-3.852-7.074 8.993-7.42 19.74-1.367 42.401 7.396 27.69 6.006 43.942-5.905 69.024-5.706 12.014-13.556 26.017-17.446 31.116-6.258 8.205-6.482 9.27-1.948 9.26 2.818-.006 9.232-2.516 14.254-5.578zm-23.3-3.497c9.921-7.804 28.937-48.354 31.407-66.971 1.33-10.032.2-19.832-4.044-35.074-6.025-21.634-5.52-33.28 2.056-47.436 4.718-8.816 21.663-12.795 39.822-9.351 31.78 6.027 42.072 18.926 44.957 56.34 1.411 18.294.421 26.92-5.896 51.384-4.176 16.17-6.852 31.73-5.948 34.581 1.497 4.716 3.53 4.213 22.586-5.59 42.865-22.049 50.643-32.214 51.644-67.492 1.298-45.76-19.116-97.987-51.489-131.732-35.389-36.888-41.497-44.383-49.846-61.162-4.671-9.388-10.487-26.67-12.923-38.405-2.437-11.734-6.71-26.456-9.496-32.715-5.482-12.316-28.786-35.56-35.652-35.56-2.327 0-5.51-2.39-7.075-5.313-5.614-10.49-38.664-10.613-45.187-.168-1.831 2.933-4.142 15.928-5.133 28.877-1.657 21.635-.94 26.54 8.85 60.525 22.701 78.799 26.42 103.335 19.914 131.39-4.202 18.117-19.811 51.032-29.089 61.336-4.073 4.525-4.053 6.28.226 19.53 6.828 21.14 6.325 57.878-.988 72.221-7.37 14.456-7.323 14.734 3.556 21.367 12.328 7.517 27.755 7.278 37.749-.582zM462.1 375.486c-1.284-2.058-7.172-18.382-13.084-36.277-16.51-49.97-14.521-79.833 5.318-79.833 3.897 0 10.928 7.583 22.534 24.3 32.095 46.228 38.759 57.81 39.044 67.86.427 15.068-4.519 18.86-24.023 18.418-12.2-.275-18.248.94-22.123 4.447-4.275 3.869-5.795 4.084-7.666 1.085zm11.62-16.199c-10.696-26.588-15.667-49-15.036-67.784.745-22.15-.944-26.496-8.464-21.774-3.496 2.195-5.074 7.767-5.677 20.042-.672 13.692 1.117 22.394 9.187 44.686 5.511 15.225 10.728 28.828 11.593 30.227 2.762 4.469 10.392-.436 8.397-5.397zm34.414-1.437c2.14-8.529-4.95-22.67-26.04-51.927-16.121-22.366-16.121-22.366-14.686-1.03 1.74 25.87 11.517 53.403 20.207 56.908 11.535 4.654 18.706 3.273 20.52-3.951zM374.851 568.745c12.766-13.961 16.47-25.245 16.107-49.073-.286-18.828-1.926-26.442-9.497-44.094-15.781-36.797-22.967-62.934-26.375-95.94-3.76-36.412-.764-62.803 10.743-94.66 3.674-10.17 8.632-24.25 11.018-31.292 5.69-16.792 11.49-59.947 9.255-68.855-2.686-10.7-16.704-26.756-33.37-38.221-15.017-10.33-15.017-10.33-1.978 6.413 7.172 9.209 14.426 21.863 16.122 28.122 5.396 19.917 3.728 43.78-4.375 62.585-24.609 57.117-30.381 92.32-22.785 138.945 2.672 16.397 10.537 46.982 17.478 67.966 18.032 54.513 21.814 95.003 10.9 116.681-4.765 9.463-1.268 10.2 6.757 1.423zm-137.15-38.093c11.64-11.639 12.955-16.268 9.646-33.945-1.736-9.274-2.476-25.182-1.646-35.352 1.07-13.095.387-20.027-2.34-23.755-9.112-12.453-14.19 5.018-10.016 34.456 3.485 24.569-.911 39.213-15.168 50.53-7.429 5.898-8.204 7.543-4.649 9.862 6.59 4.299 19 3.377 24.173-1.796zm424.037-25.551c24.782-10.037 26.16-10.262 52.965-8.667 15.136.901 38.582 3.71 52.1 6.244 22.516 4.22 25.163 4.225 31.51.067 8.395-5.501 9.095-16.945 2.263-36.995-3.59-10.537-4.28-19.604-2.998-39.386 1.749-27-.476-36.136-8.796-36.118-2.683.006-15.119 3.888-27.636 8.627-37.201 14.085-54.553 17.426-65.894 12.688-5.254-2.196-10.726-7.131-12.198-11.003-3.508-9.226-4.243-35.55-1.646-58.983 3.877-34.993-4.828-60.118-38.919-112.332-18.859-28.884-25.008-42.604-30.788-68.69-4.985-22.5-11.51-29.192-28.463-29.192-7.656 0-18.125 1.843-23.263 4.094-5.138 2.251-12.7 4.795-16.805 5.653-4.105.858-10.462 3.988-14.126 6.955-6.662 5.395-6.662 5.395 9.53 22.883 20.45 22.088 27.254 33.885 41.984 72.784 16.546 43.696 29.93 98.26 35.565 145.006 5.273 43.735 6.887 99.379 3.365 116.001-2.258 10.655-2.249 10.668 7.272 10.668 5.243 0 20.983-4.637 34.978-10.304zm400.516-2.59c28.83-8.573 45.376-18.765 52.962-32.622 16.73-30.56 1.56-72.512-25.94-71.73-9.16.26-19.473 7.525-19.473 13.718 0 5.823-27.174 31.472-35.577 33.582-9.267 2.325-23.917-5.465-29.248-15.553-2.299-4.35-3.326-14.268-2.741-26.468 1.089-22.712 5.052-27.387 23.305-27.494 32.454-.191 47.106-10.796 47.106-34.094 0-19.098-12.275-45.492-21.156-45.492-2.035 0-11.23 7.734-20.431 17.187-23.245 23.88-35.032 25.712-46.46 7.222-15.592-25.229 3.2-60.634 33.74-63.568 18.668-1.794 24.165-7.838 23.887-26.264-.267-17.656-7.603-30.493-21.568-37.738-14.565-7.557-24.123-3.382-39.958 17.452-18.334 24.12-27.897 29.553-49.67 28.211-16.885-1.04-17.963-.726-19.576 5.702-2.875 11.454 1.01 58.288 5.741 69.228 14.46 33.428 24.338 106.49 16.403 121.316-2.819 5.267-1.868 6.901 8.127 13.973 12.929 9.147 13.884 12.226 5.433 17.504-6.003 3.749-6.001 3.76 2.133 12.323 14.123 14.868 24.246 20.438 43.496 23.933 26.66 4.84 52.497 4.718 69.465-.328zm-126.578-36.577c9.217-6.8 9.217-6.8-.2-12.62-19.756-12.21-28.792-32.732-31.88-72.406-2.431-31.228-6.497-42.835-25.63-73.171-8.39-13.3-16.655-29.301-18.37-35.56-4.567-16.663-3.835-39.619 1.627-51.073 5.631-11.81 3.676-15.004-6.906-11.283-9.865 3.47-14.845 13.443-14.898 29.836-.063 19.69 6.557 37.798 26.97 73.77 20.91 36.842 25.24 49.594 29.956 88.187 3.53 28.904 9.21 45.107 21.42 61.116 4.197 5.502 7.87 10.004 8.162 10.004.293 0 4.68-3.06 9.75-6.8zM403.972 434.75c11.495-22.726 12.75-27.25 13.788-49.693.937-20.26-.224-29.798-6.47-53.14-4.187-15.646-10.19-38.688-13.34-51.205-7.955-31.6-9.328-33.4-15.088-19.775-19.4 45.895-26.16 81.986-21.409 114.284 6.814 46.308 19.679 87.455 26.713 85.438 1.738-.499 8.85-12.158 15.806-25.909zm737.063.188c4.152-18.554-.018-36.956-9.832-43.386-10.655-6.982-22.341-9.354-30.133-6.118-6.934 2.88-6.952 2.967-.85 4.049 9.314 1.65 23.327 17.494 26.764 30.26 1.668 6.192 2.605 18.156 2.084 26.587-.912 14.764-.77 15.11 3.847 9.4 2.637-3.261 6.29-12.618 8.12-20.792zm-102.963-.896c4.153-2.505 11.391-9.767 16.085-16.138 4.694-6.37 15.336-18.18 23.648-26.243 13.141-12.746 14.86-15.67 13.171-22.398-1.74-6.933-2.425-7.305-6.579-3.567-6.884 6.194-36.346 15.342-56.268 17.472-17.493 1.87-17.493 1.87-19.397 14.565-2.567 17.115.303 28.263 9.045 35.14 8.784 6.909 10.605 7.014 20.295 1.17zm-109.455-7.536c5.067-18.91-2.423-71.02-15.057-104.748-7.235-19.314-11.39-50.155-9.463-70.22.958-9.967.199-16.375-2.295-19.38-3.835-4.62-23.265-15.453-27.718-15.453-4.934 0-9.104 14.81-9.104 32.338 0 18.829 2.37 24.739 26.26 65.499 12.245 20.89 19.256 44.933 19.256 66.035 0 15.445 9.873 52.33 14.007 52.33 1.319 0 3.17-2.88 4.114-6.4zm-319.65-27.539c-1.895-11.843-5.3-26.014-7.565-31.49-5.186-12.536-19.288-27.382-32.464-34.176-5.579-2.877-16.092-12.194-23.364-20.706-12.983-15.197-17.35-25.41-28.84-67.443-5.643-20.647-18.505-40.412-33.243-51.089-16.244-11.767-19.45-10.875-7.691 2.14 13.138 14.543 21.485 32.62 26.703 57.83 6.729 32.51 14.758 46.548 43.73 76.462 14.396 14.864 30.523 32.912 35.837 40.106 9.987 13.52 26.63 47.876 27.21 56.17.254 3.619.656 3.438 1.73-.778.77-3.02-.15-15.182-2.044-27.026zm560.475 25.355c10.176-7.247 19.87-22.743 19.751-31.578-.13-9.683-5.612-15.646-19.498-21.201-14.963-5.987-24.923-20.693-29.34-43.32-1.741-8.92-5.708-19.871-8.814-24.336-6.674-9.591-4.616-11.753 13.82-14.518 20.424-3.063 34.027 2.13 62.23 23.753 34.974 26.817 38.914 27.858 52.572 13.888 8.998-9.203 25.843-39.649 25.843-46.709 0-2.895-3.837-3.368-16.554-2.039-25.955 2.713-45.809-4.305-62.443-22.07-16.763-17.904-37.633-29.186-49.263-26.632-9.613 2.111-10.837-1.655-2.985-9.189 9.578-9.19 12.756-18.92 12.412-37.994-.475-26.324-8.748-46.211-28.935-69.557-17.533-20.277-34.349-32.625-44.465-32.65-7.604-.018-28.462 15.087-42.43 30.728-10.862 12.163-25.516 20.463-36.13 20.463-6.842 0-5.422 5.885 6.914 28.633 6.995 12.9 11.107 16.989 22.203 22.08 22.387 10.27 31.535 37.43 21.038 62.458-6.87 16.38-3.489 27.408 10.825 35.31 23.2 12.808 30.743 36.23 20.77 64.495-3.619 10.258-3.614 12.951.039 21.693 3.653 8.744 5.417 9.982 14.23 9.982 22.905 0 38.225 15.545 38.225 38.788 0 13.598.65 15.262 5.961 15.262 3.28 0 9.59-2.583 14.024-5.74zm-82.37-199.794c-1.377-3.52-6.557-16.442-11.51-28.715-4.954-12.273-8.334-24.07-7.51-26.214 2.007-5.232 39.69-24.014 48.178-24.014 7.926 0 16.17 8.111 16.13 15.87-.063 12.597-31.87 69.473-38.85 69.473-2.164 0-5.06-2.88-6.438-6.4zm11.115-7.704c2.383-4.452.85-9.876-7.636-27.025-11.189-22.613-16.987-27.683-13.962-12.21 1.757 8.985 15.924 44.805 17.722 44.805.492 0 2.237-2.506 3.876-5.57zm18.82-32.472c7.976-17.13 8.834-29.649 2.206-32.192-4.942-1.896-29.496 10.046-29.496 14.346 0 6.313 15.243 35.68 17.724 34.147 1.526-.943 5.83-8.278 9.566-16.3zm-844.795 196.64c.201-14.474.761-34.937 1.244-45.474.814-17.743.24-19.949-7.785-29.87-4.765-5.892-10.76-11.125-13.322-11.63-4.088-.805-3.936.761 1.25 12.802 4.752 11.033 5.561 17.06 4.135 30.787-2.16 20.78 2.157 53.422 8.304 62.804 2.484 3.791 4.807 6.894 5.162 6.895.355.001.81-11.84 1.012-26.314zm434.866 17.7c-1.04-4.738-1.953-24.58-2.03-44.096-.077-20.103-1.896-43.097-4.196-53.05-4.377-18.945-28.207-71.988-35.693-79.449-2.519-2.51-6.621-8.91-9.117-14.223-2.496-5.313-7.574-14.622-11.284-20.687-3.71-6.064-7.559-16.103-8.55-22.308-2.545-15.91-12.022-33.179-20.273-36.938-9.735-4.436-11-1.759-4.475 9.463 3.072 5.282 7.122 17.562 9.001 27.29 2.063 10.679 7.682 24.767 14.181 35.56 54.553 90.584 53.636 87.603 51.488 167.331-.742 27.534.753 33.49 9.27 36.932 11.363 4.591 13.71 3.42 11.678-5.826zm494.706-8.817c2.96-16.51-1.786-24.296-20.194-33.12-18.368-8.806-23.494-16.195-23.557-33.95-.058-16.468-5.196-26.95-12.648-25.799-6.258.967-6.347 1.701-1.816 14.998 1.6 4.694 3.61 13.192 4.468 18.884 2.295 15.241 12.672 28.638 27.727 35.795 15.66 7.446 23.456 19.792 20.957 33.192-1.04 5.58-.752 7.275.781 4.584 1.337-2.347 3.264-8.91 4.281-14.584zm-443.725 1.132c13.982-5.602 13.982-5.602 13.332-25.619-.357-11.01.822-30.725 2.62-43.812 5.512-40.127 4.479-75.287-2.77-94.248-13.655-35.72-27.333-41.556-50.46-21.532-7.527 6.518-19.446 14.365-26.487 17.438-7.04 3.073-13.205 5.932-13.699 6.353-.494.421 2.848 8.256 7.426 17.41 18.854 37.704 21.553 49.775 22.294 99.702.376 25.375 2.028 48.587 3.677 51.668 2.784 5.203 3.943 5.337 16.54 1.919 7.45-2.022 19.837-6.197 27.527-9.279zm329.153-44.971c11.052-24.985 6.164-47.227-12.37-56.284-14.056-6.87-18.49-3.79-9.657 6.707 10.591 12.587 16.723 31.484 15.578 48.013-.552 7.96-.61 14.474-.132 14.473.48-.001 3.44-5.81 6.58-12.909zm-54.324-45.951c27.123-27.123 29.376-33.63 11.843-34.205-5.768-.19-16.578-.663-24.023-1.053-15.436-.81-25.483 6.084-32.347 22.194-5.238 12.294-4.912 17.6 1.758 28.54 8.858 14.527 14.98 12.312 42.769-15.476zM170.782 280c5.33-27.476 16.28-50.187 31.314-64.949 21.913-21.517 26.567-33.564 25.015-64.746-1.429-28.694-4.393-37.05-16.612-46.828-8.183-6.548-8.183-6.548-3.697 4.187 10.583 25.329 2.855 60.594-19.303 88.082-13.243 16.43-21.672 37.67-23.893 60.21-1.754 17.794-.125 40.401 2.91 40.401.601 0 2.52-7.36 4.266-16.357zm1109.371-11.062c8.25-1.65 19.957-13.476 16.632-16.801-.754-.754-6.007.566-11.673 2.933-13.063 5.458-39.642 5.555-50.03.183-4.385-2.267-11.695-8.348-16.245-13.513-13.043-14.804-23.956-22.192-32.782-22.192-9.325 0-10.901 4.433-2.522 7.093 3.096.982 13.686 9.963 23.534 19.957 9.848 9.994 21.076 19.437 24.953 20.983 8.148 3.252 34.89 4.005 48.134 1.357zm-229.832-11.697c11.323-13.556 14.324-37.136 6.622-52.03-2.379-4.6-9.74-11.095-16.357-14.432-12.032-6.067-12.032-6.067-5.767.722 15.426 16.716 20.15 49.27 9.175 63.223-4.4 5.593-4.872 7.496-1.863 7.496 2.218 0 5.904-2.24 8.19-4.979zm-80.084-52.603c0-4.375-3.84-15.152-8.535-23.948-4.694-8.796-8.534-19.504-8.534-23.795 0-8.127-7.475-12.637-14.128-8.525-4.218 2.607.254 20.857 9.761 39.838 3.54 7.067 7.299 17.596 8.353 23.398 1.847 10.165 2.12 10.375 7.5 5.769 3.077-2.635 5.583-8.352 5.583-12.737zm209.817-45.929c-2.342-28.844-19.683-56.74-42.88-68.98-12.127-6.4-16.212-2.731-4.656 4.18 19.665 11.765 42.4 55.907 42.628 82.773.074 8.744.519 9.408 3.204 4.785 1.815-3.125 2.526-12.628 1.704-22.758zm59.618 387.323c-3.795-3.546-8.92-10.38-11.388-15.189-8.09-15.757-11.209-16.471-23.595-5.404-6.126 5.474-15.619 11.209-21.095 12.744-10.65 2.987-25.603 3.777-25.603 1.354 0-.809 5.44-7.089 12.09-13.956 6.65-6.866 16.209-17.515 21.242-23.663 9.152-11.178 9.152-11.178-.732-26.52-14.016-21.755-13.035-22.841 16.473-18.228 12.085 1.889 13.515 1.545 13.54-3.253.039-7.559 13.321-35.235 16.91-35.235 1.637 0 2.987 4.8 3 10.668.015 5.867.828 17.35 1.81 25.519 1.783 14.85 1.783 14.85 19.07 13.044 17.286-1.807 17.286-1.807 10.281 6.966-3.853 4.825-11.16 11.085-16.239 13.91-6.386 3.554-8.764 6.619-7.71 9.94 2.561 8.068 3.434 50.914 1.068 52.377-1.222.755-5.327-1.528-9.122-5.074zm5.032-23.036c-.924-6.522-2.754-15.9-4.067-20.838-2.415-9.086.417-15.202 7.038-15.202 1.76 0 6.305-3.359 10.099-7.465 6.243-6.758 6.358-7.31 1.207-5.824-21.956 6.33-20.412 7.484-22.701-16.947-1.927-20.56-2.346-21.642-5.87-15.154-2.087 3.842-4.602 11.643-5.588 17.334-1.793 10.348-1.793 10.348-18.666 5.239-9.28-2.81-16.872-4.074-16.872-2.81 0 1.263 4.506 8.993 10.013 17.177 10.012 14.879 10.012 14.879.01 24.599-10.292 9.995-20.092 25.932-17.524 28.499.795.796 8.78-3.804 17.741-10.221 8.962-6.418 17.977-11.668 20.033-11.668 2.056 0 5.688 3.2 8.071 7.112l8.725 14.314c6.164 10.108 10.364 6.015 8.357-8.145zm-305.76-394.723c0-1.699 4.317-11.852 9.594-22.562 9.593-19.474 9.593-19.474-4.979-22.89-8.014-1.88-15.705-4.07-17.09-4.87-4.148-2.393 10.148-8.841 23.854-10.76 12.802-1.791 12.802-1.791 11.848-20.017-.618-11.811.134-18.225 2.138-18.225 1.7 0 7.538 6.188 12.973 13.752 9.88 13.753 9.88 13.753 25.598 12.45 8.713-.723 15.718-.127 15.718 1.338 0 1.453-5.761 7.552-12.802 13.554-7.04 6.001-12.801 12.03-12.801 13.398 0 3.683 16.943 13.428 29.159 16.771 5.867 1.606 10.668 3.895 10.668 5.086 0 8.908-22.33 11.907-42.86 5.757-10.064-3.016-11.548-2.654-21.665 5.278-17.84 13.985-29.353 18.668-29.353 11.94zm18.199-10.663c.806-1.305 6.525-5.878 12.71-10.164 10.907-7.56 11.512-7.654 20.209-3.157 4.962 2.567 13.65 4.247 19.461 3.764 10.497-.873 10.497-.873-2.304-6.86-7.041-3.294-15.023-8.494-17.737-11.556-4.749-5.357-4.507-5.985 6.4-16.637 6.236-6.088 11.337-11.954 11.337-13.037 0-1.082-4.801-.862-10.668.49-8.67 1.997-11.372 1.54-14.426-2.433-16.19-21.071-15.007-20.9-14.117-2.046.806 17.069.806 17.069-7.728 16.324-4.694-.41-11.735.056-15.646 1.033-6.372 1.593-5.72 2.193 6.26 5.768 16.404 4.895 18.742 8.207 11.44 16.201-3.111 3.405-7.759 10.35-10.329 15.436-3.991 7.897-4.064 9.245-.5 9.245 2.294 0 4.832-1.067 5.638-2.371zm-664.16-30.414c-6.956-6.955-7.808-7.091-26.961-4.323-10.879 1.572-22.02 2.884-24.757 2.915-9.79.11-4.715-8.718 10.667-18.558 8.606-5.504 15.631-11.57 15.612-13.477-.018-1.908-3.219-9.04-7.112-15.85-11.642-20.364-8.66-22.451 13.02-9.111 13.616 8.378 13.616 8.378 23.074-4.18 13.467-17.88 17.608-16.871 15.22 3.711-1.91 16.443-1.91 16.443 8.254 21.29 5.59 2.666 10.164 6.152 10.164 7.748s-5.836 4.463-12.968 6.37c-10.663 2.852-12.712 4.442-11.535 8.947 1.657 6.333-.931 21.7-3.654 21.7-1.014 0-5.075-3.232-9.025-7.182zm8.096-14.978c-.635-6.072 1.047-8.39 8.792-12.105 9.578-4.596 9.578-4.596 1.012-8.144-7.976-3.304-8.471-4.367-7.188-15.418 1.378-11.87 1.378-11.87-6.196-2.624-9.103 11.111-10.6 11.253-22.556 2.134-12.453-9.499-13.456-9.016-7.39 3.556 9.069 18.79 8.528 21.262-6.367 29.134-7.427 3.925-13.508 7.865-13.512 8.754-.004.89 9.1.443 20.232-.993 16.929-2.185 20.964-1.889 24.66 1.809 5.833 5.831 9.487 3.211 8.513-6.103z" style="fill:#000;fill-opacity:1;stroke-width:2.84477"/><path d="M320.777 583.942c-12.102-3.989-22.02-13.978-29.886-30.102-8.265-16.943-22.81-58.836-30.193-86.967-5.536-21.094-7.737-27.26-11.784-33.007-8.645-12.28-11.122-12.327-19.368-.362l-4.639 6.732.35 29.108c.334 27.73.202 29.385-2.781 34.964-3.687 6.894-11.954 14.117-17.57 15.35-8.2 1.802-17.367-7.372-37.392-37.422-30.562-45.862-41.09-74.791-48.236-132.544-5.365-43.364-6.403-59.843-6.439-102.229-.045-53.819 1.774-67.264 14.302-105.753 6.655-20.443 13.483-33.351 21.267-40.203 6.59-5.8 18.94-11.268 25.433-11.259 12.42.017 28.33 22.394 29.59 41.62 1.181 17.993-6.334 37.223-24.233 62.013-18.302 25.35-22.613 38.685-22.56 69.798.039 23.665 2.486 40.466 10.546 72.415 7.92 31.391 15.257 46.029 23.073 46.029 6.382 0 8.13-5.032 9.443-27.202.654-11.02 2.17-24.476 3.369-29.905 4.234-19.169 13.445-30.316 25.048-30.316 4.732 0 6.565.948 11.634 6.017 3.642 3.642 6.616 8.24 7.534 11.651.834 3.1 2.163 17.682 2.951 32.407 2.325 43.393 3.908 52.835 10.536 62.85 3.927 5.935 12.587 11.159 18.496 11.159 8.404 0 18.416-10.811 21.546-23.266 4.218-16.782 3.016-44.764-3.391-78.962-9.803-52.321-9.64-50.723-9.709-95.179-.072-46.276-.453-43.705 10.7-72.166 7.826-19.974 11.118-25.127 16.05-25.127 3.562 0 5.415 1.996 20.732 22.332 23.509 31.211 24.287 33.181 24.322 61.566l.027 21.15-6.167 15.511c-18.605 46.794-21.271 58.43-22.288 97.293-1.08 41.316 2.206 61.942 17.217 108.028 15.428 47.369 20.658 80.975 16.038 103.058-2.273 10.863-9.33 23.391-15.462 27.45-5.635 3.728-21.412 5.676-28.106 3.47z" style="fill:#10d4a0;fill-opacity:1;stroke:none;stroke-width:1.41005"/><path d="M397.228 580.222c-10.78-5.387-11.883-8.228-6.988-17.994 9.086-18.13 10.163-53.677 2.377-78.508-1.512-4.82-2.757-9.853-2.767-11.182-.01-1.33 3.455-7.607 7.7-13.95 8.889-13.28 19.932-37.566 24.176-53.17 2.185-8.029 2.926-15.11 2.926-27.957 0-20.201-3.596-39.619-15.005-81.007-16.163-58.636-16.836-61.639-16.864-75.27-.027-13.215 1.723-28.712 4.345-38.461 1.201-4.469 2.588-5.99 7.484-8.213 11.613-5.272 34.552-2.565 38.347 4.526.786 1.469 4.914 4.32 9.173 6.334 9.132 4.32 28.889 24.311 33.542 33.94 1.64 3.396 5.87 17.143 9.397 30.548 12.36 46.971 16.025 53.216 57.082 97.27 26.973 28.944 40.448 50.74 50.483 81.66 7.106 21.894 8.708 32.235 8.708 56.203 0 23.871-1.71 31.562-9.363 42.129-5.517 7.615-20.872 18.248-41.655 28.844-16.907 8.62-20.482 9.789-22.07 7.22-1.15-1.862 1.537-17.183 6.672-38.048 9.166-37.241 6.056-74.97-7.538-91.45-8.54-10.355-26.642-16.798-47.194-16.798-17.075 0-23.499 3.26-29.3 14.872-5.516 11.04-5.591 23.956-.264 45.345 5.195 20.854 5.068 33.649-.498 50.26-4.724 14.1-13.603 32.583-21.099 43.92-9.258 14-24.958 17.357-41.807 8.937zm73.313-206.645c3.72-2.65 7.168-3.322 21.09-4.114 18.192-1.036 20.447-3.758 22.735-10.321 4.706-13.502.645-17.01-28.843-62.415-20.813-32.046-25.66-37.218-31.8-37.044-6.405.183-9.606 2.778-12.249 9.083-1.737 4.144-3.227 6.444-2.606 19.42.822 17.193 3.486 34.289 12.362 59.883 10.855 31.3 10.967 31.45 19.311 25.508z" style="fill:#ff9e00;fill-opacity:1;stroke:none;stroke-width:1.43374"/><path d="M619.436 513.918c-.412-.413-.106-3.744.681-7.403 1.932-8.982 1.731-62.616-.326-87.026-4.948-58.714-17.167-116.248-35.633-167.78-15.089-42.107-23.11-56.566-45.312-81.668-7.482-8.46-13.603-15.805-13.603-16.323 0-1.351 5.79-6.435 9.521-8.359 1.747-.9 10.78-4.152 20.074-7.226 13.315-4.404 19.023-5.589 26.926-5.589 18.701 0 22.715 4.306 30.185 32.379 6.32 23.751 12.95 37.774 33.02 69.85 18.244 29.154 29.098 45.131 33.742 61.225 2.945 10.206 4.184 17.012 3.601 36.787-1.087 36.894-2.592 59.56-.723 65.13 2.23 6.647 9.712 13.235 17.423 15.344 9.445 2.582 22.871-1.925 57.896-13.795 34.355-11.644 37.475-12.582 40.366-3.824.959 2.907 1.426 15.104 1.228 32.09-.3 25.677-1.498 30.45 1.667 39.7 2.198 6.424 3.409 13.235 3.468 19.501.085 9.143-.143 9.839-4.515 13.748-5.45 4.874-10.335 5.215-28.531 1.99-20.093-3.56-44.877-6.325-64.157-7.154l-18.331-.789-16.216 5.872c-34.914 12.643-49.44 16.331-52.45 13.32zM1011.077 504.651c-24.439-2.574-37.527-6.82-50.061-16.243-4.626-3.477-10.425-8.864-12.885-11.97l-4.473-5.649 5.21-4.773c6.494-5.947 5.801-7.7-7.02-17.776-5.006-3.934-9.092-7.57-9.08-8.082.011-.51.935-3.466 2.053-6.568 6.03-16.742-1.37-75.234-14.266-112.749-2.716-7.9-5.759-20.7-6.885-28.961-2.362-17.32-2.713-45.524-.615-49.445 1.298-2.425 3.067-2.727 15.96-2.727 21.128 0 27.3-2.208 38.836-13.895 5.121-5.188 13.39-14.097 18.375-19.798 13.95-15.954 19.986-18.424 31.828-13.026 14.794 6.744 21.885 18.151 22.9 36.837.594 10.917.35 12.441-2.716 16.932-4.19 6.138-7.762 7.886-20.158 9.866-17.398 2.78-28.608 11.158-35.766 26.731-6.808 14.814-3.826 33.456 7.169 44.819 9.81 10.138 19.343 7.083 40.78-13.066 17.236-16.2 19.89-18.107 23.57-16.94 7.599 2.413 17.442 26.528 17.576 43.063.186 22.825-10.49 31.359-42.191 33.73-17.53 1.312-20.638 2.464-24.192 8.966-2.037 3.726-2.483 8.101-2.483 24.39 0 19.537.061 19.928 3.926 24.996 4.622 6.063 13.692 11.664 21.073 13.013 4.267.78 6.489.24 11.785-2.863 10.529-6.17 26.849-22.593 30.843-31.036 2.817-5.953 4.773-8.07 9.643-10.426 11.421-5.53 20.787-3.195 30.233 7.537 7.962 9.044 10.96 18.247 10.824 33.217-.257 28.18-14.712 44.202-50.78 56.286-12.113 4.058-32.325 7.343-42.87 6.967-2.715-.097-9.979-.707-16.143-1.357zM1150.75 426.424c-.471-1.227-.857-6.28-.857-11.228 0-16.772-8.472-31.12-21.608-36.592-2.966-1.236-9.629-2.62-14.806-3.077-5.176-.457-10.422-1.705-11.656-2.774s-3.407-5.365-4.829-9.546c-2.577-7.583-2.575-7.632.83-18.667 4.13-13.38 4.588-33.333.951-41.38-4.197-9.289-10.608-16.457-20.612-23.048-16.32-10.752-18.281-16.427-12.084-34.978 7.14-21.372 4.562-39.733-7.508-53.48-2.376-2.706-8.892-7.427-14.48-10.49-5.59-3.064-11.945-7.733-14.124-10.377-4.608-5.59-18.283-32.232-18.268-35.592.01-1.657 2.267-2.728 8.232-3.901 10.929-2.15 19.255-7.66 36.209-23.957 14.329-13.774 26.798-23.07 34.591-25.786 7.003-2.442 20.02 4.891 35.09 19.767 28.993 28.617 39.84 50.578 40.147 81.283.173 17.272-2.058 25.582-8.993 33.503-5.95 6.794-9.113 12.173-7.883 13.402.46.46 5.146.882 10.412.937 13.444.14 24.38 5.939 42.495 22.532 24.616 22.549 35.62 27.038 63.518 25.91 17.348-.701 19.741-.427 19.741 2.259 0 3.372-11.458 25.338-18.626 35.706-7.385 10.684-13.26 16.195-19.18 17.995-4.854 1.477-15.063-4.17-36.926-20.425-10.47-7.784-24.383-16.833-30.917-20.109-11.453-5.742-12.341-5.952-24.676-5.835-13.828.131-23.406 2.164-26.23 5.567-1.469 1.77-.901 4.042 3.257 13.033 2.77 5.99 6.692 17.218 8.715 24.952 5.938 22.7 12.218 31.43 28.83 40.072 13.658 7.105 18.46 12.32 18.46 20.048 0 6.175-4.742 16.625-10.822 23.852-8.512 10.116-24.143 16.289-26.394 10.424zm-47.543-204.547c12.277-16.719 28.28-48.925 29.444-59.256.635-5.629.257-6.502-5.149-11.908-5.585-5.585-6.136-5.806-12.887-5.157-8.003.77-39.642 15.73-44.739 21.156-2.698 2.873-2.874 3.914-1.613 9.557 1.909 8.544 18.028 49.422 20.706 52.511 3.84 4.43 7.064 2.866 14.238-6.903z" style="fill:#ff9e00;fill-opacity:1;stroke:none;stroke-width:1.41005"/><path d="M173.562 89.665c-10.832 1.04-21.287 6.496-28.73 14.382-12.262 15.095-17.256 34.433-23.145 52.59-11.161 34.918-9.665 71.998-9.59 108.173.548 40.28 4.637 80.533 12 120.133 5.453 29.338 17.044 57.297 33.02 82.446 10.872 16.807 21.237 34.389 35.748 48.377 3.927 3.889 10.148 6.963 15.344 3.425 8.383-4.641 15.168-12.651 17.875-21.791l-.366-56.742c4.104-5.106 6.783-12.329 13.139-15.022 5.007 1.589 7.925 6.88 10.735 11.082 6.758 13.506 9.262 28.628 13.964 42.908 8.208 26.486 16.125 53.305 28.534 78.192 6.683 12.226 16.88 24.462 31.169 27.347 8.894.713 18.63.31 26.42-4.468 12.506-11.107 17.414-28.717 16.961-45.018-.33-42.09-17.569-81.263-27.895-121.392-8.624-32.992-7.753-67.618-5.104-101.276 3.523-29.516 16.54-56.703 26.897-84.25-.687-15.05.504-30.284-1.845-45.211-3.527-13.429-13.243-24.006-20.916-35.217-6.66-8.312-12.573-17.564-20.812-24.402-5.827-2.397-9.917 4.32-12.133 8.624a267.455 267.455 0 0 0-15.838 41.007c-2.831 16.288-1.477 32.956-2.064 49.409-.526 23.005.615 46.09 5.103 68.704 4.626 26.974 10.958 53.855 9.862 81.327.139 12.239-.368 25.614-8.57 35.592-3.982 5.437-10.34 10.855-17.567 8.505-12.722-3.148-19.6-16.365-20.909-28.538-3.732-24.609-3.01-49.866-6.655-74.572-1.52-7.803-7.138-14.553-13.81-18.613-7.946-3.614-17.317.344-22.217 7.108-11.784 15.338-11.618 35.692-13.428 54.06-1.185 7.777-.159 16.635-4.634 23.39-4.065 2.873-9.09-.229-11.28-3.986-8.924-14.62-12.434-31.78-16.777-48.124-7.516-30.786-11.615-62.985-5.951-94.456 5.22-24.395 24.617-42.007 35.096-64.004 7.728-14.903 12.002-32.971 6.636-49.347-4.321-11.279-10.72-23.117-21.8-28.934-2.024-.919-4.237-1.455-6.467-1.418z" style="fill:#a0a0a0;stroke:none;stroke-width:.705023"/><path d="M177.046 88.888c-18.11-.05-34.453 12.288-41.731 28.489-6.007 12.278-10.06 25.48-14.314 38.371-5.417 17.27-8.287 35.38-9.018 53.48-1.334 21.99-.497 44.14-.494 66.192.59 28.38 3.466 56.697 7.414 84.777 1.374 6.2 2.35 12.705 2.803 18.945 2.305 7.43 3.219 15.394 5.346 22.965 1.483 6.13 4.089 12.189 5.491 18.159 3.348 7.336 6.024 15.127 9.734 22.354.22 2.719 3.068 4.636 3.898 7.38 2.2 4.432 5.044 8.813 6.862 13.223 1.995 2.147 3.006 5.08 5.054 7.318 11.166 16.534 21.223 34.51 36.736 47.454 4.007 3.499 10.178 5.277 14.627 1.426 6.406-3.98 11.643-9.649 15.498-16.042 1.079-1.431.83-3.535 1.62-5.334 1.064-18.94-.242-37.957-.206-56.923 4.037-4.867 6.803-11.6 12.7-14.336 7.566 3.823 10.573 12.671 13.71 20.01 4.985 15.166 9.066 31.028 14.165 46.356 7.697 24.587 15.326 49.515 28.537 71.812 8.15 12.16 21.762 23.3 37.293 21.336 8.95-.813 18.838-3.649 23.562-12.013 3.477-5.194 7.147-10.885 8.407-16.915 2.161-1.467.63-4.975 1.704-7.255 2.497-17.526-.03-35.388-3.31-52.637-2.538-11.88-5.807-23.578-9.21-35.188-6.443-19.636-12.2-39.626-16.848-59.84-5.365-23.573-3.563-47.913-3.539-71.933.003-20.665 4.707-41.102 12.09-60.39 2.53-7.136 5.19-14.392 8.248-21.235 2.468-8.384 7.962-16.607 7.233-25.88-.223-14.485.93-29.248-2.718-43.35-1.089-3.08-1.698-6.304-3.996-8.609-2.94-5.347-6.981-10.208-9.816-15.438-9.051-10.37-15.812-22.739-26.48-31.598-5.318-3.531-11.085 1.92-13.133 6.662-3.892 5.542-5.155 12.377-8.585 18.145-.977 3.325-2.35 6.811-3.52 10.213-.7 2.172-2.16 4.158-2.45 6.194-5.056 16.544-3.896 34.25-4.234 51.383.267 15.99-.323 32.067 1.029 48a755.978 755.978 0 0 0 8.481 52.392c4.262 21.664 6.044 43.622 4.787 65.665.238 12.42-4.813 26.108-16.015 32.582-7.518 4.112-15.89-1.649-20.833-7.264-9.283-11.628-8.506-27.445-10.123-41.438-1.343-17.166-2.074-34.36-4.126-51.492-.018-1.676.419-3.346-1.21-4.337-3.127-7.428-8.872-14.868-16.881-17.16-8.242-1.397-16.316 2.98-20.765 9.82-12.474 18.426-11.085 41.68-13.602 62.825-1.014 4.533-.514 10.646-4.546 13.767-6.025 1.328-9.285-5.65-11.675-9.894-9.336-20.217-13.784-42.246-18.212-63.949-4.593-25.46-6.446-51.954-.11-77.269 3.595-11.791 10.255-22.68 17.491-32.498 7.118-11.626 15.188-22.846 20.206-35.647 1.52-2.095 1.274-4.74 2.834-6.629.051-5.392 2.257-10.723 1.876-16.24 1.17-16.384-6.695-32.586-18.675-43.453-2.495-2.046-5.426-3.849-8.022-5.5-.346-.007-.692-.032-1.039-.009zm2.377 1.73c-.244.645.242-1.857 0 0zm148.55 44.464c-.89 1.203.343-1.18 0 0zm-31.019 15.362c-.159.067-.458-.501 0 0zm47.584 7.904c-.326.1.087-.056 0 0zM133.439 419.083c.065-.058.28-.038 0 0zm19.86 41.56c.043-.03.182-.026 0 0zm71.429 40.205c.054.03-.073-.021 0 0z" style="fill:#ff9e00;fill-opacity:1;stroke:none;stroke-width:.705023"/><path d="M237.964 432.552c-3.945.531-5.25 5.083-6.07 8.39-1.761 10.22-.715 20.69.41 30.927 1.404 12.156 2.394 25.047-3.435 36.317-3.299 7.338-9.826 12.294-15.695 17.46-1.72 1.45-3.68 4.22-1.741 6.278 5.271 4.803 13.277 4.917 19.843 3.229 6.169-1.487 10.159-6.89 13.978-11.535 4.19-5.204 5.141-12.171 4.31-18.629-1.154-9.38-3.098-18.637-2.936-28.041-.343-10.29.473-20.62.276-30.936-.16-5.296-2.8-10.75-7.611-13.26a3.549 3.549 0 0 0-1.329-.2z" style="fill:#325b96;fill-opacity:1;stroke:none;stroke-width:.352511"/><path d="M341.2 138.923c-4.717 2.163 10.96 14.934 11.899 17.953 17.393 22.26 20.98 53.069 11.193 79.068-14.251 38.35-30.785 77.926-27.7 119.814 2.395 51.971 25.346 99.94 34.304 150.527 3.134 22.278 4.659 46.046-5.36 66.821 2.467 4.662 7.654-2.802 9.814-4.667 18.496-18.816 18.262-47.853 13.4-72-9.938-32.063-25.332-62.49-30.065-96.016-6.468-37.79-6.35-77.263 7.13-113.669 10.95-32.38 22.337-66.017 20.705-100.633-4.805-15.78-18.335-27.134-30.44-37.56-1.834-1.192-12.582-9.592-14.88-9.638z" style="fill:#325b96;fill-opacity:1;stroke:none;stroke-width:1.48165"/><path d="M250.827 292.931c-3.763 1.061-.873 5.938-.248 8.335 4.195 9.912 7.874 19.993 6.679 30.84-1.647 22.001-1.26 45.109 6.945 65.949 1.736 2.82 2.827 7.365 6.339 8.298 3.413-1.315 1.113-6.406 2.002-9.125.54-26.255 1.91-52.539 1.184-78.795-1.706-7.092-7.224-12.68-11.775-18.153-3.22-2.863-6.79-6.484-11.126-7.349zM204.539 98.852c-2.855 1.822.681 5.549 1.128 7.912 6.16 15.298 5.527 32.505 1.875 48.25-4.464 17.653-14.792 32.854-25.614 47.206-15.636 23.053-21.421 51.61-19.43 79.142.712 4.43.122 11.294 3.087 14.963 3.906 1.312 3.47-5.932 4.226-8.3 4.696-23.41 11.52-47.32 27.272-65.973 10.713-12.939 25.078-24.374 28.874-41.59 3.915-16.664 2.021-34.056-.018-50.848-1.226-11.48-7.77-21.758-17.145-28.355-1.345-.825-2.57-2.401-4.256-2.407zM454.275 267.228c-8.45 1.698-9.752 11.785-10.295 18.908-1.841 16.804 3.283 33.195 9.126 48.719 4.104 10.173 6.886 21.033 12.238 30.628 4.101 4.773 12.14-2.613 8.728-7.549-8.201-20.82-14.775-43.068-14.504-65.805-.659-7.353.526-15.09-1.588-22.221-.845-1.213-2.07-2.741-3.705-2.68zM477.086 427.02c-5.158 2.456-8.363 7.992-11.266 12.732-3.05 6.818-1.418 14.647-1.492 21.888 2.153 15.927 8.68 31.214 7.454 47.538-.556 21.547-11.917 40.876-22.113 59.28-3.023 5.84-7.675 10.67-10.419 16.625.74 3.728 5.835 1.524 8.27.986 13.975-3.884 23.54-16.096 28.581-29.141 7.142-16.916 12.11-35.147 10.676-53.667-.25-17.446-7.157-33.757-9.913-50.782-1.622-8.076 3.174-16.188 2.101-24.3-.305-.738-1.074-1.242-1.88-1.158zM469.423 185.198c-3.156 1.255.65 4.638 1.648 6.273 9.31 11.135 18.156 22.963 23.017 36.804 8.908 22.935 9.791 49.041 24.131 69.81 14.131 21.281 33.583 38.252 50.177 57.516 12.114 12.863 21.714 27.851 29.13 43.81 4.183 8.016 8.365 21.347 12.038 29.56 2.205 2.336 3.006-5.988 2.362-8.07-.863-18.278-4.167-36.548-9.992-53.897-7.158-15.46-20.375-27.432-34.86-35.998-12.912-9.525-24.848-21.273-32.43-35.605-11.453-22.551-14.249-48.358-25.315-71.038-8.722-16.53-22.108-31.316-39.286-39.126a2.253 2.253 0 0 0-.62-.04zM609.252 125.198c-4.346.627-1.933 6.11-.56 8.46 10.798 18.847 10.73 41.739 21.914 60.424 15.262 28.212 34.01 54.578 46.576 84.186 5.124 12.531 8.45 25.814 8.155 39.324.75 25.237-.591 50.534.964 75.74.12 8.819 9.291 13.142 16.832 14.272 2.53.764 5.433-.871 4.753-3.783-1.026-17.872-2.031-35.699-1.989-53.613-.93-19.09-1.1-38.615-6.694-57.045-8.228-23.605-18.42-46.649-31.173-68.17-9.578-12.384-15.892-26.803-23.676-40.301-7.857-14.266-7.91-31.492-16.953-45.282-3.932-6.835-9.807-13.465-18.149-14.212z" style="fill:#325b96;fill-opacity:1;stroke:none;stroke-width:.740825"/><path d="M859.806 207.953c-11.663.845-19.416 11.916-20.346 22.886-4.372 37.648 20.983 69.333 36.288 101.472 10.855 19.86 16.744 41.84 19.281 64.296 2.902 22.913 7.21 46.778 21.752 65.505 3.19 3.271 5.26 9.42 9.954 10.429 5.842-3.493 12.153-7.482 16.171-12.98-3.807-6.317-12.016-9.047-16.85-14.734-16.219-15.26-18.508-38.67-21.366-59.497-1.082-21.088-5.261-42.363-16.184-60.711-11.937-22.964-31.083-44.36-30.644-71.697-.205-12.376.151-25.004 5.627-36.397 1.594-2.877 2.745-8.55-2.167-8.566a10.045 10.045 0 0 0-1.516-.006z" style="fill:#325b96;fill-opacity:1;stroke:none;stroke-width:1.04768"/><path d="M944.136 145.806c-2.464.161-5.213.969-6.797 2.953-1.77 3.727-.604 8.024.06 11.883 2.38 10.976 7.188 21.189 11.96 31.283 3.542 7.616 6.023 15.69 7.605 23.937.59 1.89.663 4.983 3.138 5.363 2.476-.217 4.225-2.388 6.007-3.906 2.9-3.226 4.77-7.494 5.075-11.83.002-5.737-2.305-11.165-4.42-16.4-4.375-10.114-10.36-19.742-12.412-30.706-.132-3.124-.596-6.423-2.655-8.923-1.79-2.29-4.629-3.762-7.562-3.654zM1030.985 185.31c-1.68.133-1.418 2.244-.365 3.02 4.366 4.827 8.641 9.815 11.384 15.734 5.224 10.819 7.77 22.912 6.573 34.925-.523 5.736-2.488 11.452-6.049 15.95-1.27 2.016-3.255 3.984-3.31 6.489.655 2.313 3.638 2.059 5.363 1.217 6.152-2.46 9.67-8.538 12.422-14.213 3.83-8.298 5.658-17.506 5.12-26.64-.244-6.309-1.792-12.69-4.957-18.183-4.653-6.888-11.788-11.61-19.147-15.204-2.316-1.016-4.525-2.66-7.034-3.095z" style="fill:#325b96;fill-opacity:1;stroke:none;stroke-width:.261921"/><path d="M1063.6 285.575a3.174 3.174 0 0 0-3.455 4.513c3.333 6.76 8.994 12.138 12.132 19.058 4.647 9.415 7.856 19.763 7.199 30.307.14 6.075-.329 12.238.498 18.26 2.111 2.157 3.361-1.897 4.2-3.317 6.642-12.782 11.744-27.401 8.862-41.95-2.332-13.826-14.506-25.019-28.284-26.83a12.135 12.135 0 0 0-1.152-.041zM1108.043 383.343c-4.328-.012-8.908 1.328-12.256 4.062-.58 2.847 3.508 2.574 5.31 3.337 10.166 3.987 17.368 13.215 22.348 22.601 6.473 13.977 4.274 29.667 4.682 44.533.069 2.602 3.21 1.533 4.026-.046 6.418-8.089 9.295-18.502 10.635-28.594 1.371-12.098.709-25.876-7.828-35.409-5.67-5.392-13.243-8.705-20.879-10.14-1.998-.29-4.021-.37-6.038-.344zM1145.609 296.06c-3.05-.078-7.058 2.088-5.936 5.675 2.52 9.925 5.974 19.608 7.53 29.74 2.594 14.655 12.413 27.406 25.392 34.486 9.154 4.693 18.953 10.768 22.226 21.166 2.415 5.28.13 11.158 1.364 16.565 1.86 2.266 3.538-1.43 3.823-3.03 2.649-8.662 4.771-18.264 2.071-27.164-4.064-10.561-15.524-14.855-24.657-19.965-7.441-3.75-14.761-9.428-16.886-17.9-2.655-11.264-.247-23.788-6.198-34.264-1.836-3.048-5.045-5.435-8.73-5.309zM1076.853 168.026c-2.845 1.078-1.569 5.04-1.493 7.355 2.488 12.506 7.743 24.272 12.454 36.063 1.932 4.021 3.334 8.513 5.954 12.06 3.064-1.203 4.59-5.044 5.69-8.092 1.704-6.558-2.376-12.843-4.662-18.735-4.646-9.355-8.836-19.18-15.46-27.347-.66-.656-1.48-1.387-2.482-1.304zM1183.906 218.909c-2.65-.054-7.482.93-6.451 4.574 2.283 3.39 6.884 4.071 9.886 6.721 14.904 11.368 26.738 26.386 42.265 36.99 8.409 4.233 18.209 3.787 27.382 4.187 8.621-.215 17.574.277 25.87-2.425 6.432-2.782 12.462-7.725 15.213-14.288.99-2.492-1.867-4.4-4.08-3.407-8.986 2.581-17.757 6.688-27.322 6.468-10.291-.143-21.168 1.309-30.77-3.22-11.233-6.192-18.84-17.016-28.572-25.22-6.444-5.916-14.241-11.184-23.421-10.38zM1127.165 85.514c-2.784-.085-2.923 3.572-.819 4.728 5.423 4.735 11.93 8.212 16.543 13.882 13.408 15.326 22.547 34.048 28.254 53.362 2.349 7.56 2.988 15.525 3.182 23.461-.3 1.89 1.642 4.798 3.478 2.8 4.123-5.354 3.02-12.708 3.21-19.025a83.413 83.413 0 0 0-9.71-39.273c-8.204-16.85-21.729-31.942-39.428-38.922-1.511-.53-3.086-1.07-4.71-1.013z" style="fill:#325b96;fill-opacity:1;stroke:none;stroke-width:.523843"/><g style="fill:#598bc9;fill-opacity:1"><path d="M459.179 629.084c-4.538.137-9.219-.08-13.594 1.325-3.193.924-5.218 4.53-4.288 7.731 1.163 4.09 5.235 6.357 8.972 7.695 5.017 1.816 10.434 1.241 15.634 1.88 2.09.326 2.224 2.86 2.364 4.532.303 7.145-.018 14.389 1.252 21.483 1.176 6.583 3.013 13.43 7.499 18.583 2.707 3.174 6.89 4.296 10.708 5.51 1.693.46 4.226.877 5.225-1.005 1.123-2.511-.524-5.058-1.274-7.416-4.137-10.835-10.28-21.169-12.003-32.664-.427-3.533-.686-7.216.491-10.649.78-2.062 2.664-3.478 4.792-3.922 1.938-.773 4.302-1.45 5.368-3.4.555-2.083-.672-4.327-2.27-5.632-3.429-2.55-7.888-2.898-11.992-3.398-5.61-.51-11.253-.65-16.884-.653zM522.312 619.723c-2.01-.12-4.7.61-5.13 2.88-.325 2.869 2.147 4.962 3.85 6.91 2.534 2.667 5.569 5.275 6.3 9.075.357 2.333.232 5.04-1.625 6.753-2.527 2.556-6.469 2.556-9.78 2.032-3.592-.802-6.383-3.66-7.769-6.983-2.188-4.364-2.179-9.817-5.756-13.446-1.302-1.593-3.521-2.018-5.427-1.406-1.907.339-2.653 2.416-2.45 4.142.49 4.592 2.386 8.886 3.884 13.213 5.063 13.388 10.515 26.645 14.439 40.406.945 3.06 3.207 6.164 6.61 6.549 2.123.107 4.633.46 6.406-.977 1.611-1.635.454-4.05-.19-5.85-1.7-5.306-2.42-10.95-1.96-16.5.102-1.742 1.03-3.58 2.882-3.953 1.865-.46 3.997-.95 5.836-.182 1.76 1.19 1.91 3.6 2.445 5.479 1.036 4.536 1.27 9.416 3.608 13.54 1.308 2.36 4.188 3.246 6.737 2.855 2.362-.064 5.192-1.115 5.7-3.715.762-4.259-.877-8.468-2.046-12.498-3.61-10.8-7.543-21.498-11.876-32.029-2.165-4.848-4.146-9.978-7.791-13.941-1.442-1.528-3.46-2.591-5.609-2.356-.429-.003-.858 0-1.288.002zM561.964 595.738c-3.19.278-5.575 2.773-7.853 4.775-5.609 5.516-10.988 11.366-15.274 17.988-.794 1.563-2.091 3.102-2.062 4.929 1.398 5.255 4.269 9.964 6.813 14.724 4.94 8.653 10.058 17.256 16.18 25.136 2.25 2.648 4.72 5.743 8.342 6.392 3.298.267 6.14-1.88 8.849-3.45 4.272-2.846 8.884-5.543 11.988-9.737 2.489-3.45 2.162-7.969 1.644-11.961-.526-2.956-1.021-6.411-3.585-8.345-2.508-1.634-5.637-.058-7.564 1.767-3.22 2.748-5.822 6.13-8.97 8.945-.649.598-1.822 1.053-2.434.138-2.28-2.46-4.488-5.148-5.726-8.297-.644-1.477.142-3.13 1.535-3.846 3.959-2.556 8.975-3.346 12.317-6.873 1.96-1.734 3.027-4.455 2.392-7.044-.444-2.992-2.735-6.233-6.044-6.136-2.586.114-4.198 2.404-5.493 4.353-2.282 2.3-5.877 4.082-9.088 2.723-1.652-.65-1.868-2.712-1.146-4.14 1.269-3.44 4.717-5.206 7.774-6.776 2.64-1.36 5.457-3.631 5.42-6.881-.178-3.115-2.623-5.5-4.912-7.346-.899-.649-1.98-1.079-3.103-1.038z" style="fill:#598bc9;fill-opacity:1;stroke:none;stroke-width:.185206"/><path d="M655.413 561.789c-6.681.605-13.263 2.842-19.03 6.249-3.966 2.46-7.457 6.717-6.87 11.658-.24 3.69.123 7.31 1.365 10.808 3.948 14.238 7.036 28.856 13.132 42.383 1.682 3.054 3.451 6.89 6.983 8.069 3.473.152 4.164-4.03 4.671-6.646 1.404-6.532.13-13.325 1.661-19.814.627-3.204 4.406-3.654 6.985-3.134 5.756.902 8.282 6.906 9.76 11.858 1.13 4.03 2.477 9.406 7.349 10.217 3.878.597 9.284-1.414 9.4-5.952-.284-4.56-4.408-7.49-5.925-11.556-3.29-6.458-2.813-14.148-6.238-20.521-1.621-2.991-5.232-3.789-8.365-3.284-3.637.033-7.706 1.464-11.11-.457-1.173-1.537.84-3.425 1.605-4.703 3.192-4.127 8.532-7.933 8.006-13.774-.95-6.193-6.929-11.833-13.38-11.401zm-7.428 12.183c2.929-.315 6.31 1.647 5.777 4.971-.325 4.473-4.562 7.088-7.952 9.31-2.43 1.426-3.823-1.876-4.286-3.72-1.068-3.675-.353-8.668 3.702-10.148.882-.316 1.827-.415 2.759-.413z" style="fill:#598bc9;fill-opacity:1;stroke:url(#b);stroke-width:6.969;stroke-dasharray:none;stroke-opacity:1"/><path d="M709.648 554.283c-7.094.102-12.144 6.327-14.366 12.516-3.489 8.658-2.605 18.17-2.64 27.288.282 7.957.76 16.291 4.338 23.55 1.282 3.03 5.497 4.711 8.075 2.233 3.638-3.336 1.755-8.652 2.076-12.915.082-5.304 1.934-11.419 6.79-14.204 3.172-1.542 6.08 1.68 6.738 4.549 2.002 6.212.327 13.652 4.809 18.992 1.883 2.34 6.23 3.54 8.354.963 1.661-4.079.221-8.663.006-12.893-1.396-10.557-2.346-21.217-4.623-31.63-1.961-7.395-6.274-15.227-14.08-17.574-1.762-.58-3.617-.914-5.476-.875zm.596 13.339c4.68.192 6.276 6.302 3.897 9.758-1.109 1.67-2.688 3.862-4.815 3.997-3.861-2.32-6.249-7.846-3.439-11.856 1.023-1.304 2.737-1.917 4.357-1.9zM755.113 561.605c-3.21-.249-5.92 2.303-6.171 5.455-1.778 11.372-1.863 22.978-1.237 34.452.089 3.63 1.055 7.535 4.285 9.653 6.056 4.307 13.026 7.396 20.225 9.212 8.216 1.89 18.032-.386 22.795-7.824 2.765-3.651 3.673-9.115 1.009-13.052-3.735-4.357-9.713-5.649-14.833-7.696-2.98-1.263-6.644-1.758-8.918-4.195-.006-2.345 3.245-2.399 4.939-2.78 6.348-.301 12.678-2.088 17.846-5.887 2.059-1.52 5.265-4.24 3.564-7.076-2.638-2.387-6.518-2.721-9.775-3.887-10.754-2.761-21.617-5.537-32.718-6.381a16.245 16.245 0 0 0-1.011.006zm13.516 8.95c2.975-.35 4.73 2.672 4.102 5.309-.612 4.201-6.729 5.149-9.638 2.815-3.027-2.183-1.484-7.16 2.09-7.69a11.186 11.186 0 0 1 3.446-.433zm-.263 31.887c3.643.145 8.1 1.023 10.075 4.418.836 2.584-2.51 3.81-4.514 3.99-4.067.314-8.772.238-12.144-2.337-1.565-2.538.757-5.231 3.3-5.643 1.068-.297 2.177-.42 3.283-.428zM832.45 569.015c-4.708-.115-10.479 1.014-12.495 5.868-3.31 8.15-4.097 17.051-5.963 25.591-.922 5.695-2.515 11.292-3.183 17.018.398 4.335 5.168 6.293 8.763 7.48 10.113 2.85 21.191 2.182 31.002-1.496 5.235-2.169 10.43-6.197 11.72-11.965.28-4.379-.125-9.7-3.754-12.688-4.668-2.89-10.419-1.216-15.518-2.308-2.509-.557-5.77-.683-7.41-2.901.8-1.845 3.588-1.907 5.175-2.8 4.942-1.775 11.092-4.21 12.255-10.005.91-4.644-3.693-7.954-7.446-9.513-4.114-1.916-8.666-2.332-13.146-2.281zm1.957 7.502c2.697-.08 6.031 1.583 6.48 4.392-2.27 2.952-6.13 4.157-9.694 4.598-2.183.176-5.43-1.092-4.465-3.858.753-3.36 4.495-5.106 7.679-5.132zm-3.846 31.478c3.811.21 8.932 1.169 10.303 5.292.616 3.425-3.534 4.768-6.099 5.558-2.33.891-5.245 1.063-6.952-1.096-1.954-1.823-4.55-4.707-3.166-7.548 1.382-1.749 3.808-2.196 5.914-2.206zM875.363 560.061c-4.083-.279-7.068 4.725-4.825 8.137 2.107 2.954 6.425.819 7.97-1.648 1.755-2.003 1.299-5.82-1.678-6.323a5.524 5.524 0 0 0-1.467-.166zM934.924 535.623c-3.328.796-5.372 3.98-8.418 5.424-9.762 6.086-20.74 10.04-30.21 16.601-2.463 1.656-4.222 4.464-3.62 7.517.437 5.679 6.096 9.853 11.578 9.882 3.687.634 7.84-.43 11.207 1.478 3.098 3.204 3.795 7.942 5.504 11.92 1.767 4.542 2.997 9.355 5.24 13.683 2.87 3.489 8.254 2.56 11.31-.183 2.457-1.9 5.226-5.529 3.071-8.623-4.647-5.722-9.553-11.288-13.253-17.71-1.656-3.121-4.025-6.249-4.349-9.896 1.641-4.808 7.254-6.039 11.097-8.535 4.916-2.776 8.91-8.364 7.5-14.216-.795-3.082-3.012-6.102-5.992-7.304a2.655 2.655 0 0 0-.665-.038z" style="fill:#598bc9;fill-opacity:1;stroke:none;stroke-width:.370413"/><path d="M877.66 581.823c-3.034-.047-7.127.692-7.51 4.396-1.317 11.56.56 23.562 5.15 34.249 1.353 2.717 3.019 5.605 5.619 7.217 4.256-2.485 8.268-6.215 13.48-6.513 3.51-1.555 1.292-5.704.297-8.15-3.97-9.67-6.516-20.109-12.193-28.976-1.061-1.614-2.959-2.353-4.844-2.223z" style="fill:#598bc9;fill-opacity:1;stroke:none;stroke-width:.523843"/></g><path d="M760.617 88.499c-22.64-1.325-44.455 8.462-62.453 21.454-15.173 10.28-17.369 30.066-17.754 46.856 1.193 12.802-4.833 24.378-11.36 34.872-4.374 7.556-6.917 19.455 2.062 24.797 7.958 3.682 17.604.424 25.058-3.24 15.11-7.446 26.039-22.643 42.94-26.361 11.259-2.522 20.243 6.22 26.204 14.628 11.38 16.285 19.703 35.68 18.56 55.804-.196 39.715-5.26 79.448-2.596 119.156 1.4 6.768 10.786 5.845 15.61 3.579 4.912-3.195 11.434-9.365 17.341-4.359 6.187 3.608 9.59 10.283 9.317 17.336 2.14 32.887 1.144 65.979 1.463 98.953 6.456 3.4 15.094 3.07 22.444 4.786 16.146 2.908 33.68 2.831 48.137-5.896 6.211-4.04 14.27-6.507 18.742-12.614.87-7.8-5.508-14.391-8.486-21.16-10.099-15.317-14.36-33.347-16.786-51.313-3.93-25.76-7.296-52.52-21.237-75.177-16.218-28.503-36.435-57.514-35.724-91.63.76-12.841 4.953-28.884 18.106-34.174 10.918-4.012 23.852-2.125 32.423 6.033 11.265 6.889 21.652 16.481 34.753 19.594 9.643.224 19.953 1.623 29.176-1.706 8.769-8.677.275-22.592-2.165-32.388-5.739-14.58-11.593-29.255-13.812-44.873-3.41-8.502-14.68-7.644-22.024-10.015-45.406-8.155-83.696-35.8-126.619-51.08-6.856-2.348-14.2-1.785-21.32-1.862z" style="fill:#ff9e00;fill-opacity:1;stroke:none;stroke-width:1.04768"/><path d="M807.155 384.758c-4.727-.53-5.285 4.679-4.055 8.091 2.064 21.1-1.404 42.69 2.454 63.655 3.016 11.555 4.652 23.64 8.34 34.922 3.562 2.915 5.703-3.477 5.516-6.233 1.726-15.224-1.678-30.44-4.24-45.202-.345-16.083 6.055-32.408 2.46-48.437-1.683-4.072-6.069-6.929-10.475-6.796z" style="fill:#325b96;fill-opacity:1;stroke:none;stroke-width:1.04768"/><path d="M101.156 8.803c-1.882 1.376-2.919 3.75-4.96 4.959-1.502.431-2.769-.964-3.935-1.686-1.328-.848-2.531-2.025-4.009-2.575-.999.266-.272 1.514-.07 2.128.895 2.415 2.439 4.653 2.667 7.266-.153 1.697-1.947 2.512-3.205 3.357-1.641 1.06-3.619 1.739-4.978 3.17-.338.92.992.87 1.556.816 3.954-.095 7.903-1.123 11.82-.69 1.348.327 2.126 2.234 3.66 1.78 1.406-.82.816-2.747 1.087-4.075.021-.762.132-1.601.934-1.946 1.31-1.018 3.043-1.425 4.253-2.555.125-.888-1.179-1.042-1.73-1.475-1.085-.63-3.015-1.01-2.805-2.656-.043-1.77.38-3.662.26-5.476-.067-.226-.304-.399-.545-.342z" style="fill:#fff;fill-opacity:1;stroke:none;stroke-width:3.53553;stroke-opacity:1;stop-color:#000" transform="scale(3)"/><path d="M322.9 14.303c-.861 1.41-.09 3.47-.226 5.084-.042 1.586.828 4.737-1.681 4.769-1.98.386-4.412-.347-6.15.783.303 1.307 2.371 1.294 3.375 1.878 1.305.619 3.985 1.006 3.765 2.918-1.601 3.318-4.788 5.957-5.453 9.684.525 1.612 2.248-.219 2.947-.736 2.442-1.778 4.788-4.088 7.755-4.888 2.722.673 5.229 2.266 8.151 2.069.805-.17 2.63.571 2.892-.505-2.501-2.004-5.83-2.98-8.181-5.283-.954-.714-1.831-2.084-.538-2.982 1.802-2.487 4.444-4.428 5.981-7.048-1.088-.945-2.91.315-4.195.225-1.842.675-3.692-.237-4.681-1.857-1.245-1.296-2.182-3.251-3.761-4.111zM410.906 146.532c-1.673 1.374-1.77 3.976-2.478 5.915-.503 1.157-.526 3.784-2.443 3.182-3.057-.418-5.98-1.77-9.052-1.93-.515 1.237 1.068 2.528 1.5 3.652 1.194 2.423 3.67 4.515 3.718 7.343-2.607 3.973-6.802 7.052-8.308 11.713-.127 1.49 1.636.215 2.184-.154 3.477-1.989 6.574-4.752 10.274-6.273 2.327.345 3.142 3.214 4.437 4.825 1.111 1.226 1.603 3.788 3.524 3.882 1.562-1.19.539-3.675.479-5.326-.33-3.287-1.981-6.708-.988-9.928 1.161-1.212 3.127-1.258 4.283-2.595.795-.856 2.512-1.562 2.52-2.839-2.352-.313-4.857 1.748-7.193.817-1.195-1.618-.732-4-1.17-5.92-.442-2.05-.035-4.526-1.09-6.348a.362.362 0 0 0-.197-.016zM37.55 172.335c-1.084.592.273 2.346.246 3.302.297 1.738 1.585 3.238 1.878 4.9-1.475 1.271-3.658-.237-5.299-.341-2.398-.409-4.88-1.726-7.322-1.286-.437 1.106 1.47 1.646 2.107 2.268 3.981 2.738 9.136 4.189 12.076 8.204.125 2.261-1.767 4.162-2.2 6.372-.592 2.385-1.606 5.236-.334 7.526 1.111.701 1.922-1.367 2.787-1.774 2.252-2.263 4.569-5.33 8.136-5.062 1.53-.311 3.722.56 4.872-.714-.43-2.188-2.723-3.588-3.863-5.438-2.632-2.317-1.706-6.037-.739-8.915.338-.624.39-2.039-.656-1.344-1.548.845-3.674 2.36-5.255.689-2.795-2.215-4.07-5.69-6.254-8.367a.394.394 0 0 0-.18-.02z" style="fill:#fff;fill-opacity:1;stroke:none;stroke-width:7.07107;stroke-opacity:1;stop-color:#000" transform="scale(3)"/></svg>